<svg version="1.1" xmlns="http://www.w3.org/2000/svg" style="display: block;" viewBox="0 0 2048 2048" width="1024" height="1024" preserveAspectRatio="none">
<path transform="translate(0,0)" fill="rgb(70,168,68)" d="M 995.05 408.46 C 1028.35 407.873 1061.65 407.848 1094.95 408.385 C 1094.96 419.712 1094.63 432.948 1095.52 444.094 C 1106 444.048 1128.53 442.3 1128.52 456.721 C 1128.51 472.201 1127.42 485.334 1129.24 501.211 C 1130.42 510.388 1130.04 528.357 1130 538.02 C 1136.07 537.815 1152.09 536.282 1155.93 539.987 C 1164.68 548.432 1165.01 584.731 1163.35 595.709 C 1173.44 596.352 1187.9 596.065 1198.33 596.155 C 1198.04 564.785 1197.95 533.414 1198.07 502.042 L 1232.26 502.147 C 1231.55 471.117 1232.17 439.372 1231.94 408.241 C 1263.7 407.154 1301.58 408.085 1333.73 408.01 L 1333.94 444.122 C 1347.8 443.728 1366.03 440.336 1365.52 459.125 C 1364.43 499.231 1367.69 541.556 1366.81 581.372 C 1365.76 660.676 1365.48 739.989 1365.99 819.298 C 1366.05 838.335 1369.96 923.314 1363.44 935.576 C 1351.36 944.117 1307.78 939.238 1291.01 939.993 C 1272.52 940.826 1278.38 894.361 1278.09 883.014 L 1266.1 882.977 C 1265.21 835.535 1266.29 787.663 1265.71 740.159 C 1261 743.7 1259.37 744.966 1253.98 747.625 L 1231.8 747.32 C 1230.66 771.767 1236.85 818.351 1226.82 838.883 C 1221.88 849.006 1160.51 844.836 1148.01 839.148 C 1139.52 823.312 1142.68 805.257 1142.17 786.989 C 1138.27 786.922 1133.93 786.616 1130 786.429 C 1129.63 773.747 1129.83 759.975 1129.76 747.207 C 1124.22 746.343 1119.45 745.895 1115.61 741.407 C 1105.41 729.469 1108.04 705.439 1108.05 690.377 C 1104.74 690.036 1099.36 689.999 1095.88 689.858 C 1093.12 698.553 1096.73 748.067 1096.79 760.502 C 1096.83 771.27 1095.81 791.35 1095.17 801.586 C 1093.6 826.848 1098.49 918.12 1092.16 936.276 C 1071.92 942.256 1055.23 938.004 1036.08 939.684 C 995.122 943.276 1006.28 915.594 1006.18 883.467 L 995.317 883.197 C 996.132 867.452 995.421 846.93 995.37 830.728 L 995.12 729.406 L 995.05 408.46 z"/>
<path transform="translate(0,0)" fill="rgb(46,93,49)" d="M 1333.94 444.122 C 1347.8 443.728 1366.03 440.336 1365.52 459.125 C 1364.43 499.231 1367.69 541.556 1366.81 581.372 C 1365.76 660.676 1365.48 739.989 1365.99 819.298 C 1366.05 838.335 1369.96 923.314 1363.44 935.576 C 1351.36 944.117 1307.78 939.238 1291.01 939.993 C 1272.52 940.826 1278.38 894.361 1278.09 883.014 C 1292.92 882.896 1317.01 882.073 1331.22 883.159 C 1332.79 882.806 1331.91 883.105 1333.77 882.041 C 1335.48 838.296 1333.96 784.152 1333.96 739.764 L 1333.95 465.097 C 1333.68 458.704 1333.92 450.645 1333.94 444.122 z"/>
<path transform="translate(0,0)" fill="rgb(0,0,0)" d="M 1333.95 465.097 L 1348 465.471 L 1348.01 919.869 L 1296.62 919.997 C 1296.62 908.149 1296.82 895.594 1296.55 883.808 C 1305.69 883.837 1322.72 884.328 1331.22 883.159 C 1332.79 882.806 1331.91 883.105 1333.77 882.041 C 1335.48 838.296 1333.96 784.152 1333.96 739.764 L 1333.95 465.097 z"/>
<path transform="translate(0,0)" fill="rgb(46,93,49)" d="M 1063.83 596.027 L 1095.95 595.961 L 1095.99 632.655 C 1095.97 639.171 1095 687.219 1095.88 689.858 C 1093.12 698.553 1096.73 748.067 1096.79 760.502 C 1096.83 771.27 1095.81 791.35 1095.17 801.586 C 1093.6 826.848 1098.49 918.12 1092.16 936.276 C 1071.92 942.256 1055.23 938.004 1036.08 939.684 C 995.122 943.276 1006.28 915.594 1006.18 883.467 C 1025.08 883.085 1043.98 882.864 1062.88 882.803 C 1063.05 861.089 1061.73 817.286 1063.82 797.48 L 1063.83 596.027 z"/>
<path transform="translate(0,0)" fill="rgb(0,0,0)" d="M 1063.83 596.027 L 1095.95 595.961 L 1095.99 632.655 L 1077.04 632.979 L 1076.99 919.281 C 1060.06 919.527 1043.12 919.578 1026.18 919.433 C 1026.12 907.719 1025.9 895.626 1026.26 883.947 C 1038.77 883.712 1051.29 883.646 1063.8 883.748 C 1063.98 859.252 1065.31 821.153 1063.82 797.48 L 1063.83 596.027 z"/>
<path transform="translate(0,0)" fill="rgb(46,93,49)" d="M 1231.95 596.036 L 1265.98 595.875 L 1266.01 632.36 L 1266.05 703.837 C 1266.05 712.993 1266.55 731.66 1265.71 740.159 C 1261 743.7 1259.37 744.966 1253.98 747.625 L 1231.8 747.32 C 1230.66 771.767 1236.85 818.351 1226.82 838.883 C 1221.88 849.006 1160.51 844.836 1148.01 839.148 C 1139.52 823.312 1142.68 805.257 1142.17 786.989 L 1161.75 786.974 L 1197.96 786.944 L 1198.14 690.828 L 1231.81 690.997 C 1232.3 659.701 1231.92 627.41 1231.95 596.036 z"/>
<path transform="translate(0,0)" fill="rgb(0,0,0)" d="M 1231.95 596.036 L 1265.98 595.875 L 1266.01 632.36 L 1246.03 632.566 C 1246.11 663.863 1246.54 695.872 1246.17 727.11 L 1212.77 727.017 C 1212.54 759.332 1212.62 791.649 1213 823.963 L 1162.01 824.041 L 1161.75 786.974 L 1197.96 786.944 L 1198.14 690.828 L 1231.81 690.997 C 1232.3 659.701 1231.92 627.41 1231.95 596.036 z"/>
<path transform="translate(0,0)" fill="rgb(46,93,49)" d="M 1130 538.02 C 1136.07 537.815 1152.09 536.282 1155.93 539.987 C 1164.68 548.432 1165.01 584.731 1163.35 595.709 L 1144.96 595.972 L 1144.66 558.995 L 1130.05 559.101 L 1130 538.02 z"/>
<path transform="translate(0,0)" fill="rgb(46,93,49)" d="M 1095.52 444.094 C 1106 444.048 1128.53 442.3 1128.52 456.721 C 1128.51 472.201 1127.42 485.334 1129.24 501.211 C 1122.94 501.527 1116.6 501.922 1110.3 501.944 L 1109.99 465.98 L 1096.01 466.058 C 1096.05 458.807 1096.27 451.278 1095.52 444.094 z"/>
<path transform="translate(0,0)" fill="rgb(46,93,49)" d="M 1108.05 690.377 L 1130.24 690.037 C 1130.14 708.515 1130.46 728.883 1129.76 747.207 C 1124.22 746.343 1119.45 745.895 1115.61 741.407 C 1105.41 729.469 1108.04 705.439 1108.05 690.377 z"/>
<path transform="translate(0,0)" fill="rgb(0,0,0)" d="M 1130.05 559.101 L 1144.66 558.995 L 1144.96 595.972 L 1130.05 596.157 L 1130.05 559.101 z"/>
<path transform="translate(0,0)" fill="rgb(0,0,0)" d="M 1096.01 466.058 L 1109.99 465.98 L 1110.3 501.944 L 1096.07 502.188 L 1096.01 466.058 z"/>
<path transform="translate(0,0)" fill="rgb(70,168,68)" d="M 690.018 1076.26 L 892.498 1076.32 C 891.887 1087.58 892.167 1100.64 892.51 1111.88 C 901.662 1111.57 912.095 1110.28 919.543 1116.86 C 924.269 1121.03 925.237 1127.61 925.197 1133.62 C 925.114 1146.04 924.057 1158.7 926.268 1171.03 C 926.207 1183.04 926.056 1196.42 926.598 1208.38 C 965.666 1208.33 958.876 1217.75 958.912 1252.73 L 958.937 1316.88 C 958.933 1376.01 959.002 1435.38 958.779 1494.53 C 958.762 1499.21 958.428 1514 954.956 1516.29 C 948.4 1520.62 932.374 1519.83 924.68 1519.86 C 923.009 1546.44 928.371 1589.62 920.981 1611.12 C 917.002 1612.31 911.827 1613.91 907.725 1613.97 C 844.486 1614.77 781.194 1614.02 717.943 1614.44 C 714.554 1614.46 710.617 1613.28 707.443 1612.14 C 699.115 1598.3 701.923 1575.18 702.186 1557.95 C 697.608 1558.11 696.363 1558.13 691.873 1557.49 C 689.35 1553.93 690.087 1525.76 689.989 1519.2 C 660.772 1517.36 669.313 1498.62 668.209 1476.24 C 667.988 1471.77 668.202 1467.02 668.183 1462.51 C 664.586 1461.93 660.189 1462.01 656.467 1461.93 C 656.15 1425.75 656.141 1389.56 656.44 1353.38 L 656.203 1170.08 L 690.176 1169.96 C 689.609 1139.12 690.016 1107.18 690.018 1076.26 z M 756.06 1462.2 C 784.919 1461.44 814.258 1462.41 843.153 1462.02 C 848.594 1461.95 853.949 1462.41 859.336 1461.54 L 859.085 1456.75 C 860.621 1382.66 856.992 1304.43 859.576 1230.81 C 859.363 1228.87 859.711 1229.81 858.321 1228.08 C 852.567 1227.09 846.516 1227.64 840.626 1227.86 C 820.066 1226.03 778.155 1227.67 755.895 1227.76 L 756.06 1462.2 z"/>
<path transform="translate(0,0)" fill="rgb(46,93,49)" d="M 926.598 1208.38 C 965.666 1208.33 958.876 1217.75 958.912 1252.73 L 958.937 1316.88 C 958.933 1376.01 959.002 1435.38 958.779 1494.53 C 958.762 1499.21 958.428 1514 954.956 1516.29 C 948.4 1520.62 932.374 1519.83 924.68 1519.86 C 923.009 1546.44 928.371 1589.62 920.981 1611.12 C 917.002 1612.31 911.827 1613.91 907.725 1613.97 C 844.486 1614.77 781.194 1614.02 717.943 1614.44 C 714.554 1614.46 710.617 1613.28 707.443 1612.14 C 699.115 1598.3 701.923 1575.18 702.186 1557.95 L 721.125 1558.08 L 892.339 1558.02 C 893.241 1527.33 892.915 1492.92 892.448 1462.13 L 927.108 1462.24 L 926.818 1228.22 C 926.188 1222.59 926.524 1214.31 926.598 1208.38 z"/>
<path transform="translate(0,0)" fill="rgb(0,0,0)" d="M 926.818 1228.22 L 939.914 1229.05 L 940.015 1498.83 L 905.113 1499.07 C 905.27 1529.45 904.514 1564.53 905.658 1594.59 C 844.396 1593.79 781.979 1595.26 720.947 1594.07 C 720.939 1585.73 720.403 1565.49 721.125 1558.08 L 892.339 1558.02 C 893.241 1527.33 892.915 1492.92 892.448 1462.13 L 927.108 1462.24 L 926.818 1228.22 z"/>
<path transform="translate(0,0)" fill="rgb(46,93,49)" d="M 892.51 1111.88 C 901.662 1111.57 912.095 1110.28 919.543 1116.86 C 924.269 1121.03 925.237 1127.61 925.197 1133.62 C 925.114 1146.04 924.057 1158.7 926.268 1171.03 L 905.694 1170.95 L 892.078 1171.05 L 892.145 1133.87 C 892.044 1126.77 892.356 1119.03 892.51 1111.88 z"/>
<path transform="translate(0,0)" fill="rgb(0,0,0)" d="M 892.145 1133.87 C 895.675 1132.45 901.898 1132.99 905.955 1133.05 C 905.918 1145.02 906.216 1159.15 905.694 1170.95 L 892.078 1171.05 L 892.145 1133.87 z"/>
<path transform="translate(0,0)" fill="rgb(46,93,49)" d="M 668.183 1462.51 C 674.191 1463.02 682.541 1463.44 688.372 1461.83 C 691.682 1466.46 690.053 1493.91 689.857 1501.29 C 689.826 1507.05 689.624 1513.51 689.989 1519.2 C 660.772 1517.36 669.313 1498.62 668.209 1476.24 C 667.988 1471.77 668.202 1467.02 668.183 1462.51 z"/>
<path transform="translate(0,0)" fill="rgb(0,0,0)" d="M 688.372 1461.83 C 691.682 1466.46 690.053 1493.91 689.857 1501.29 C 685.48 1497.25 685.159 1467.11 688.372 1461.83 z"/>
<path transform="translate(0,0)" fill="rgb(0,0,0)" d="M 724.061 1171.92 L 859.998 1171.71 L 860.205 1208.2 C 860.183 1211.59 860.269 1228.8 859.576 1230.81 C 859.363 1228.87 859.711 1229.81 858.321 1228.08 C 852.567 1227.09 846.516 1227.64 840.626 1227.86 C 820.066 1226.03 778.155 1227.67 755.895 1227.76 L 756.06 1462.2 C 748.308 1462.5 730.907 1463.63 724.011 1462.57 C 722.915 1366.53 723.848 1268.12 724.061 1171.92 z"/>
<path transform="translate(0,0)" fill="rgb(46,93,49)" d="M 738.005 1207.85 C 778.738 1207.59 819.473 1207.7 860.205 1208.2 C 860.183 1211.59 860.269 1228.8 859.576 1230.81 C 859.363 1228.87 859.711 1229.81 858.321 1228.08 C 852.567 1227.09 846.516 1227.64 840.626 1227.86 C 820.066 1226.03 778.155 1227.67 755.895 1227.76 L 756.06 1462.2 C 748.308 1462.5 730.907 1463.63 724.011 1462.57 C 727.405 1461.91 734.338 1462.04 738.059 1461.99 L 738.005 1207.85 z"/>
<path transform="translate(0,0)" fill="rgb(70,168,68)" d="M 994.802 1076.07 L 1202.44 1076.04 C 1201.93 1086.91 1202.16 1099.92 1202.29 1110.84 C 1217.42 1110.63 1223.99 1108.66 1233.49 1121.51 C 1235.79 1132.94 1235.11 1158.53 1235.1 1170.98 C 1235.58 1182.9 1235.88 1194.82 1236 1206.75 C 1264.38 1206.15 1267.43 1207.4 1267.24 1236.47 C 1266.63 1327.44 1269.24 1418.97 1266.89 1509.89 C 1257.52 1523.58 1248.3 1520.31 1233.03 1519.84 C 1233.1 1533.71 1235.92 1603.77 1228.88 1610.39 C 1226.36 1612.75 1222.96 1614.14 1219.57 1614.6 C 1207.86 1616.18 1194.97 1615.12 1183.12 1615.11 C 1156.75 1615.23 1130.37 1614.99 1104.01 1614.4 C 1074.17 1613.9 1041.63 1616.49 1012.42 1611.37 C 1006.11 1594.8 1007.91 1575.96 1008.02 1558.01 C 1004.19 1557.77 999.389 1557.82 995.469 1557.74 L 994.802 1076.07 z M 1095.13 1461.99 C 1118.89 1461.88 1144.52 1461.34 1168.12 1462.12 C 1167.34 1384.45 1167.28 1306.77 1167.92 1229.09 C 1143.61 1228.93 1119.29 1228.89 1094.98 1229 L 1094.73 1362.65 C 1094.73 1395.19 1094.23 1429.59 1095.13 1461.99 z"/>
<path transform="translate(0,0)" fill="rgb(46,93,49)" d="M 1236 1206.75 C 1264.38 1206.15 1267.43 1207.4 1267.24 1236.47 C 1266.63 1327.44 1269.24 1418.97 1266.89 1509.89 C 1257.52 1523.58 1248.3 1520.31 1233.03 1519.84 C 1233.1 1533.71 1235.92 1603.77 1228.88 1610.39 C 1226.36 1612.75 1222.96 1614.14 1219.57 1614.6 C 1207.86 1616.18 1194.97 1615.12 1183.12 1615.11 C 1156.75 1615.23 1130.37 1614.99 1104.01 1614.4 C 1074.17 1613.9 1041.63 1616.49 1012.42 1611.37 C 1006.11 1594.8 1007.91 1575.96 1008.02 1558.01 C 1013.96 1558.35 1022.68 1558.12 1028.83 1558.14 L 1202.05 1558.03 L 1202.24 1462.43 L 1235.91 1462.36 L 1236 1228.11 C 1236.13 1221.09 1236.01 1213.79 1236 1206.75 z"/>
<path transform="translate(0,0)" fill="rgb(0,0,0)" d="M 1236 1228.11 L 1250.22 1228.05 C 1250.81 1254.83 1250.25 1282.18 1250.23 1309.04 L 1250.13 1499.08 L 1215.02 1499.26 L 1214.59 1594.44 C 1152.6 1594.82 1090.6 1594.78 1028.61 1594.34 L 1028.83 1558.14 L 1202.05 1558.03 L 1202.24 1462.43 L 1235.91 1462.36 L 1236 1228.11 z"/>
<path transform="translate(0,0)" fill="rgb(46,93,49)" d="M 1202.29 1110.84 C 1217.42 1110.63 1223.99 1108.66 1233.49 1121.51 C 1235.79 1132.94 1235.11 1158.53 1235.1 1170.98 L 1215.95 1170.99 L 1202.22 1171.01 C 1200.9 1162.42 1202.21 1122.07 1202.29 1110.84 z"/>
<path transform="translate(0,0)" fill="rgb(0,0,0)" d="M 1202.88 1134.04 L 1215.99 1133.73 L 1215.95 1170.99 L 1202.22 1171.01 C 1203 1159.66 1202.79 1145.65 1202.88 1134.04 z"/>
<path transform="translate(0,0)" fill="rgb(0,0,0)" d="M 1063.68 1171.68 L 1168.49 1171.64 C 1169.84 1186.56 1168.43 1213.3 1167.92 1229.09 C 1143.61 1228.93 1119.29 1228.89 1094.98 1229 L 1094.73 1362.65 C 1094.73 1395.19 1094.23 1429.59 1095.13 1461.99 C 1087.54 1462.34 1070.79 1463.44 1063.9 1462.53 C 1062.8 1366.16 1064.07 1268.27 1063.68 1171.68 z"/>
<path transform="translate(0,0)" fill="rgb(46,93,49)" d="M 1168.49 1171.64 C 1169.84 1186.56 1168.43 1213.3 1167.92 1229.09 C 1143.61 1228.93 1119.29 1228.89 1094.98 1229 L 1094.73 1362.65 C 1094.73 1395.19 1094.23 1429.59 1095.13 1461.99 C 1087.54 1462.34 1070.79 1463.44 1063.9 1462.53 C 1066.98 1461.95 1074.06 1461.93 1077.48 1461.83 L 1076.9 1207.61 C 1107.24 1207.35 1137.58 1207.41 1167.91 1207.78 C 1167.9 1198.01 1167.37 1180.74 1168.49 1171.64 z"/>
<path transform="translate(0,0)" fill="rgb(70,168,68)" d="M 690.04 408.171 C 756.293 409.042 825.422 408.044 891.934 408.054 L 891.951 443.754 C 905.684 443.644 914.115 441.209 923.7 452.567 C 925.331 468.643 924.596 485.88 925.086 502.249 C 925.162 513.976 925.059 526.327 925.467 537.984 C 940.928 537.915 947.567 534.672 956.73 547.836 L 957.048 608.668 C 957.101 620.048 957.657 632.226 956.162 643.512 C 955.557 648.076 951.52 650.514 948.007 652.927 C 942.093 653.16 930.365 653.928 924.957 653.413 C 924.729 665.673 924.744 677.936 925.001 690.195 C 925.051 699.101 924.639 716.246 925.325 724.51 C 963.394 725.332 957.057 733.045 957.094 767.183 L 957.138 816.279 C 957.16 850.4 957.324 884.992 957.111 919.153 C 957.086 923.264 955.721 932.392 953.72 935.861 C 940.345 942.3 895.861 938.884 879.531 938.122 C 863.903 937.394 868.187 894.295 868.473 883.92 L 858.072 883.878 L 858.405 747.915 C 836.245 747.815 813.069 747.564 790.925 747.979 L 790.375 852.501 C 790.371 861.513 791.992 930.528 786.014 935.382 C 775.541 943.887 731.582 939.849 716.786 940.473 C 712.558 940.677 706.145 936.208 704.523 933.653 C 697.904 923.231 701.719 896.161 701.683 882.601 C 699.045 882.084 692.991 882.038 690.036 881.925 L 690.04 408.171 z M 791.026 595.912 C 812.783 595.095 836.784 595.898 858.899 595.613 C 858.117 587.111 858.564 568.942 858.511 559.527 C 836.207 559.562 813.218 559.314 790.97 559.853 L 791.026 595.912 z"/>
<path transform="translate(0,0)" fill="rgb(0,0,0)" d="M 757.924 690.937 L 858.544 690.928 C 860.129 703.802 858.826 734.422 858.405 747.915 C 836.245 747.815 813.069 747.564 790.925 747.979 L 790.375 852.501 C 790.371 861.513 791.992 930.528 786.014 935.382 C 775.541 943.887 731.582 939.849 716.786 940.473 C 712.558 940.677 706.145 936.208 704.523 933.653 C 697.904 923.231 701.719 896.161 701.683 882.601 C 719.1 883.567 736.736 882.101 754.049 883.146 C 756.088 882.988 755.116 883.334 756.893 881.922 C 758.027 876.408 757.516 831.833 757.516 823.669 L 757.924 690.937 z"/>
<path transform="translate(0,0)" fill="rgb(46,93,49)" d="M 858.544 690.928 C 860.129 703.802 858.826 734.422 858.405 747.915 C 836.245 747.815 813.069 747.564 790.925 747.979 L 790.375 852.501 C 790.371 861.513 791.992 930.528 786.014 935.382 C 775.541 943.887 731.582 939.849 716.786 940.473 C 712.558 940.677 706.145 936.208 704.523 933.653 C 697.904 923.231 701.719 896.161 701.683 882.601 C 719.1 883.567 736.736 882.101 754.049 883.146 C 743.849 884.058 730.558 883.726 720.103 883.745 L 720.359 919.967 L 771.822 920.02 L 772.07 726.943 C 800.749 726.603 829.431 726.629 858.11 727.022 C 858.012 718.248 857.446 699.019 858.544 690.928 z"/>
<path transform="translate(0,0)" fill="rgb(46,93,49)" d="M 925.325 724.51 C 963.394 725.332 957.057 733.045 957.094 767.183 L 957.138 816.279 C 957.16 850.4 957.324 884.992 957.111 919.153 C 957.086 923.264 955.721 932.392 953.72 935.861 C 940.345 942.3 895.861 938.884 879.531 938.122 C 863.903 937.394 868.187 894.295 868.473 883.92 C 880.818 882.782 913.615 882.201 925.692 883.344 C 925.974 838.012 925.993 792.678 925.751 747.345 C 925.224 740.922 925.385 731.073 925.325 724.51 z"/>
<path transform="translate(0,0)" fill="rgb(0,0,0)" d="M 925.751 747.345 L 939.699 747.672 L 939.756 920.078 L 887.773 920.017 L 887.858 884.019 C 897.214 883.991 917.319 884.4 925.692 883.344 C 925.974 838.012 925.993 792.678 925.751 747.345 z"/>
<path transform="translate(0,0)" fill="rgb(46,93,49)" d="M 925.467 537.984 C 940.928 537.915 947.567 534.672 956.73 547.836 L 957.048 608.668 C 957.101 620.048 957.657 632.226 956.162 643.512 C 955.557 648.076 951.52 650.514 948.007 652.927 C 942.093 653.16 930.365 653.928 924.957 653.413 C 924.729 665.673 924.744 677.936 925.001 690.195 C 919.439 690.64 909.78 690.852 904.329 690.266 L 891.948 689.956 L 891.948 596.003 L 925.686 596.013 C 926.011 583.818 925.825 570.757 925.861 558.493 C 925.662 551.658 925.531 544.822 925.467 537.984 z"/>
<path transform="translate(0,0)" fill="rgb(0,0,0)" d="M 925.861 558.493 L 939.652 558.993 C 939.666 583.01 939.112 609.576 939.79 633.378 C 928.499 633.308 916.533 633.058 905.298 633.266 C 905.325 641.297 906.255 687.272 904.329 690.266 L 891.948 689.956 L 891.948 596.003 L 925.686 596.013 C 926.011 583.818 925.825 570.757 925.861 558.493 z"/>
<path transform="translate(0,0)" fill="rgb(46,93,49)" d="M 891.951 443.754 C 905.684 443.644 914.115 441.209 923.7 452.567 C 925.331 468.643 924.596 485.88 925.086 502.249 C 919.742 502.601 911.452 502.255 905.844 502.165 C 906.133 490.412 905.727 477.084 905.62 465.221 L 891.978 464.985 L 891.951 443.754 z"/>
<path transform="translate(0,0)" fill="rgb(0,0,0)" d="M 891.978 464.985 L 905.62 465.221 C 905.727 477.084 906.133 490.412 905.844 502.165 L 892.03 502.25 L 891.978 464.985 z"/>
<path transform="translate(0,0)" fill="rgb(0,0,0)" d="M 757.954 502.834 L 858.557 502.337 C 861 520.661 857.022 544.87 858.511 559.527 C 836.207 559.562 813.218 559.314 790.97 559.853 L 791.026 595.912 L 772.153 596.089 L 757.806 596.098 C 757.417 565.306 757.865 533.688 757.954 502.834 z"/>
<path transform="translate(0,0)" fill="rgb(46,93,49)" d="M 858.557 502.337 C 861 520.661 857.022 544.87 858.511 559.527 C 836.207 559.562 813.218 559.314 790.97 559.853 L 791.026 595.912 L 772.153 596.089 L 771.988 538.968 L 858.092 539.391 C 858.064 528.869 857.614 512.282 858.557 502.337 z"/>
<path transform="translate(0,0)" fill="rgb(70,168,68)" d="M 417.012 408.087 L 585.085 408.176 C 585.053 420.066 584.743 432.992 585.562 444.771 C 600.651 444.615 610.998 442.587 619.497 457.005 C 619.908 472.024 620.056 487.049 619.939 502.074 C 619.979 512.551 619.595 527.662 620.215 537.764 C 631.976 537.805 651.343 534.324 651.868 551.33 C 652.339 566.542 652.056 581.98 652.058 597.217 L 652.034 693.648 L 652.111 835.25 C 652.145 850.127 653.839 926.649 649.034 935.312 C 638.477 942.076 621.417 939.367 609.442 940.062 C 549.126 943.565 565.967 928.265 562.035 883.048 C 558.741 883.082 555.384 883.567 552.644 882.043 C 551.488 872.424 552.215 846.337 552.229 835.684 L 552.103 747.54 C 530.102 748.207 505.322 746.828 484.12 747.973 C 481.317 800.873 484.777 856.254 483.438 909.377 C 482.138 921.792 486.194 937.591 469.139 939.571 C 450.523 941.733 431.3 939.881 412.661 940.052 C 385.325 940.304 392.835 903.738 392.81 883.654 L 383.749 883.029 C 382.404 836.595 383.484 785.709 383.372 738.813 C 382.988 660.009 383.007 581.204 383.428 502.401 C 394.93 502.282 406.433 502.343 417.933 502.584 C 417.902 471.083 417.595 439.583 417.012 408.087 z M 483.951 596.091 C 504.725 596.893 531.041 596.142 552.227 596.108 C 551.903 584.475 552.106 571.804 552.081 560.09 C 534.664 559.857 517.629 560.096 500.246 561.127 C 494.943 561.442 489.322 561.726 484.038 561.418 C 483.777 572.974 483.748 584.534 483.951 596.091 z"/>
<path transform="translate(0,0)" fill="rgb(46,93,49)" d="M 620.215 537.764 C 631.976 537.805 651.343 534.324 651.868 551.33 C 652.339 566.542 652.056 581.98 652.058 597.217 L 652.034 693.648 L 652.111 835.25 C 652.145 850.127 653.839 926.649 649.034 935.312 C 638.477 942.076 621.417 939.367 609.442 940.062 C 549.126 943.565 565.967 928.265 562.035 883.048 C 575.204 883.362 587.925 882.326 601.351 883.15 L 619.976 883.074 L 620.073 559.09 C 619.897 552.446 620.165 544.512 620.215 537.764 z"/>
<path transform="translate(0,0)" fill="rgb(0,0,0)" d="M 620.073 559.09 L 634.903 559.03 C 635.027 678.101 636.358 801.009 634.718 919.831 L 583.048 919.975 L 583.021 883.733 C 587.717 883.659 597.128 883.73 601.351 883.15 L 619.976 883.074 L 620.073 559.09 z"/>
<path transform="translate(0,0)" fill="rgb(0,0,0)" d="M 451.577 691.207 C 483.589 691.941 519.966 691.269 552.077 691 L 552.126 727.472 L 552.103 747.54 C 530.102 748.207 505.322 746.828 484.12 747.973 C 481.317 800.873 484.777 856.254 483.438 909.377 C 482.138 921.792 486.194 937.591 469.139 939.571 C 450.523 941.733 431.3 939.881 412.661 940.052 C 385.325 940.304 392.835 903.738 392.81 883.654 C 404.527 883.238 417.814 882.442 429.367 883.149 L 451.58 883.154 C 451.606 819.503 450.92 754.733 451.577 691.207 z"/>
<path transform="translate(0,0)" fill="rgb(46,93,49)" d="M 464.755 726.98 L 552.126 727.472 L 552.103 747.54 C 530.102 748.207 505.322 746.828 484.12 747.973 C 481.317 800.873 484.777 856.254 483.438 909.377 C 482.138 921.792 486.194 937.591 469.139 939.571 C 450.523 941.733 431.3 939.881 412.661 940.052 C 385.325 940.304 392.835 903.738 392.81 883.654 C 404.527 883.238 417.814 882.442 429.367 883.149 C 425.293 883.693 418.292 883.707 413.978 883.847 L 413.937 920.003 L 465.037 919.929 L 464.755 726.98 z"/>
<path transform="translate(0,0)" fill="rgb(46,93,49)" d="M 585.562 444.771 C 600.651 444.615 610.998 442.587 619.497 457.005 C 619.908 472.024 620.056 487.049 619.939 502.074 L 600.084 502.014 L 586.079 502.126 C 586.121 490.683 586.099 479.239 586.015 467.796 C 586.092 460.05 586.314 452.491 585.562 444.771 z"/>
<path transform="translate(0,0)" fill="rgb(0,0,0)" d="M 586.015 467.796 C 589.637 464.979 595.613 465.9 600.731 466.024 C 600.555 477.918 600.515 490.162 600.084 502.014 L 586.079 502.126 C 586.121 490.683 586.099 479.239 586.015 467.796 z"/>
<path transform="translate(0,0)" fill="rgb(0,0,0)" d="M 451.531 503.094 C 484.813 503.429 518.768 503.042 552.106 503.008 L 552.19 539.046 L 552.081 560.09 C 534.664 559.857 517.629 560.096 500.246 561.127 C 494.943 561.442 489.322 561.726 484.038 561.418 C 483.777 572.974 483.748 584.534 483.951 596.091 C 477.854 596.182 471.756 596.209 465.658 596.171 L 451.822 596.103 C 451.389 565.102 451.292 534.097 451.531 503.094 z"/>
<path transform="translate(0,0)" fill="rgb(46,93,49)" d="M 465.605 539.116 L 552.19 539.046 L 552.081 560.09 C 534.664 559.857 517.629 560.096 500.246 561.127 C 494.943 561.442 489.322 561.726 484.038 561.418 C 483.777 572.974 483.748 584.534 483.951 596.091 C 477.854 596.182 471.756 596.209 465.658 596.171 C 465.318 577.154 465.3 558.133 465.605 539.116 z"/>
<path transform="translate(0,0)" fill="rgb(70,168,68)" d="M 1709.91 408.275 L 1910.93 408.358 L 1911.04 444.219 C 1925.11 443.614 1935.62 440.101 1943.82 453.173 C 1944.87 468.874 1943.68 487.913 1944.88 501.935 C 1944.84 512.776 1944.38 527.196 1945.32 537.726 C 1953.07 537.21 1966.68 535.3 1972.7 541.436 C 1978.9 547.754 1978.26 625.421 1976.55 637.962 C 1975.91 642.596 1975.46 647.052 1971.67 650.18 C 1965.07 655.628 1952.31 654.237 1944.22 653.929 C 1944.2 664.657 1943.75 679.568 1944.43 689.998 C 1944.32 698.702 1943.74 716.329 1945.64 724.156 C 1971.08 723.165 1976.62 725.161 1976.97 751.83 C 1977.31 776.946 1977.07 802.251 1977.29 827.383 C 1977.19 850.158 1980.62 917.029 1974.69 934.918 C 1965.21 943.39 1944.89 940.22 1933.17 941.067 C 1880.82 944.852 1887.62 927.363 1888.52 883.084 C 1883.57 882.246 1881.94 882.468 1876.82 882.718 L 1876.6 747.053 C 1853.88 746.054 1831.12 745.879 1808.38 746.53 C 1809.45 779.147 1808.51 815.175 1808.78 848.113 C 1808.96 870.287 1810.01 915.638 1805.97 935.155 C 1790.91 941.58 1745.28 940.81 1728.7 938.161 C 1719 936.609 1719.99 892.722 1720.27 883 C 1715.61 883.009 1714.74 883.772 1711.26 881.835 C 1708.53 875.452 1710.16 448.956 1709.91 408.275 z M 1809.82 595.904 C 1831.64 596.449 1855.25 595.985 1877.31 596.189 C 1876.76 585.358 1877.09 571.139 1877.05 560.051 C 1855.73 559.341 1830.74 559.408 1809.3 559.767 C 1809.9 571.862 1809.81 583.801 1809.82 595.904 z"/>
<path transform="translate(0,0)" fill="rgb(0,0,0)" d="M 1778.01 690.796 L 1876.98 690.279 L 1876.77 726.475 L 1876.6 747.053 C 1853.88 746.054 1831.12 745.879 1808.38 746.53 C 1809.45 779.147 1808.51 815.175 1808.78 848.113 C 1808.96 870.287 1810.01 915.638 1805.97 935.155 C 1790.91 941.58 1745.28 940.81 1728.7 938.161 C 1719 936.609 1719.99 892.722 1720.27 883 C 1730.46 882.926 1747.64 882.352 1757.2 883.154 L 1777.93 883.036 L 1778.01 690.796 z"/>
<path transform="translate(0,0)" fill="rgb(46,93,49)" d="M 1791.92 726.498 L 1876.77 726.475 L 1876.6 747.053 C 1853.88 746.054 1831.12 745.879 1808.38 746.53 C 1809.45 779.147 1808.51 815.175 1808.78 848.113 C 1808.96 870.287 1810.01 915.638 1805.97 935.155 C 1790.91 941.58 1745.28 940.81 1728.7 938.161 C 1719 936.609 1719.99 892.722 1720.27 883 C 1730.46 882.926 1747.64 882.352 1757.2 883.154 C 1752.6 883.794 1744.87 883.614 1739.99 883.649 L 1740.02 919.903 L 1791.58 919.461 C 1791.57 856.513 1790.47 789.217 1791.92 726.498 z"/>
<path transform="translate(0,0)" fill="rgb(46,93,49)" d="M 1945.64 724.156 C 1971.08 723.165 1976.62 725.161 1976.97 751.83 C 1977.31 776.946 1977.07 802.251 1977.29 827.383 C 1977.19 850.158 1980.62 917.029 1974.69 934.918 C 1965.21 943.39 1944.89 940.22 1933.17 941.067 C 1880.82 944.852 1887.62 927.363 1888.52 883.084 C 1904.17 883.04 1927.27 882.098 1942.14 883.152 C 1944.09 882.934 1943.12 883.246 1945.01 882.041 C 1945.73 865.77 1945.22 846.213 1945.21 829.743 C 1945.27 803.233 1945.19 776.722 1944.96 750.213 C 1945.1 741.525 1945.33 732.839 1945.64 724.156 z"/>
<path transform="translate(0,0)" fill="rgb(0,0,0)" d="M 1944.96 750.213 C 1947.76 745.433 1953.24 747.025 1958.6 747.24 C 1959.17 804.578 1957.87 862.562 1958.68 919.726 C 1941.94 919.912 1925.2 919.949 1908.46 919.836 L 1908.03 883.909 C 1917.92 883.854 1932.67 884.202 1942.14 883.152 C 1944.09 882.934 1943.12 883.246 1945.01 882.041 C 1945.73 865.77 1945.22 846.213 1945.21 829.743 C 1945.27 803.233 1945.19 776.722 1944.96 750.213 z"/>
<path transform="translate(0,0)" fill="rgb(46,93,49)" d="M 1945.32 537.726 C 1953.07 537.21 1966.68 535.3 1972.7 541.436 C 1978.9 547.754 1978.26 625.421 1976.55 637.962 C 1975.91 642.596 1975.46 647.052 1971.67 650.18 C 1965.07 655.628 1952.31 654.237 1944.22 653.929 C 1944.2 664.657 1943.75 679.568 1944.43 689.998 C 1937.78 690.08 1931.12 690.11 1924.47 690.086 L 1924.94 633.001 L 1958.15 633.166 C 1958.29 608.193 1958.97 583.381 1958.74 558.372 L 1945.75 558.212 C 1945.36 552.079 1945.44 544.013 1945.32 537.726 z"/>
<path transform="translate(0,0)" fill="rgb(0,0,0)" d="M 1945.75 558.212 L 1958.74 558.372 C 1958.97 583.381 1958.29 608.193 1958.15 633.166 L 1924.94 633.001 L 1924.47 690.086 L 1910.19 690.121 C 1910.03 658.753 1910.12 627.384 1910.45 596.017 L 1945.38 596.025 L 1945.75 558.212 z"/>
<path transform="translate(0,0)" fill="rgb(46,93,49)" d="M 1911.04 444.219 C 1925.11 443.614 1935.62 440.101 1943.82 453.173 C 1944.87 468.874 1943.68 487.913 1944.88 501.935 C 1939.58 502.272 1931.09 501.993 1925.55 501.985 L 1910.91 502.027 L 1911.07 466.092 L 1911.04 444.219 z"/>
<path transform="translate(0,0)" fill="rgb(0,0,0)" d="M 1911.07 466.092 C 1915.91 465.91 1920.74 465.673 1925.58 465.716 C 1925.53 476.829 1925.08 491.129 1925.55 501.985 L 1910.91 502.027 L 1911.07 466.092 z"/>
<path transform="translate(0,0)" fill="rgb(0,0,0)" d="M 1778 502.909 L 1877.48 502.904 L 1877.15 539.406 L 1877.05 560.051 C 1855.73 559.341 1830.74 559.408 1809.3 559.767 C 1809.9 571.862 1809.81 583.801 1809.82 595.904 L 1791.93 596.003 L 1777.95 596.018 L 1778 502.909 z"/>
<path transform="translate(0,0)" fill="rgb(46,93,49)" d="M 1792.14 539.131 C 1820.47 538.966 1848.81 539.057 1877.15 539.406 L 1877.05 560.051 C 1855.73 559.341 1830.74 559.408 1809.3 559.767 C 1809.9 571.862 1809.81 583.801 1809.82 595.904 L 1791.93 596.003 L 1792.14 539.131 z"/>
<path transform="translate(0,0)" fill="rgb(70,168,68)" d="M 1304.59 1076.18 C 1382.35 1074.91 1463.43 1076.28 1541.47 1076.29 C 1541.66 1087.2 1541.79 1098.12 1541.84 1109.03 C 1549.82 1108.63 1563.95 1106.33 1570.17 1112.29 C 1579.48 1121.19 1577.42 1196.8 1575.48 1213.05 C 1574.93 1217.68 1574.04 1222.84 1570.95 1226.49 C 1558.03 1231.76 1517.21 1229.95 1501.32 1229.93 L 1403.1 1229.95 C 1403.25 1243.23 1403.24 1256.77 1403.91 1270.02 L 1473.72 1270.08 C 1473.13 1280.06 1472.73 1293.78 1473.19 1303.92 C 1478.94 1303.79 1497.08 1302.76 1499.55 1306.56 C 1511.69 1325.27 1509.57 1400.19 1503.62 1417.42 C 1500.64 1426.03 1415.64 1422.77 1404.15 1422.54 L 1403.43 1462.04 L 1541.01 1462 L 1540.9 1498.07 C 1563.13 1497.77 1575.13 1495.79 1575.18 1522.82 L 1575.1 1566.97 C 1575.43 1616.44 1578.28 1616.13 1528.13 1615.82 L 1397.86 1615.75 C 1381.96 1615.75 1332.43 1617.97 1321.31 1611.86 C 1313.75 1601.08 1316.25 1572.74 1316 1557.97 L 1304.87 1557.7 C 1303.82 1542.84 1304.5 1519.84 1304.5 1504.07 L 1304.68 1400.71 L 1304.59 1076.18 z"/>
<path transform="translate(0,0)" fill="rgb(0,0,0)" d="M 1540.9 1498.07 C 1563.13 1497.77 1575.13 1495.79 1575.18 1522.82 L 1575.1 1566.97 C 1575.43 1616.44 1578.28 1616.13 1528.13 1615.82 L 1397.86 1615.75 C 1381.96 1615.75 1332.43 1617.97 1321.31 1611.86 C 1313.75 1601.08 1316.25 1572.74 1316 1557.97 C 1359 1558.56 1412.24 1555.87 1454.16 1558.16 C 1482.54 1558.62 1512.54 1558.05 1541.05 1557.99 L 1541.08 1520.22 C 1540.66 1513.67 1540.9 1504.82 1540.9 1498.07 z"/>
<path transform="translate(0,0)" fill="rgb(46,93,49)" d="M 1540.9 1498.07 C 1563.13 1497.77 1575.13 1495.79 1575.18 1522.82 L 1575.1 1566.97 C 1575.43 1616.44 1578.28 1616.13 1528.13 1615.82 L 1397.86 1615.75 C 1381.96 1615.75 1332.43 1617.97 1321.31 1611.86 C 1313.75 1601.08 1316.25 1572.74 1316 1557.97 C 1359 1558.56 1412.24 1555.87 1454.16 1558.16 C 1443.42 1559.2 1424.66 1558.79 1413.4 1558.81 L 1337.06 1558.69 L 1337 1595 C 1361.87 1593.9 1390.11 1594.69 1415.19 1594.71 L 1556.07 1594.78 C 1556.41 1569.92 1556.26 1544.7 1556.3 1519.81 C 1551.3 1519.83 1546.09 1520.07 1541.08 1520.22 C 1540.66 1513.67 1540.9 1504.82 1540.9 1498.07 z"/>
<path transform="translate(0,0)" fill="rgb(0,0,0)" d="M 1541.84 1109.03 C 1549.82 1108.63 1563.95 1106.33 1570.17 1112.29 C 1579.48 1121.19 1577.42 1196.8 1575.48 1213.05 C 1574.93 1217.68 1574.04 1222.84 1570.95 1226.49 C 1558.03 1231.76 1517.21 1229.95 1501.32 1229.93 L 1403.1 1229.95 C 1403.25 1243.23 1403.24 1256.77 1403.91 1270.02 L 1385.48 1269.89 L 1372.04 1270.05 L 1372.02 1171.76 L 1541.58 1171.68 C 1540.61 1160.66 1540.98 1120.04 1541.84 1109.03 z"/>
<path transform="translate(0,0)" fill="rgb(46,93,49)" d="M 1541.84 1109.03 C 1549.82 1108.63 1563.95 1106.33 1570.17 1112.29 C 1579.48 1121.19 1577.42 1196.8 1575.48 1213.05 C 1574.93 1217.68 1574.04 1222.84 1570.95 1226.49 C 1558.03 1231.76 1517.21 1229.95 1501.32 1229.93 L 1403.1 1229.95 C 1403.25 1243.23 1403.24 1256.77 1403.91 1270.02 L 1385.48 1269.89 C 1384.41 1251.72 1385.13 1226.75 1385.21 1207.99 C 1442.11 1207.82 1500.22 1208.91 1556.98 1208.02 C 1557.08 1183.24 1556.68 1158.07 1556.5 1133.27 L 1542.06 1133.44 C 1542.12 1142.9 1542.69 1162.95 1541.58 1171.68 C 1540.61 1160.66 1540.98 1120.04 1541.84 1109.03 z"/>
<path transform="translate(0,0)" fill="rgb(0,0,0)" d="M 1473.19 1303.92 C 1478.94 1303.79 1497.08 1302.76 1499.55 1306.56 C 1511.69 1325.27 1509.57 1400.19 1503.62 1417.42 C 1500.64 1426.03 1415.64 1422.77 1404.15 1422.54 L 1403.43 1462.04 C 1396.83 1462.39 1391.91 1462.44 1385.31 1462.27 C 1381.22 1462.12 1376.17 1462.29 1372 1462.31 L 1371.98 1363.98 L 1474.03 1364.02 L 1473.96 1326.16 L 1473.19 1303.92 z"/>
<path transform="translate(0,0)" fill="rgb(46,93,49)" d="M 1473.19 1303.92 C 1478.94 1303.79 1497.08 1302.76 1499.55 1306.56 C 1511.69 1325.27 1509.57 1400.19 1503.62 1417.42 C 1500.64 1426.03 1415.64 1422.77 1404.15 1422.54 L 1403.43 1462.04 C 1396.83 1462.39 1391.91 1462.44 1385.31 1462.27 C 1384.71 1442.35 1385.03 1421.13 1384.99 1401.12 L 1488.15 1401.09 L 1487.95 1326.21 C 1483.44 1326.07 1478.51 1326.16 1473.96 1326.16 L 1473.19 1303.92 z"/>
<path transform="translate(0,0)" fill="rgb(70,168,68)" d="M 1403.76 408.389 L 1639.97 408.265 C 1639.76 420.022 1639.92 432.27 1639.91 444.068 C 1654.4 443.675 1664.4 440.609 1672.9 454.194 C 1673.33 472.659 1675.59 542 1669.88 555.351 C 1665.03 560.143 1650.65 559.674 1644 559.706 C 1597.2 559.932 1549.79 559.195 1503.03 559.907 C 1503.41 571.851 1503.52 583.802 1503.33 595.75 C 1526.27 596.499 1549.91 595.556 1572.9 596.115 C 1572.68 607.216 1572.25 619.017 1572.51 630.063 C 1582.28 630.051 1594.23 628.654 1601.35 635.578 C 1603.02 639.399 1604.57 646.444 1604.62 650.415 C 1604.81 664.329 1607.37 730.337 1604.2 739.863 C 1598.51 746.237 1593.81 746.532 1585.17 746.974 C 1558.86 748.321 1529.61 745.882 1503.54 747.954 L 1503.56 787.658 C 1547.77 787.661 1595.29 788.719 1639.19 787.875 C 1639.2 798.816 1638.95 811.021 1639.28 821.859 C 1652.15 821.66 1672.24 819.211 1673.06 837.207 C 1674.27 864.173 1673.81 892.198 1673.84 919.222 C 1673.85 932.615 1669.67 939.338 1655.89 939.49 C 1640.57 940.015 1625.38 939.757 1610.1 939.715 L 1533.23 939.71 L 1466.76 939.624 C 1456.25 939.598 1429.84 940.284 1421.39 937.26 C 1411.97 933.89 1414.07 893.307 1414.11 883.144 C 1410.5 883.182 1407.24 883.753 1404.41 881.843 C 1402.25 876.767 1403.48 769.798 1403.5 757.723 L 1403.54 523.135 C 1403.55 485.566 1404.58 445.519 1403.76 408.389 z"/>
<path transform="translate(0,0)" fill="rgb(0,0,0)" d="M 1639.28 821.859 C 1652.15 821.66 1672.24 819.211 1673.06 837.207 C 1674.27 864.173 1673.81 892.198 1673.84 919.222 C 1673.85 932.615 1669.67 939.338 1655.89 939.49 C 1640.57 940.015 1625.38 939.757 1610.1 939.715 L 1533.23 939.71 L 1466.76 939.624 C 1456.25 939.598 1429.84 940.284 1421.39 937.26 C 1411.97 933.89 1414.07 893.307 1414.11 883.144 L 1567.24 883.08 C 1583.31 883.084 1626.09 881.818 1639.93 883.36 C 1640.09 872.027 1640 860.691 1639.66 849.361 C 1638.66 842.961 1639.14 828.807 1639.28 821.859 z"/>
<path transform="translate(0,0)" fill="rgb(46,93,49)" d="M 1639.28 821.859 C 1652.15 821.66 1672.24 819.211 1673.06 837.207 C 1674.27 864.173 1673.81 892.198 1673.84 919.222 C 1673.85 932.615 1669.67 939.338 1655.89 939.49 C 1640.57 940.015 1625.38 939.757 1610.1 939.715 L 1533.23 939.71 L 1466.76 939.624 C 1456.25 939.598 1429.84 940.284 1421.39 937.26 C 1411.97 933.89 1414.07 893.307 1414.11 883.144 L 1567.24 883.08 C 1583.31 883.084 1626.09 881.818 1639.93 883.36 C 1630.06 884.849 1586.57 884.004 1575.02 883.995 L 1434.26 883.942 C 1434.53 895.778 1434.33 908.061 1434.29 919.939 C 1507.32 919.429 1582.61 920.963 1655.21 919.593 C 1654.75 894.707 1655.04 868.963 1655.09 844.03 C 1647.48 844.063 1641.2 840.846 1639.66 849.361 C 1638.66 842.961 1639.14 828.807 1639.28 821.859 z"/>
<path transform="translate(0,0)" fill="rgb(0,0,0)" d="M 1639.91 444.068 C 1654.4 443.675 1664.4 440.609 1672.9 454.194 C 1673.33 472.659 1675.59 542 1669.88 555.351 C 1665.03 560.143 1650.65 559.674 1644 559.706 C 1597.2 559.932 1549.79 559.195 1503.03 559.907 C 1503.41 571.851 1503.52 583.802 1503.33 595.75 L 1483.91 596.024 L 1470.62 596.061 C 1471.53 565.999 1470.97 533.436 1470.98 503.176 L 1639.88 503.146 L 1639.91 466.112 C 1639.5 459.903 1639.85 450.526 1639.91 444.068 z"/>
<path transform="translate(0,0)" fill="rgb(46,93,49)" d="M 1639.91 444.068 C 1654.4 443.675 1664.4 440.609 1672.9 454.194 C 1673.33 472.659 1675.59 542 1669.88 555.351 C 1665.03 560.143 1650.65 559.674 1644 559.706 C 1597.2 559.932 1549.79 559.195 1503.03 559.907 C 1503.41 571.851 1503.52 583.802 1503.33 595.75 L 1483.91 596.024 C 1483.99 576.967 1483.91 557.909 1483.67 538.853 L 1655.68 539.159 C 1655.33 514.792 1655.17 490.423 1655.2 466.053 L 1639.91 466.112 C 1639.5 459.903 1639.85 450.526 1639.91 444.068 z"/>
<path transform="translate(0,0)" fill="rgb(0,0,0)" d="M 1572.51 630.063 C 1582.28 630.051 1594.23 628.654 1601.35 635.578 C 1603.02 639.399 1604.57 646.444 1604.62 650.415 C 1604.81 664.329 1607.37 730.337 1604.2 739.863 C 1598.51 746.237 1593.81 746.532 1585.17 746.974 C 1558.86 748.321 1529.61 745.882 1503.54 747.954 L 1503.56 787.658 C 1492.82 787.015 1481.64 788.792 1470.53 787.312 C 1471.76 757.347 1470.88 722.032 1470.88 691.671 C 1503.51 690.811 1539.16 691.387 1572.08 691.25 C 1572.24 681.211 1572.22 671.169 1572.03 661.131 C 1571.58 652.001 1572.17 639.38 1572.51 630.063 z"/>
<path transform="translate(0,0)" fill="rgb(46,93,49)" d="M 1572.51 630.063 C 1582.28 630.051 1594.23 628.654 1601.35 635.578 C 1603.02 639.399 1604.57 646.444 1604.62 650.415 C 1604.81 664.329 1607.37 730.337 1604.2 739.863 C 1598.51 746.237 1593.81 746.532 1585.17 746.974 C 1558.86 748.321 1529.61 745.882 1503.54 747.954 L 1503.56 787.658 C 1492.82 787.015 1481.64 788.792 1470.53 787.312 C 1474.01 786.843 1480.3 786.999 1484.01 786.979 L 1483.96 727.111 C 1518.22 727.627 1552.48 727.628 1586.74 727.115 L 1586.17 653.961 C 1582.23 653.775 1578.34 653.288 1574.57 654.292 C 1571.86 656.83 1572.72 656.422 1572.03 661.131 C 1571.58 652.001 1572.17 639.38 1572.51 630.063 z"/>
<path transform="translate(0,0)" fill="rgb(70,168,68)" d="M 386.123 1076.11 L 587.671 1076.32 L 587.787 1110.99 C 592.716 1110.9 613.869 1109.59 616.101 1114.54 C 623.399 1130.71 624.302 1214.27 615.059 1225.53 C 599.996 1232.01 565.17 1229.92 547.459 1229.92 L 451.588 1229.9 C 451.125 1307.43 452.454 1385.3 451.67 1462.79 C 483.2 1461.83 515.691 1463.13 547.282 1462.72 C 557.155 1462.6 576.54 1463.37 585.758 1462.38 C 585.725 1468.17 585.92 1493.54 585.226 1497.8 C 616.896 1497.65 620.372 1499.95 619.508 1533.34 C 618.971 1554.09 620.002 1575.71 619.783 1596.51 C 619.725 1606.51 617.788 1613.09 606.812 1614.66 C 541.622 1616.98 476.166 1615.16 410.923 1615.32 C 408.496 1615.32 401.394 1614.49 400.112 1612.77 C 390.628 1600.05 395.285 1573.85 395.179 1558.45 C 391.147 1557.69 389.986 1558.16 387.266 1555.91 C 386.055 1548.3 386.781 1529.3 386.176 1519.65 C 370.444 1519.05 361.334 1515.78 361.28 1497.84 C 361.245 1486.29 361.77 1474.56 361.883 1462.99 C 358.314 1463.32 356.122 1463.93 352.963 1462.33 C 350.766 1459.13 351.744 1402.96 351.663 1395.02 C 350.904 1320.21 352.914 1245.12 351.739 1170.34 C 361.971 1170.31 376.468 1169.85 386.346 1170.78 C 385.603 1140.03 386.161 1107.04 386.123 1076.11 z"/>
<path transform="translate(0,0)" fill="rgb(46,93,49)" d="M 587.787 1110.99 C 592.716 1110.9 613.869 1109.59 616.101 1114.54 C 623.399 1130.71 624.302 1214.27 615.059 1225.53 C 599.996 1232.01 565.17 1229.92 547.459 1229.92 L 451.588 1229.9 C 451.125 1307.43 452.454 1385.3 451.67 1462.79 C 441.467 1462.33 429.196 1462.88 418.846 1463.08 L 418.869 1285.57 C 418.842 1255.31 417.733 1217.39 419.162 1187.62 L 419.251 1172.01 C 474.869 1171.25 532.015 1171.86 587.744 1171.75 L 587.905 1133.73 L 587.787 1110.99 z"/>
<path transform="translate(0,0)" fill="rgb(0,0,0)" d="M 587.905 1133.73 L 602.005 1133.43 L 601.999 1208.26 C 545.29 1208.51 488.581 1208.42 431.873 1207.99 L 432.118 1461.98 L 419.785 1461.99 L 419.84 1277.91 L 419.813 1222.04 C 419.806 1212.19 420.13 1197.14 419.162 1187.62 L 419.251 1172.01 C 474.869 1171.25 532.015 1171.86 587.744 1171.75 L 587.905 1133.73 z"/>
<path transform="translate(0,0)" fill="rgb(46,93,49)" d="M 585.226 1497.8 C 616.896 1497.65 620.372 1499.95 619.508 1533.34 C 618.971 1554.09 620.002 1575.71 619.783 1596.51 C 619.725 1606.51 617.788 1613.09 606.812 1614.66 C 541.622 1616.98 476.166 1615.16 410.923 1615.32 C 408.496 1615.32 401.394 1614.49 400.112 1612.77 C 390.628 1600.05 395.285 1573.85 395.179 1558.45 C 402.033 1558.42 415.427 1557.62 421.323 1557.97 C 431.582 1558.95 462.78 1558.18 474.226 1558.17 L 585.174 1558.03 C 584.125 1543.74 584.718 1512.53 585.226 1497.8 z"/>
<path transform="translate(0,0)" fill="rgb(0,0,0)" d="M 585.735 1519.95 L 601.025 1519.98 L 601.216 1594.18 C 548.935 1595.49 496.233 1593.95 443.905 1594.4 C 434.035 1594.48 423.835 1594.52 413.97 1594.29 C 413.911 1588.7 412.911 1562.57 414.979 1559.22 C 417.135 1558.77 419.147 1558.33 421.323 1557.97 C 431.582 1558.95 462.78 1558.18 474.226 1558.17 L 585.174 1558.03 C 586.37 1549.19 585.834 1529.44 585.735 1519.95 z"/>
<path transform="translate(0,0)" fill="rgb(46,93,49)" d="M 361.883 1462.99 C 368.946 1462.93 376.01 1463.07 383.006 1462.21 L 384.436 1462.04 L 385.293 1461.92 C 386.428 1472.46 385.953 1489.3 385.949 1500.38 L 386.176 1519.65 C 370.444 1519.05 361.334 1515.78 361.28 1497.84 C 361.245 1486.29 361.77 1474.56 361.883 1462.99 z"/>
<path transform="translate(0,0)" fill="rgb(0,0,0)" d="M 385.949 1500.38 C 385.219 1500.23 383.933 1499.66 383.183 1499.36 C 380.858 1493.81 381.586 1479.32 381.949 1472.96 C 382.252 1467.65 381.669 1465.18 385.293 1461.92 C 386.428 1472.46 385.953 1489.3 385.949 1500.38 z"/>
<path transform="translate(0,0)" fill="rgb(70,168,68)" d="M 71.9598 408.417 C 96.4254 407.064 132.551 408.153 157.683 408.152 L 311.885 408.385 C 311.868 420.081 311.911 431.777 312.015 443.473 C 320.006 443.554 330.127 443.504 337.952 444.777 C 340.326 447.537 342.707 450.209 344.851 453.157 C 345.719 471.099 347.429 540.39 341.753 554.206 C 333.897 562.55 282.313 559.643 269.651 559.619 L 173.404 559.987 C 173.732 572.045 173.446 583.917 173.851 595.985 L 242.167 595.992 C 242.139 607.187 241.86 619.122 242.706 630.224 C 251.827 630.014 265.387 628.064 272.421 634.961 C 278.838 641.251 276.297 711.697 275.842 723.697 C 275.674 728.14 275.2 741.703 271.658 744.414 C 262.919 751.102 189.767 747.226 173.269 747.846 C 175.244 796.557 172.545 847.078 173.591 895.978 C 173.824 906.879 173.965 925.526 169.925 935.411 C 161.028 942.568 143.183 939.7 132.162 940.21 C 71.9611 942.998 85.8875 930.221 84.5563 883.005 L 72.087 882.704 C 72.7589 831.627 72.0592 778.964 72.0147 727.784 L 71.9598 408.417 z"/>
<path transform="translate(0,0)" fill="rgb(46,93,49)" d="M 242.706 630.224 C 251.827 630.014 265.387 628.064 272.421 634.961 C 278.838 641.251 276.297 711.697 275.842 723.697 C 275.674 728.14 275.2 741.703 271.658 744.414 C 262.919 751.102 189.767 747.226 173.269 747.846 C 175.244 796.557 172.545 847.078 173.591 895.978 C 173.824 906.879 173.965 925.526 169.925 935.411 C 161.028 942.568 143.183 939.7 132.162 940.21 C 71.9611 942.998 85.8875 930.221 84.5563 883.005 C 91.0894 883.131 97.6237 883.179 104.158 883.148 L 140.035 883.021 L 140.022 691.064 C 151.62 691.215 238.502 691.937 242.203 690.196 C 240.898 674.145 242.144 646.685 242.706 630.224 z"/>
<path transform="translate(0,0)" fill="rgb(0,0,0)" d="M 242.891 653.834 L 258.195 653.992 L 257.955 727.28 C 223.978 727.881 189.874 727.145 155.834 727.459 L 155.627 919.853 L 104.003 919.951 C 103.971 909.257 103.483 893.406 104.158 883.148 L 140.035 883.021 L 140.022 691.064 C 151.62 691.215 238.502 691.937 242.203 690.196 C 243.109 679.676 242.824 664.785 242.891 653.834 z"/>
<path transform="translate(0,0)" fill="rgb(0,0,0)" d="M 312.015 443.473 C 320.006 443.554 330.127 443.504 337.952 444.777 C 340.326 447.537 342.707 450.209 344.851 453.157 C 345.719 471.099 347.429 540.39 341.753 554.206 C 333.897 562.55 282.313 559.643 269.651 559.619 L 173.404 559.987 C 173.732 572.045 173.446 583.917 173.851 595.985 C 168.327 595.736 161.484 595.938 155.85 595.953 L 140.147 596.088 C 139.736 565.346 140.058 533.898 140.043 503.1 L 311.713 503.331 C 312.078 491.066 311.913 477.996 311.949 465.661 C 311.62 459.012 311.943 450.288 312.015 443.473 z"/>
<path transform="translate(0,0)" fill="rgb(46,93,49)" d="M 312.015 443.473 C 320.006 443.554 330.127 443.504 337.952 444.777 C 340.326 447.537 342.707 450.209 344.851 453.157 C 345.719 471.099 347.429 540.39 341.753 554.206 C 333.897 562.55 282.313 559.643 269.651 559.619 L 173.404 559.987 C 173.732 572.045 173.446 583.917 173.851 595.985 C 168.327 595.736 161.484 595.938 155.85 595.953 C 155.924 577.025 155.857 558.096 155.65 539.168 C 212.011 539.341 270.171 538.733 326.398 539.725 L 326.718 465.559 L 311.949 465.661 C 311.62 459.012 311.943 450.288 312.015 443.473 z"/>
</svg>