<svg version="1.1" xmlns="http://www.w3.org/2000/svg" style="display: block;" viewBox="0 0 2048 2048" width="1024" height="1024" preserveAspectRatio="none">
<defs>
	<linearGradient id="Gradient1" gradientUnits="userSpaceOnUse" x1="984.903" y1="902.692" x2="818.736" y2="728.323">
		<stop class="stop0" offset="0" stop-opacity="1" stop-color="rgb(35,68,43)"/>
		<stop class="stop1" offset="1" stop-opacity="1" stop-color="rgb(49,170,69)"/>
	</linearGradient>
	<linearGradient id="Gradient2" gradientUnits="userSpaceOnUse" x1="798.078" y1="877.128" x2="782.569" y2="639.099">
		<stop class="stop0" offset="0" stop-opacity="1" stop-color="rgb(31,99,52)"/>
		<stop class="stop1" offset="1" stop-opacity="1" stop-color="rgb(58,181,70)"/>
	</linearGradient>
	<linearGradient id="Gradient3" gradientUnits="userSpaceOnUse" x1="154.807" y1="882.039" x2="158.312" y2="643.223">
		<stop class="stop0" offset="0" stop-opacity="1" stop-color="rgb(31,97,52)"/>
		<stop class="stop1" offset="1" stop-opacity="1" stop-color="rgb(58,180,71)"/>
	</linearGradient>
	<linearGradient id="Gradient4" gradientUnits="userSpaceOnUse" x1="1521.91" y1="663.05" x2="1522.02" y2="409.949">
		<stop class="stop0" offset="0" stop-opacity="1" stop-color="rgb(58,173,62)"/>
		<stop class="stop1" offset="1" stop-opacity="1" stop-color="rgb(151,195,95)"/>
	</linearGradient>
	<linearGradient id="Gradient5" gradientUnits="userSpaceOnUse" x1="189.978" y1="664.508" x2="192.445" y2="408.885">
		<stop class="stop0" offset="0" stop-opacity="1" stop-color="rgb(59,173,62)"/>
		<stop class="stop1" offset="1" stop-opacity="1" stop-color="rgb(150,195,95)"/>
	</linearGradient>
	<linearGradient id="Gradient6" gradientUnits="userSpaceOnUse" x1="808.979" y1="655.47" x2="807.532" y2="409.333">
		<stop class="stop0" offset="0" stop-opacity="1" stop-color="rgb(62,174,61)"/>
		<stop class="stop1" offset="1" stop-opacity="1" stop-color="rgb(151,195,95)"/>
	</linearGradient>
	<linearGradient id="Gradient7" gradientUnits="userSpaceOnUse" x1="1523.16" y1="883.788" x2="1517.38" y2="645.437">
		<stop class="stop0" offset="0" stop-opacity="1" stop-color="rgb(29,97,51)"/>
		<stop class="stop1" offset="1" stop-opacity="1" stop-color="rgb(58,179,71)"/>
	</linearGradient>
	<linearGradient id="Gradient8" gradientUnits="userSpaceOnUse" x1="487.5" y1="1615.94" x2="478.563" y2="1147.94">
		<stop class="stop0" offset="0" stop-opacity="1" stop-color="rgb(18,90,48)"/>
		<stop class="stop1" offset="1" stop-opacity="1" stop-color="rgb(116,195,79)"/>
	</linearGradient>
	<linearGradient id="Gradient9" gradientUnits="userSpaceOnUse" x1="1423.14" y1="1574.16" x2="1423.84" y2="1154.88">
		<stop class="stop0" offset="0" stop-opacity="1" stop-color="rgb(19,100,50)"/>
		<stop class="stop1" offset="1" stop-opacity="1" stop-color="rgb(107,202,77)"/>
	</linearGradient>
	<linearGradient id="Gradient10" gradientUnits="userSpaceOnUse" x1="1827.4" y1="640.078" x2="1827.57" y2="408.944">
		<stop class="stop0" offset="0" stop-opacity="1" stop-color="rgb(70,175,62)"/>
		<stop class="stop1" offset="1" stop-opacity="1" stop-color="rgb(151,195,96)"/>
	</linearGradient>
	<linearGradient id="Gradient11" gradientUnits="userSpaceOnUse" x1="1826.34" y1="938.719" x2="1829.12" y2="628.039">
		<stop class="stop0" offset="0" stop-opacity="1" stop-color="rgb(30,79,47)"/>
		<stop class="stop1" offset="1" stop-opacity="1" stop-color="rgb(58,180,71)"/>
	</linearGradient>
	<linearGradient id="Gradient12" gradientUnits="userSpaceOnUse" x1="502.589" y1="657.807" x2="500.853" y2="409.435">
		<stop class="stop0" offset="0" stop-opacity="1" stop-color="rgb(61,174,62)"/>
		<stop class="stop1" offset="1" stop-opacity="1" stop-color="rgb(152,195,94)"/>
	</linearGradient>
	<linearGradient id="Gradient13" gradientUnits="userSpaceOnUse" x1="503.44" y1="881.892" x2="501.496" y2="647.424">
		<stop class="stop0" offset="0" stop-opacity="1" stop-color="rgb(32,98,52)"/>
		<stop class="stop1" offset="1" stop-opacity="1" stop-color="rgb(57,180,71)"/>
	</linearGradient>
	<linearGradient id="Gradient14" gradientUnits="userSpaceOnUse" x1="1185.35" y1="1620.59" x2="1072.42" y2="1138.61">
		<stop class="stop0" offset="0" stop-opacity="1" stop-color="rgb(14,84,46)"/>
		<stop class="stop1" offset="1" stop-opacity="1" stop-color="rgb(107,202,77)"/>
	</linearGradient>
	<linearGradient id="Gradient15" gradientUnits="userSpaceOnUse" x1="785.802" y1="1559.89" x2="795.263" y2="1150.78">
		<stop class="stop0" offset="0" stop-opacity="1" stop-color="rgb(20,104,51)"/>
		<stop class="stop1" offset="1" stop-opacity="1" stop-color="rgb(112,202,77)"/>
	</linearGradient>
	<linearGradient id="Gradient16" gradientUnits="userSpaceOnUse" x1="1157.39" y1="785.847" x2="1164.65" y2="645.259">
		<stop class="stop0" offset="0" stop-opacity="1" stop-color="rgb(43,133,63)"/>
		<stop class="stop1" offset="1" stop-opacity="1" stop-color="rgb(56,177,69)"/>
	</linearGradient>
	<linearGradient id="Gradient17" gradientUnits="userSpaceOnUse" x1="1014.67" y1="881.975" x2="1042.45" y2="647.383">
		<stop class="stop0" offset="0" stop-opacity="1" stop-color="rgb(30,97,50)"/>
		<stop class="stop1" offset="1" stop-opacity="1" stop-color="rgb(58,179,72)"/>
	</linearGradient>
	<linearGradient id="Gradient18" gradientUnits="userSpaceOnUse" x1="1284.31" y1="882.578" x2="1315.67" y2="648.563">
		<stop class="stop0" offset="0" stop-opacity="1" stop-color="rgb(29,95,50)"/>
		<stop class="stop1" offset="1" stop-opacity="1" stop-color="rgb(59,179,73)"/>
	</linearGradient>
	<linearGradient id="Gradient19" gradientUnits="userSpaceOnUse" x1="1164.51" y1="661.013" x2="1164.49" y2="409.006">
		<stop class="stop0" offset="0" stop-opacity="1" stop-color="rgb(61,174,60)"/>
		<stop class="stop1" offset="1" stop-opacity="1" stop-color="rgb(152,195,94)"/>
	</linearGradient>
</defs>
<path transform="translate(0,0)" fill="url(#Gradient19)" d="M 1232.1 407.788 C 1264.55 407.314 1302.06 409.253 1333.83 407.517 C 1334.21 419.461 1334.02 432.122 1334.01 444.13 C 1338.34 444.01 1342.8 443.782 1347.13 443.869 C 1361.87 444.162 1365.71 447.249 1365.68 461.835 C 1365.61 492.848 1365.3 523.746 1365.21 554.701 L 1365.06 741.599 L 1365.25 863.688 C 1365.33 883.914 1366.37 913.12 1364.99 932.653 C 1362.79 935.61 1359.37 939.422 1355.41 939.727 C 1339.94 940.915 1324.15 940.512 1308.61 940.66 C 1293.52 940.803 1287.76 943.517 1277.98 930.923 C 1277.99 915.18 1278.09 899.438 1278.28 883.697 C 1273.39 881.986 1270.87 884.094 1267.44 880.727 C 1265.72 870.093 1266.04 833.423 1266.24 820.773 C 1266.65 794.252 1265.27 763.987 1266.3 737.958 L 1264.18 738.534 C 1260.24 742.335 1258.87 743.577 1254.33 746.579 C 1246.84 746.728 1238.42 747.087 1231 746.937 C 1231.05 763.251 1233.39 827.845 1229.23 838.348 C 1218.83 848.499 1162.02 846.952 1148.95 840.311 C 1140.86 836.199 1142.97 797.216 1143.13 786.879 C 1139.04 787.117 1137.33 787.469 1133.44 786.484 C 1126.22 780.895 1131.37 759.214 1129.37 747.663 C 1124.01 746.628 1119.98 746.21 1115.95 742.245 C 1105.28 731.756 1108.3 704.888 1108.72 690.089 L 1095.25 690.057 C 1094.02 709.133 1094.8 735.49 1094.83 755.183 L 1094.98 863.728 C 1095.05 877.006 1097.57 927.36 1091 935.817 C 1078.46 942.434 1031.4 940.018 1016.4 939.149 C 1002.06 938.318 1006.48 894.372 1007.1 883.94 L 1006.81 882.203 C 1004.14 882.499 998.935 882.237 996.05 882.184 C 996.468 798.078 994.243 711.137 995.944 627.471 C 995.103 619.26 995.705 597.212 995.71 587.91 L 995.419 513.737 C 996.499 493.947 995.257 459.321 994.943 438.654 L 995.224 408.277 C 1028.03 407.593 1062.1 408.404 1095.17 408.197 C 1095.13 419.708 1094.79 432.692 1095.1 444.084 C 1102.22 444.105 1113.23 443.805 1120.06 444.377 C 1122.67 446.581 1125.63 448.944 1127.97 451.375 C 1127.95 462.315 1127.38 492.538 1129.75 501.342 C 1131.32 504.861 1131.1 505.089 1131.15 508.837 C 1132.31 516.475 1131.8 529.988 1131.64 538.129 C 1138.57 538.118 1146.14 537.953 1153 538.377 C 1157.8 541.506 1160.43 543.237 1161.5 549.286 C 1163.05 558.085 1163.78 587.387 1162.28 595.014 C 1171.43 594.337 1187.4 594.759 1197.07 594.734 C 1196.85 563.848 1196.81 532.962 1196.96 502.076 C 1208.79 502.082 1220.09 502.249 1231.9 501.265 C 1232.52 470.564 1231.72 438.745 1232.1 407.788 z"/>
<path transform="translate(0,0)" fill="rgb(43,94,49)" d="M 1334.01 444.13 C 1338.34 444.01 1342.8 443.782 1347.13 443.869 C 1361.87 444.162 1365.71 447.249 1365.68 461.835 C 1365.61 492.848 1365.3 523.746 1365.21 554.701 L 1365.06 741.599 L 1365.25 863.688 C 1365.33 883.914 1366.37 913.12 1364.99 932.653 C 1362.79 935.61 1359.37 939.422 1355.41 939.727 C 1339.94 940.915 1324.15 940.512 1308.61 940.66 C 1293.52 940.803 1287.76 943.517 1277.98 930.923 C 1277.99 915.18 1278.09 899.438 1278.28 883.697 C 1273.39 881.986 1270.87 884.094 1267.44 880.727 C 1265.72 870.093 1266.04 833.423 1266.24 820.773 C 1266.65 794.252 1265.27 763.987 1266.3 737.958 C 1266.71 735.566 1266.7 733.535 1266.8 731.113 C 1267.11 712.628 1267.14 694.138 1266.88 675.652 L 1266.86 665.057 C 1267.27 659.696 1267 651.125 1266.98 645.51 L 1267.35 647.161 C 1267.8 649.279 1267.68 648.419 1267.84 650.21 C 1270.14 651.842 1272.72 651.533 1275.66 650.945 C 1291.46 647.788 1305.25 643.506 1320.41 652.45 C 1324.7 654.986 1326.91 659.917 1331.08 661.448 C 1332.81 658.959 1332.12 649.134 1332.03 645.659 C 1332.73 648.434 1333.19 652.096 1333.82 654.36 C 1334.25 591.375 1334.35 528.387 1334.1 465.401 C 1334.18 458.311 1334.15 451.22 1334.01 444.13 z"/>
<path transform="translate(0,0)" fill="url(#Gradient18)" d="M 1266.98 645.51 L 1267.35 647.161 C 1267.8 649.279 1267.68 648.419 1267.84 650.21 C 1270.14 651.842 1272.72 651.533 1275.66 650.945 C 1291.46 647.788 1305.25 643.506 1320.41 652.45 C 1324.7 654.986 1326.91 659.917 1331.08 661.448 C 1332.81 658.959 1332.12 649.134 1332.03 645.659 C 1332.73 648.434 1333.19 652.096 1333.82 654.36 C 1334.76 728.758 1334.84 808.505 1334.04 882.913 C 1328.1 882.891 1301.73 882.413 1297.43 883.605 C 1292.22 884.33 1283.41 884.43 1278.28 883.697 C 1273.39 881.986 1270.87 884.094 1267.44 880.727 C 1265.72 870.093 1266.04 833.423 1266.24 820.773 C 1266.65 794.252 1265.27 763.987 1266.3 737.958 C 1266.71 735.566 1266.7 733.535 1266.8 731.113 C 1267.11 712.628 1267.14 694.138 1266.88 675.652 L 1266.86 665.057 C 1267.27 659.696 1267 651.125 1266.98 645.51 z"/>
<path transform="translate(0,0)" fill="rgb(0,0,0)" d="M 1334.1 465.401 L 1348.13 465.604 L 1348.17 919.387 C 1331.82 919.48 1313.28 919.158 1297.12 919.833 C 1297.11 907.757 1297.22 895.68 1297.43 883.605 C 1301.73 882.413 1328.1 882.891 1334.04 882.913 C 1334.84 808.505 1334.76 728.758 1333.82 654.36 C 1334.25 591.375 1334.35 528.387 1334.1 465.401 z"/>
<path transform="translate(0,0)" fill="url(#Gradient17)" d="M 1063.64 596.012 L 1096.06 595.898 L 1096.04 632.05 L 1095.93 651.014 C 1095.92 661.941 1096.34 679.787 1095.25 690.057 C 1094.02 709.133 1094.8 735.49 1094.83 755.183 L 1094.98 863.728 C 1095.05 877.006 1097.57 927.36 1091 935.817 C 1078.46 942.434 1031.4 940.018 1016.4 939.149 C 1002.06 938.318 1006.48 894.372 1007.1 883.94 L 1006.81 882.203 C 1004.14 882.499 998.935 882.237 996.05 882.184 C 996.468 798.078 994.243 711.137 995.944 627.471 C 998.229 636.089 998.391 643.637 1001.18 653.298 L 1002.21 653.694 L 1003.18 652.939 C 1014.3 644.501 1022.51 645.748 1035.75 646.656 C 1044.92 647.284 1053.72 657.986 1061.9 654.804 C 1062.91 649.279 1060.7 644.163 1062.3 640.337 L 1062.47 640.406 C 1062.59 643.68 1062.07 645.442 1063.58 647.736 L 1063.64 596.012 z"/>
<path transform="translate(0,0)" fill="rgb(43,94,49)" d="M 1063.64 596.012 L 1096.06 595.898 L 1096.04 632.05 L 1095.93 651.014 C 1095.92 661.941 1096.34 679.787 1095.25 690.057 C 1094.02 709.133 1094.8 735.49 1094.83 755.183 L 1094.98 863.728 C 1095.05 877.006 1097.57 927.36 1091 935.817 C 1078.46 942.434 1031.4 940.018 1016.4 939.149 C 1002.06 938.318 1006.48 894.372 1007.1 883.94 C 1013.4 883.943 1019.96 883.849 1026.23 883.972 L 1027.16 882.722 C 1036.42 883.632 1053.83 883.016 1063.59 882.943 C 1065.22 806.59 1064.08 724.291 1063.58 647.736 L 1063.64 596.012 z"/>
<path transform="translate(0,0)" fill="rgb(0,0,0)" d="M 1063.64 596.012 L 1096.06 595.898 L 1096.04 632.05 C 1084.59 632.542 1077.6 633.946 1077.26 646.958 C 1076.47 676.505 1076.94 706.114 1076.82 735.684 C 1076.39 796.795 1076.35 857.907 1076.72 919.018 L 1025.94 919.118 C 1025.99 908.342 1025.69 894.5 1026.23 883.972 L 1027.16 882.722 C 1036.42 883.632 1053.83 883.016 1063.59 882.943 C 1065.22 806.59 1064.08 724.291 1063.58 647.736 L 1063.64 596.012 z"/>
<path transform="translate(0,0)" fill="rgb(19,82,37)" d="M 1006.81 882.203 C 1012.78 881.58 1021.31 881.335 1027.16 882.722 L 1026.23 883.972 C 1019.96 883.849 1013.4 883.943 1007.1 883.94 L 1006.81 882.203 z"/>
<path transform="translate(0,0)" fill="rgb(43,94,49)" d="M 1232.2 596.025 L 1266.88 596.015 L 1266.83 608.543 C 1267.5 621.237 1266.42 633.718 1266.98 645.51 C 1267 651.125 1267.27 659.696 1266.86 665.057 L 1266.88 675.652 C 1267.14 694.138 1267.11 712.628 1266.8 731.113 C 1266.7 733.535 1266.71 735.566 1266.3 737.958 L 1264.18 738.534 C 1260.24 742.335 1258.87 743.577 1254.33 746.579 C 1246.84 746.728 1238.42 747.087 1231 746.937 C 1231.05 763.251 1233.39 827.845 1229.23 838.348 C 1218.83 848.499 1162.02 846.952 1148.95 840.311 C 1140.86 836.199 1142.97 797.216 1143.13 786.879 C 1139.04 787.117 1137.33 787.469 1133.44 786.484 C 1126.22 780.895 1131.37 759.214 1129.37 747.663 C 1124.01 746.628 1119.98 746.21 1115.95 742.245 C 1105.28 731.756 1108.3 704.888 1108.72 690.089 L 1095.25 690.057 C 1096.34 679.787 1095.92 661.941 1095.93 651.014 C 1101.86 652.421 1109.4 646.303 1116.36 646 C 1128.94 645.451 1142.16 647.168 1154.59 647.179 C 1174.11 647.196 1195.33 646.316 1214.43 651.142 C 1219.56 652.44 1224.89 654.519 1230.22 654.311 C 1230.48 651.653 1230.47 649.634 1231.91 647.284 C 1232.71 632.113 1232.15 611.609 1232.2 596.025 z"/>
<path transform="translate(0,0)" fill="url(#Gradient16)" d="M 1095.93 651.014 C 1101.86 652.421 1109.4 646.303 1116.36 646 C 1128.94 645.451 1142.16 647.168 1154.59 647.179 C 1174.11 647.196 1195.33 646.316 1214.43 651.142 C 1219.56 652.44 1224.89 654.519 1230.22 654.311 C 1230.48 651.653 1230.47 649.634 1231.91 647.284 C 1232.34 661.352 1232.09 675.86 1232.01 689.972 L 1197.94 690.019 C 1197.93 721.408 1198.51 754.754 1197.84 785.97 C 1186.64 786.045 1173.06 786.458 1162.05 786.032 C 1156.7 785.892 1148.09 785.348 1143.13 786.879 C 1139.04 787.117 1137.33 787.469 1133.44 786.484 C 1126.22 780.895 1131.37 759.214 1129.37 747.663 C 1124.01 746.628 1119.98 746.21 1115.95 742.245 C 1105.28 731.756 1108.3 704.888 1108.72 690.089 L 1095.25 690.057 C 1096.34 679.787 1095.92 661.941 1095.93 651.014 z"/>
<path transform="translate(0,0)" fill="rgb(43,94,49)" d="M 1108.72 690.089 L 1129.35 689.92 C 1131.67 701.136 1130.48 715.632 1129.91 727.272 C 1129.77 733.404 1129.82 741.719 1129.37 747.663 C 1124.01 746.628 1119.98 746.21 1115.95 742.245 C 1105.28 731.756 1108.3 704.888 1108.72 690.089 z"/>
<path transform="translate(0,0)" fill="rgb(4,23,4)" d="M 1129.91 727.272 C 1127.43 720.395 1126.52 696.174 1129.35 689.92 C 1131.67 701.136 1130.48 715.632 1129.91 727.272 z"/>
<path transform="translate(0,0)" fill="rgb(0,0,0)" d="M 1232.2 596.025 L 1266.88 596.015 L 1266.83 608.543 C 1266.33 616.556 1266.26 623.739 1266.24 631.778 C 1261.61 632.065 1250.84 632.401 1249.51 636.471 C 1243.49 654.889 1246.03 707.625 1246.18 725.928 C 1237.46 726.052 1225.98 726.195 1217.4 727.922 C 1209.44 749.713 1213.09 798.281 1212.91 823.572 C 1195.96 823.703 1179.01 823.714 1162.05 823.605 C 1162.02 812.007 1161.57 797.383 1162.05 786.032 C 1173.06 786.458 1186.64 786.045 1197.84 785.97 C 1198.51 754.754 1197.93 721.408 1197.94 690.019 L 1232.01 689.972 C 1232.09 675.86 1232.34 661.352 1231.91 647.284 C 1232.71 632.113 1232.15 611.609 1232.2 596.025 z"/>
<path transform="translate(0,0)" fill="rgb(15,55,18)" d="M 1264.18 738.534 C 1263.96 721.723 1263.89 704.91 1263.96 688.097 C 1263.97 678.061 1263.63 662.692 1265.25 653.171 C 1266.48 655.887 1266.59 661.75 1266.86 665.057 L 1266.88 675.652 C 1267.14 694.138 1267.11 712.628 1266.8 731.113 C 1266.7 733.535 1266.71 735.566 1266.3 737.958 L 1264.18 738.534 z"/>
<path transform="translate(0,0)" fill="rgb(4,23,4)" d="M 1266.8 731.113 L 1265.41 731.37 C 1264.95 723.424 1264.35 682.061 1265.58 675.095 L 1266.88 675.652 C 1267.14 694.138 1267.11 712.628 1266.8 731.113 z"/>
<path transform="translate(0,0)" fill="rgb(43,94,49)" d="M 1095.1 444.084 C 1102.22 444.105 1113.23 443.805 1120.06 444.377 C 1122.67 446.581 1125.63 448.944 1127.97 451.375 C 1127.95 462.315 1127.38 492.538 1129.75 501.342 C 1122.93 501.929 1102.11 502.209 1095.52 501.571 C 1094.22 490.492 1095.13 456.883 1095.1 444.084 z"/>
<path transform="translate(0,0)" fill="rgb(0,0,0)" d="M 1096.09 465.794 L 1109.82 465.713 L 1109.92 500.825 C 1105.82 500.924 1099.36 500.87 1095.52 501.571 C 1096.6 491.505 1096.11 476.338 1096.09 465.794 z"/>
<path transform="translate(0,0)" fill="rgb(43,94,49)" d="M 1131.15 508.837 C 1132.31 516.475 1131.8 529.988 1131.64 538.129 C 1138.57 538.118 1146.14 537.953 1153 538.377 C 1157.8 541.506 1160.43 543.237 1161.5 549.286 C 1163.05 558.085 1163.78 587.387 1162.28 595.014 C 1153.38 595.128 1137.9 596.658 1130 595.775 L 1130.17 576.189 C 1129.08 560.049 1130.85 526.762 1131.15 508.837 z"/>
<path transform="translate(0,0)" fill="rgb(0,0,0)" d="M 1130.7 558.908 L 1143.99 559.057 L 1143.94 594.861 C 1139.84 594.989 1133.86 594.96 1130 595.775 L 1130.17 576.189 C 1130.57 570.437 1130.74 564.673 1130.7 558.908 z"/>
<path transform="translate(0,0)" fill="url(#Gradient15)" d="M 690.163 1076.02 L 803.523 1076.07 C 832.897 1076.08 863.889 1076.6 893.116 1075.76 C 892.654 1087.32 892.822 1100.44 892.726 1112.11 C 907.382 1111.73 915.622 1109.22 924.927 1122.31 C 925.015 1136.78 923.144 1150.76 924.823 1165.17 C 925.267 1168.98 925.928 1173.83 925.921 1177.53 C 925.823 1187.9 925.755 1197.68 926.101 1208.07 C 940.337 1207.7 949.692 1205.15 958.764 1218.07 C 959.391 1242.6 962.108 1502.28 957.455 1514.46 C 949.947 1522.04 934.707 1519.18 924.38 1519.48 C 924.259 1537.21 924.334 1554.95 924.605 1572.68 C 924.696 1581.94 926.548 1605.61 920.334 1612.14 C 915.388 1613.65 909.757 1614.72 904.551 1614.76 C 845.473 1615.24 786.372 1614.28 727.29 1614.86 C 721.381 1614.92 714.817 1614.36 709.092 1612.97 C 696.247 1603.32 705.654 1573.16 702.13 1559.75 C 698.364 1558.88 696.417 1558.63 692.551 1558.22 C 689.94 1552.31 690.88 1527.18 690.977 1519.06 C 684.322 1519.01 678.098 1519.61 672.525 1515.87 C 666.695 1507.29 668.89 1474.06 669.043 1461.72 C 665.462 1461.85 660.699 1461.56 657.022 1461.45 L 656.322 1170.46 C 667.457 1170.62 678.594 1170.59 689.728 1170.37 C 691.142 1168.13 690.547 1167.06 690.505 1163.86 C 689.708 1134.84 690.047 1105.06 690.163 1076.02 z M 858.981 1462.07 C 860.214 1439.81 859.148 1406.98 859.121 1384.04 L 858.978 1233.18 L 857.664 1229.02 C 849.882 1226.45 768.829 1228.83 755.139 1228.14 L 755.133 1384.58 C 755.172 1407.82 756.362 1440.31 755.301 1462.77 C 785.287 1460.32 827.253 1463.4 858.981 1462.07 z"/>
<path transform="translate(0,0)" fill="rgb(43,94,49)" d="M 926.101 1208.07 C 940.337 1207.7 949.692 1205.15 958.764 1218.07 C 959.391 1242.6 962.108 1502.28 957.455 1514.46 C 949.947 1522.04 934.707 1519.18 924.38 1519.48 C 924.259 1537.21 924.334 1554.95 924.605 1572.68 C 924.696 1581.94 926.548 1605.61 920.334 1612.14 C 915.388 1613.65 909.757 1614.72 904.551 1614.76 C 845.473 1615.24 786.372 1614.28 727.29 1614.86 C 721.381 1614.92 714.817 1614.36 709.092 1612.97 C 696.247 1603.32 705.654 1573.16 702.13 1559.75 C 698.364 1558.88 696.417 1558.63 692.551 1558.22 C 696.387 1557.74 718.158 1556.68 721.014 1558.01 C 731.749 1559.14 762.314 1558.34 774.405 1558.36 L 892.884 1557.99 C 893.293 1526.06 893.333 1494.14 893.007 1462.22 C 904.236 1462.47 915.469 1462.53 926.7 1462.42 C 927.824 1440.89 927.075 1413.19 927.05 1391.27 L 926.853 1263.33 C 925.316 1253.28 926.129 1220.06 926.101 1208.07 z"/>
<path transform="translate(0,0)" fill="rgb(0,0,0)" d="M 926.964 1228.76 L 940.395 1228.92 C 940.357 1318.01 941.662 1409.37 940.612 1498.15 C 933.611 1498.11 914.157 1497.24 911.397 1502.3 C 902.943 1517.8 906.477 1577.95 906.788 1595.01 C 844.715 1594.45 782.639 1594.37 720.565 1594.76 C 720.608 1582.75 720.423 1569.95 721.014 1558.01 C 731.749 1559.14 762.314 1558.34 774.405 1558.36 L 892.884 1557.99 C 893.293 1526.06 893.333 1494.14 893.007 1462.22 C 904.236 1462.47 915.469 1462.53 926.7 1462.42 C 927.824 1440.89 927.075 1413.19 927.05 1391.27 L 926.853 1263.33 C 927.252 1251.75 927.071 1240.34 926.964 1228.76 z"/>
<path transform="translate(0,0)" fill="rgb(136,192,88)" d="M 690.163 1076.02 L 803.523 1076.07 C 832.897 1076.08 863.889 1076.6 893.116 1075.76 C 892.654 1087.32 892.822 1100.44 892.726 1112.11 C 907.382 1111.73 915.622 1109.22 924.927 1122.31 C 925.015 1136.78 923.144 1150.76 924.823 1165.17 C 925.267 1168.98 925.928 1173.83 925.921 1177.53 C 925.446 1175.08 925.36 1174.55 924.462 1172.24 C 918.64 1169.18 904.345 1171.2 895.927 1170.87 C 893.127 1170.91 894.331 1171.34 892.197 1169.53 L 891.935 1164.31 C 891.372 1163 890.16 1160.62 890.353 1159.19 C 890.553 1157.7 890.699 1153.87 888.212 1153.92 C 882.138 1154.03 878.16 1156.39 871.51 1155.75 C 861.813 1154.83 852.23 1152.95 842.508 1152.59 C 836.67 1152.54 830.358 1153.62 824.475 1153.83 C 818.376 1154.04 812.24 1154.03 806.162 1154.47 C 800.474 1154.89 794.543 1156.27 788.863 1156.46 C 782.957 1156.65 776.474 1154.77 770.51 1155.1 C 759.862 1156.31 750.367 1159.24 739.073 1159.51 C 728.097 1159.77 712.805 1157.86 701.497 1157.84 C 701.542 1157.84 696.535 1161.38 695.959 1161.78 C 691.821 1159.62 695.774 1157.69 691.965 1154.74 C 692.079 1158.44 692.62 1160.65 690.505 1163.86 C 689.708 1134.84 690.047 1105.06 690.163 1076.02 z"/>
<path transform="translate(0,0)" fill="rgb(43,94,49)" d="M 892.726 1112.11 C 907.382 1111.73 915.622 1109.22 924.927 1122.31 C 925.015 1136.78 923.144 1150.76 924.823 1165.17 C 925.267 1168.98 925.928 1173.83 925.921 1177.53 C 925.446 1175.08 925.36 1174.55 924.462 1172.24 C 918.64 1169.18 904.345 1171.2 895.927 1170.87 C 893.127 1170.91 894.331 1171.34 892.197 1169.53 L 891.935 1164.31 L 892.135 1143.47 C 891.593 1136.16 892.369 1119.51 892.726 1112.11 z"/>
<path transform="translate(0,0)" fill="rgb(0,0,0)" d="M 892.135 1143.47 C 892.412 1139.68 892.084 1136.56 894.406 1133.79 C 897.666 1132.26 902.424 1132.74 906.186 1132.76 C 906.394 1141.49 907.082 1161.47 905.723 1169.19 C 902.211 1170.5 899.629 1170.52 895.927 1170.87 C 893.127 1170.91 894.331 1171.34 892.197 1169.53 L 891.935 1164.31 L 892.135 1143.47 z"/>
<path transform="translate(0,0)" fill="rgb(0,0,0)" fill-opacity="0.0117647" d="M 787.684 1458.45 C 793.575 1458.53 805.526 1456.02 809.55 1459.92 C 802.501 1458.94 794.98 1461.13 787.584 1459.98 L 787.684 1458.45 z"/>
<path transform="translate(0,0)" fill="rgb(0,0,0)" d="M 723.982 1171.01 C 769.251 1171.32 814.522 1171.36 859.791 1171.13 L 860.097 1208.02 C 860.177 1214.98 860.723 1226.92 858.978 1233.18 L 857.664 1229.02 C 849.882 1226.45 768.829 1228.83 755.139 1228.14 L 755.133 1384.58 C 755.172 1407.82 756.362 1440.31 755.301 1462.77 C 747.285 1463.09 731.43 1463.69 724.005 1462.7 L 723.982 1171.01 z"/>
<path transform="translate(0,0)" fill="rgb(43,94,49)" d="M 737.998 1462.22 L 737.961 1307.36 C 737.959 1288.58 735.263 1221.33 743.333 1209.97 C 753.153 1206.31 842.782 1207.92 860.097 1208.02 C 860.177 1214.98 860.723 1226.92 858.978 1233.18 L 857.664 1229.02 C 849.882 1226.45 768.829 1228.83 755.139 1228.14 L 755.133 1384.58 C 755.172 1407.82 756.362 1440.31 755.301 1462.77 C 747.285 1463.09 731.43 1463.69 724.005 1462.7 C 727.746 1462.16 734.03 1462.27 737.998 1462.22 z"/>
<path transform="translate(0,0)" fill="rgb(0,0,0)" d="M 685.809 1461.41 L 689.949 1462.26 C 693.673 1466.72 691.172 1492.43 690.741 1499.49 L 689.727 1499.73 C 683.927 1494.6 685.765 1469.63 685.809 1461.41 z"/>
<path transform="translate(0,0)" fill="url(#Gradient14)" d="M 995.129 1076.04 C 1063.07 1076.43 1134.66 1076.99 1202.43 1075.82 C 1203.15 1088.39 1202.77 1098.38 1201.56 1110.9 C 1215.48 1110.67 1224.4 1108.05 1232.81 1120.96 C 1234.51 1136.58 1231.41 1156.76 1234.69 1170.23 C 1235.47 1180.4 1235.53 1196.73 1235.27 1207.12 C 1245.06 1206.89 1265.35 1204.18 1266.32 1218.18 C 1267.17 1230.55 1266.95 1243.35 1266.96 1255.77 L 1267.01 1319.89 C 1267.06 1378.58 1268.03 1440.02 1267.11 1498.51 C 1267.05 1501.1 1266.89 1503.68 1266.64 1506.26 C 1264.74 1524.5 1247.52 1519.5 1233.22 1519.97 C 1233.38 1533.01 1235.98 1604.13 1230.07 1609.81 C 1227.23 1612.53 1223.58 1614.25 1219.67 1614.69 C 1212.86 1615.51 1197.98 1615.1 1190.66 1615.08 L 1138.19 1614.96 L 1070.96 1614.81 C 1056.37 1614.81 1025.17 1616.37 1012.77 1610.93 C 1006.46 1602.23 1006.94 1569.52 1008.78 1558.12 C 1005.25 1558.7 999.272 1558.54 995.51 1558.56 C 996.143 1546.15 995.435 1531.2 995.406 1518.43 L 995.437 1441.77 L 995.452 1184.71 C 994.418 1149.8 995.095 1111.22 995.129 1076.04 z M 1095.8 1462.6 C 1109.63 1460.92 1153.11 1462.17 1168.71 1462.24 C 1169.14 1442.61 1168.43 1421.63 1168.3 1401.84 L 1167.97 1295.39 C 1167.92 1275.59 1167.21 1249.13 1168.47 1229.75 C 1157.9 1227 1109.38 1229.45 1094.96 1228.39 L 1094.7 1402.45 C 1094.72 1412.3 1093.88 1457 1095.8 1462.6 z"/>
<path transform="translate(0,0)" fill="rgb(136,192,88)" d="M 995.129 1076.04 C 1063.07 1076.43 1134.66 1076.99 1202.43 1075.82 C 1203.15 1088.39 1202.77 1098.38 1201.56 1110.9 C 1201.93 1118.64 1202 1125.46 1201.94 1133.22 L 1201.79 1142.41 C 1199.83 1149.79 1201.44 1156.39 1200.22 1163.83 C 1200.28 1160.22 1200.7 1154.88 1199.68 1151.59 C 1191.1 1158.89 1155.21 1152.96 1143.87 1152.35 C 1139.03 1152.09 1126.31 1156.01 1119.79 1156.36 C 1102.58 1157.31 1084.59 1158.8 1067.51 1160.32 C 1055.68 1161.37 1037.59 1158.35 1025.61 1157.39 C 1021.32 1156.64 1015.76 1152.38 1010.97 1153.6 C 1007.78 1157.01 1003.62 1159.35 999.745 1161.91 L 997.285 1161.51 C 997.319 1166.37 998.037 1180.71 996.857 1184.28 L 995.452 1184.71 C 994.418 1149.8 995.095 1111.22 995.129 1076.04 z"/>
<path transform="translate(0,0)" fill="rgb(43,94,49)" d="M 1201.56 1110.9 C 1215.48 1110.67 1224.4 1108.05 1232.81 1120.96 C 1234.51 1136.58 1231.41 1156.76 1234.69 1170.23 C 1228.37 1170.55 1222.14 1170.27 1215.81 1170.08 L 1201.93 1170.13 L 1201.79 1142.41 L 1201.94 1133.22 C 1202 1125.46 1201.93 1118.64 1201.56 1110.9 z"/>
<path transform="translate(0,0)" fill="rgb(0,0,0)" d="M 1201.94 1133.22 L 1215.97 1133.07 C 1215.94 1144.96 1216.21 1158.32 1215.81 1170.08 L 1201.93 1170.13 L 1201.79 1142.41 L 1201.94 1133.22 z"/>
<path transform="translate(0,0)" fill="rgb(43,94,49)" d="M 1008.78 1558.12 C 1017.85 1574.82 995.737 1612.31 1028.16 1612.68 C 1087.85 1613.37 1147.57 1612.14 1207.27 1613.43 C 1212.05 1613.53 1219.1 1613.51 1223.47 1612.05 C 1225.01 1611.54 1230.16 1607.31 1230.44 1605.58 C 1234.26 1589.57 1228.8 1531.42 1232.33 1519.04 C 1238.64 1514.71 1253.39 1517.57 1260.67 1515.15 C 1262.29 1514.61 1264.49 1508.47 1264.95 1506.81 L 1266.64 1506.26 C 1264.74 1524.5 1247.52 1519.5 1233.22 1519.97 C 1233.38 1533.01 1235.98 1604.13 1230.07 1609.81 C 1227.23 1612.53 1223.58 1614.25 1219.67 1614.69 C 1212.86 1615.51 1197.98 1615.1 1190.66 1615.08 L 1138.19 1614.96 L 1070.96 1614.81 C 1056.37 1614.81 1025.17 1616.37 1012.77 1610.93 C 1006.46 1602.23 1006.94 1569.52 1008.78 1558.12 z"/>
<path transform="translate(0,0)" fill="rgb(0,0,0)" d="M 1063.18 1171.04 C 1098.44 1171.39 1133.7 1171.46 1168.96 1171.25 L 1169.05 1207.58 C 1169.21 1211.82 1170.23 1226.5 1168.47 1229.75 C 1157.9 1227 1109.38 1229.45 1094.96 1228.39 L 1094.7 1402.45 C 1094.72 1412.3 1093.88 1457 1095.8 1462.6 C 1091.95 1463.36 1080.99 1463.28 1076.86 1462.93 L 1063.5 1462.71 L 1063.18 1171.04 z"/>
<path transform="translate(0,0)" fill="rgb(43,94,49)" d="M 1169.05 1207.58 C 1169.21 1211.82 1170.23 1226.5 1168.47 1229.75 C 1157.9 1227 1109.38 1229.45 1094.96 1228.39 L 1094.7 1402.45 C 1094.72 1412.3 1093.88 1457 1095.8 1462.6 C 1091.95 1463.36 1080.99 1463.28 1076.86 1462.93 C 1077.76 1411 1076.98 1358.93 1076.74 1306.99 C 1076.63 1281.62 1075.41 1255.7 1077.1 1230.41 C 1077.39 1226.09 1078.07 1214.12 1081.43 1211.43 C 1089.75 1204.79 1154.92 1207.67 1169.05 1207.58 z"/>
<path transform="translate(0,0)" fill="rgb(0,0,0)" d="M 1236.12 1227.77 L 1250.49 1227.79 C 1251.37 1255.24 1250.35 1285.82 1250.37 1313.66 L 1250.11 1498.35 C 1243.05 1498.26 1225.46 1496.43 1220.36 1502.46 C 1212.47 1511.8 1215.81 1579.69 1215.9 1594.46 C 1195.69 1595.44 1171.94 1594.79 1151.43 1594.75 L 1047.25 1594.91 L 1028 1594.96 C 1027.81 1582.82 1027.96 1570.33 1027.99 1558.16 L 1202.05 1558.02 L 1202.39 1462.32 C 1213.61 1462.45 1224.83 1462.37 1236.05 1462.1 L 1236.12 1227.77 z"/>
<path transform="translate(0,0)" fill="url(#Gradient13)" d="M 418.102 408.007 L 519.171 408.257 C 539.648 408.272 565.684 408.859 585.794 407.469 L 586.119 444.243 C 602.085 444.303 610.949 442.855 620.035 457.628 C 620.566 472.16 619.697 488.003 620.385 501.758 L 620.617 537.938 C 638.577 537.906 651.002 534.093 651.751 556.606 C 652.695 584.971 652.038 613.022 652.076 641.378 L 652.382 799.942 L 652.57 880.655 C 652.615 890.977 654.544 930.12 648.963 936.36 C 638.252 942.333 588.667 940.503 573.832 939.845 C 567.885 935.837 565.114 932.795 564.31 925.136 C 563.077 913.39 563.939 898.199 564.215 886.163 L 563.824 884.312 C 561.012 881.928 560.219 882.61 555.77 882.034 L 554.231 881.783 C 552.475 878.422 553.118 761.862 553.077 747.947 C 530.24 747.958 506.671 747.687 483.903 748.175 C 483.714 784.856 483.71 821.537 483.889 858.217 C 483.946 873.402 486.169 924.465 480.066 935.804 C 469.789 943.2 404.724 945.696 396.991 933.187 C 391.952 925.037 394.471 895.596 394.543 883.583 C 389.941 882.974 389.212 883.635 386.034 881.252 C 385.281 878.055 385.222 836.885 385.169 830.047 L 385.212 661.631 C 383.553 611.506 384.954 553.212 384.991 502.377 C 395.95 501.963 407.453 502.063 418.457 501.99 C 416.552 478.531 418.088 432.714 418.102 408.007 z M 483.087 595.903 C 506.151 596.105 529.217 596.151 552.282 596.038 C 552.058 584.435 552.626 570.968 552.881 559.247 L 483.531 561.177 C 483.481 572.754 483.333 584.329 483.087 595.903 z"/>
<path transform="translate(0,0)" fill="url(#Gradient12)" d="M 418.102 408.007 L 519.171 408.257 C 539.648 408.272 565.684 408.859 585.794 407.469 L 586.119 444.243 C 602.085 444.303 610.949 442.855 620.035 457.628 C 620.566 472.16 619.697 488.003 620.385 501.758 L 620.617 537.938 L 620.159 608.323 C 620.119 618.79 620.649 636.737 619.9 646.704 C 619.017 651.346 618.694 652.898 618.619 657.556 C 609.897 657.4 602.991 652.294 593.503 651.789 C 547.608 649.347 502.127 648.566 456.191 648.91 C 439.515 649.035 421.066 646.209 404.618 650.439 C 398.589 651.83 392.959 658.652 387.654 654.694 C 386.864 656.908 385.894 659.415 385.212 661.631 C 383.553 611.506 384.954 553.212 384.991 502.377 C 395.95 501.963 407.453 502.063 418.457 501.99 C 416.552 478.531 418.088 432.714 418.102 408.007 z M 483.087 595.903 C 506.151 596.105 529.217 596.151 552.282 596.038 C 552.058 584.435 552.626 570.968 552.881 559.247 L 483.531 561.177 C 483.481 572.754 483.333 584.329 483.087 595.903 z"/>
<path transform="translate(0,0)" fill="rgb(43,94,49)" d="M 586.119 444.243 C 602.085 444.303 610.949 442.855 620.035 457.628 C 620.566 472.16 619.697 488.003 620.385 501.758 C 609.795 501.304 596.629 502.704 586.766 501.599 L 586.716 466.045 C 586.574 458.776 586.375 451.509 586.119 444.243 z"/>
<path transform="translate(0,0)" fill="rgb(0,0,0)" d="M 586.716 466.045 L 600.991 465.906 C 600.942 477.291 600.674 489.514 600.888 500.83 C 596.943 500.941 590.437 500.919 586.766 501.599 L 586.716 466.045 z"/>
<path transform="translate(0,0)" fill="rgb(0,0,0)" d="M 452.012 502.037 L 553.031 502.005 L 553.122 538.208 C 553.132 545.11 553.269 552.393 552.881 559.247 L 483.531 561.177 C 483.481 572.754 483.333 584.329 483.087 595.903 L 465.762 595.934 L 452.319 595.949 C 451.858 564.813 452.065 533.209 452.012 502.037 z"/>
<path transform="translate(0,0)" fill="rgb(43,94,49)" d="M 465.762 595.934 C 465.948 587.799 463.508 546.39 469.411 543.669 C 488.865 534.704 531.287 537.99 553.122 538.208 C 553.132 545.11 553.269 552.393 552.881 559.247 L 483.531 561.177 C 483.481 572.754 483.333 584.329 483.087 595.903 L 465.762 595.934 z"/>
<path transform="translate(0,0)" fill="rgb(43,94,49)" d="M 620.617 537.938 C 638.577 537.906 651.002 534.093 651.751 556.606 C 652.695 584.971 652.038 613.022 652.076 641.378 L 652.382 799.942 L 652.57 880.655 C 652.615 890.977 654.544 930.12 648.963 936.36 C 638.252 942.333 588.667 940.503 573.832 939.845 C 567.885 935.837 565.114 932.795 564.31 925.136 C 563.077 913.39 563.939 898.199 564.215 886.163 C 570.351 883.662 575.792 884.231 582.393 884.245 L 583.028 882.866 C 595.69 883.079 608.354 883.085 621.016 882.884 L 620.778 712.291 C 619.418 705.941 620.131 657.157 619.9 646.704 C 620.649 636.737 620.119 618.79 620.159 608.323 L 620.617 537.938 z"/>
<path transform="translate(0,0)" fill="rgb(0,0,0)" d="M 621.124 558.678 L 634.824 558.995 C 635.81 679.168 635.897 799.346 635.083 919.521 C 617.465 919.651 599.846 919.615 582.229 919.414 L 582.393 884.245 L 583.028 882.866 C 595.69 883.079 608.354 883.085 621.016 882.884 L 620.778 712.291 C 622.056 662.16 620.816 609.089 621.124 558.678 z"/>
<path transform="translate(0,0)" fill="rgb(0,0,0)" d="M 452.016 690.221 L 553.042 690.014 L 552.981 726.174 L 553.077 747.947 C 530.24 747.958 506.671 747.687 483.903 748.175 C 483.714 784.856 483.71 821.537 483.889 858.217 C 483.946 873.402 486.169 924.465 480.066 935.804 C 469.789 943.2 404.724 945.696 396.991 933.187 C 391.952 925.037 394.471 895.596 394.543 883.583 C 401.969 884.293 406.647 883.875 414.089 883.406 C 422.199 882.586 442.97 883.068 452.018 883.023 L 452.016 690.221 z"/>
<path transform="translate(0,0)" fill="rgb(43,94,49)" d="M 465.998 919.187 L 465.701 807.476 C 465.597 791.556 463.524 740.6 469.672 728.888 C 476.935 724.502 539.626 726.138 552.981 726.174 L 553.077 747.947 C 530.24 747.958 506.671 747.687 483.903 748.175 C 483.714 784.856 483.71 821.537 483.889 858.217 C 483.946 873.402 486.169 924.465 480.066 935.804 C 469.789 943.2 404.724 945.696 396.991 933.187 C 391.952 925.037 394.471 895.596 394.543 883.583 C 401.969 884.293 406.647 883.875 414.089 883.406 L 413.828 919.438 C 431.218 919.479 448.609 919.395 465.998 919.187 z"/>
<path transform="translate(0,0)" fill="rgb(19,82,37)" d="M 555.77 882.034 C 561.072 881.545 578.24 881.417 583.028 882.866 L 582.393 884.245 C 575.792 884.231 570.351 883.662 564.215 886.163 L 563.824 884.312 C 561.012 881.928 560.219 882.61 555.77 882.034 z"/>
<path transform="translate(0,0)" fill="url(#Gradient11)" d="M 1710.34 408.08 L 1911.3 407.917 C 1911.62 419.736 1911.21 433.1 1911.07 445.042 C 1919.87 444.767 1926.57 444.514 1935.37 445.236 C 1938.03 447.764 1940.69 450.131 1942.96 453.018 C 1943.11 465.354 1942.11 491.253 1945.13 501.294 L 1945.66 538.107 C 1972.39 537.31 1976.68 535.901 1976.97 566.642 C 1977.17 588.369 1976.97 610.363 1976.72 632.123 C 1976.43 658.437 1963.6 653.343 1942.36 652.975 C 1942.52 661.392 1942.47 682.326 1943.5 689.936 C 1945.48 701.315 1945.05 712.633 1945.16 724.226 C 1965.34 724.713 1975.97 722.798 1976.44 747.208 C 1977.46 801.005 1976.47 854.855 1976.87 908.671 C 1976.92 915.909 1976.59 929.904 1973.52 936.355 C 1962.82 944.149 1916.97 940.722 1902.55 940.187 C 1899.49 940.073 1894.46 937.448 1891.65 936.013 C 1887.2 921.251 1888.77 899.261 1889.16 883.268 C 1886.44 881.874 1880.44 882.179 1877.08 882.114 C 1877.91 837.279 1877.05 791.958 1877.11 747.022 L 1809.26 747.049 C 1809.66 752.642 1809.92 783.907 1809.39 788.131 C 1807.04 806.95 1813.66 925.31 1805.67 935.883 C 1794.04 942.273 1739.57 941.387 1726.07 938.677 C 1720.98 924.656 1720.13 912.97 1720.31 898.038 C 1720.36 894.588 1720.93 886.127 1719.58 883.432 C 1716.18 883.35 1715.7 883.572 1712.54 882.195 C 1710.21 878.722 1711.13 847.079 1711.13 840.061 C 1711.03 814.405 1711.17 788.749 1711.54 763.096 C 1712.08 718.571 1711.71 670.25 1711.29 625.652 C 1710.21 606.647 1711.28 582.101 1711.03 562.367 C 1710.38 511.127 1711.52 459.266 1710.34 408.08 z"/>
<path transform="translate(0,0)" fill="url(#Gradient10)" d="M 1710.34 408.08 L 1911.3 407.917 C 1911.62 419.736 1911.21 433.1 1911.07 445.042 C 1919.87 444.767 1926.57 444.514 1935.37 445.236 C 1938.03 447.764 1940.69 450.131 1942.96 453.018 C 1943.11 465.354 1942.11 491.253 1945.13 501.294 L 1945.66 538.107 C 1972.39 537.31 1976.68 535.901 1976.97 566.642 C 1977.17 588.369 1976.97 610.363 1976.72 632.123 C 1976.43 658.437 1963.6 653.343 1942.36 652.975 C 1942.52 661.392 1942.47 682.326 1943.5 689.936 L 1925.68 689.912 L 1911.15 690.026 C 1911.4 673.34 1911.4 656.651 1911.13 639.966 C 1906.6 641.541 1884.27 636.905 1877.39 637.082 C 1849.63 637.797 1821.96 635.428 1794.2 635.457 C 1774.19 635.478 1754.5 636.135 1734.56 634.648 C 1733.2 634.547 1720.09 639.488 1718.18 640.177 C 1711.29 637.026 1716.4 631.367 1711.29 625.652 C 1710.21 606.647 1711.28 582.101 1711.03 562.367 C 1710.38 511.127 1711.52 459.266 1710.34 408.08 z"/>
<path transform="translate(0,0)" fill="rgb(43,94,49)" d="M 1945.66 538.107 C 1972.39 537.31 1976.68 535.901 1976.97 566.642 C 1977.17 588.369 1976.97 610.363 1976.72 632.123 C 1976.43 658.437 1963.6 653.343 1942.36 652.975 C 1942.52 661.392 1942.47 682.326 1943.5 689.936 L 1925.68 689.912 L 1911.15 690.026 C 1911.4 673.34 1911.4 656.651 1911.13 639.966 C 1911.52 625.677 1911.26 610.387 1911.26 596.024 L 1945.67 595.988 C 1945.58 583.514 1945.78 570.817 1945.85 558.324 C 1945.92 551.585 1945.86 544.844 1945.66 538.107 z"/>
<path transform="translate(0,0)" fill="rgb(0,0,0)" d="M 1945.85 558.324 C 1950.22 558.614 1954.63 558.988 1959 558.998 L 1958.92 632.899 C 1945.69 632.586 1923.64 629.666 1924.69 649.831 C 1925.39 663.477 1925.91 676.268 1925.68 689.912 L 1911.15 690.026 C 1911.4 673.34 1911.4 656.651 1911.13 639.966 C 1911.52 625.677 1911.26 610.387 1911.26 596.024 L 1945.67 595.988 C 1945.58 583.514 1945.78 570.817 1945.85 558.324 z"/>
<path transform="translate(0,0)" fill="rgb(15,55,18)" d="M 1968.14 636.863 C 1969.42 637.594 1969.05 637.527 1969.95 638.995 C 1968.95 641.501 1966.2 642.622 1963.72 644.133 C 1963.15 643.754 1962.58 643.376 1962.01 642.998 C 1962.83 640.536 1965.8 638.789 1968.14 636.863 z"/>
<path transform="translate(0,0)" fill="rgb(43,94,49)" d="M 1911.07 445.042 C 1919.87 444.767 1926.57 444.514 1935.37 445.236 C 1938.03 447.764 1940.69 450.131 1942.96 453.018 C 1943.11 465.354 1942.11 491.253 1945.13 501.294 C 1936.26 501.824 1919.92 502.524 1911.15 501.485 L 1911.16 494.061 C 1910.32 479.755 1911 459.767 1911.07 445.042 z"/>
<path transform="translate(0,0)" fill="rgb(0,0,0)" d="M 1911.94 466 L 1925.58 465.987 C 1925.45 477.641 1925.49 489.296 1925.69 500.949 C 1921.62 501.023 1914.99 500.942 1911.15 501.485 L 1911.16 494.061 C 1912.11 485.063 1911.9 475.115 1911.94 466 z"/>
<path transform="translate(0,0)" fill="rgb(43,94,49)" d="M 1778 502.023 L 1877.16 501.958 C 1877.9 510.785 1878.87 553.099 1876.58 560.066 C 1875.53 569.49 1875.99 584.219 1876.01 594.062 C 1858.32 594.138 1826.79 593.389 1810.02 595.046 C 1802.33 595.993 1787.46 596.433 1779.66 595.847 L 1779.16 595.532 C 1777.02 592.398 1777.98 512.612 1778 502.023 z"/>
<path transform="translate(0,0)" fill="rgb(0,0,0)" d="M 1778 502.023 L 1877.16 501.958 C 1876.64 513.922 1876.86 526.121 1876.92 538.11 C 1862.89 538.028 1847.8 538.021 1833.83 537.908 C 1789.45 537.548 1791.56 538.346 1791.86 581.06 L 1791.99 595.251 C 1788.43 595.357 1783.03 595.351 1779.66 595.847 L 1779.16 595.532 C 1777.02 592.398 1777.98 512.612 1778 502.023 z"/>
<path transform="translate(0,0)" fill="rgb(254,254,254)" d="M 1809.95 560.054 C 1832.16 559.914 1854.37 559.918 1876.58 560.066 C 1875.53 569.49 1875.99 584.219 1876.01 594.062 C 1858.32 594.138 1826.79 593.389 1810.02 595.046 L 1809.95 560.054 z"/>
<path transform="translate(0,0)" fill="rgb(43,94,49)" d="M 1945.16 724.226 C 1965.34 724.713 1975.97 722.798 1976.44 747.208 C 1977.46 801.005 1976.47 854.855 1976.87 908.671 C 1976.92 915.909 1976.59 929.904 1973.52 936.355 C 1962.82 944.149 1916.97 940.722 1902.55 940.187 C 1899.49 940.073 1894.46 937.448 1891.65 936.013 C 1887.2 921.251 1888.77 899.261 1889.16 883.268 C 1895.95 883.506 1901.35 883.494 1908.13 883.263 C 1919.54 882.551 1933.73 882.906 1945.42 882.931 C 1943.92 871.456 1944.93 847.836 1944.73 835.496 C 1944.15 798.795 1945.95 760.812 1945.16 724.226 z"/>
<path transform="translate(0,0)" fill="rgb(0,0,0)" d="M 1945.99 747.832 L 1959.04 747.581 L 1959.06 919.627 L 1908.03 919.422 L 1908.13 883.263 C 1919.54 882.551 1933.73 882.906 1945.42 882.931 C 1946.37 868.116 1945.96 849.798 1945.97 834.662 L 1945.99 747.832 z"/>
<path transform="translate(0,0)" fill="rgb(0,0,0)" d="M 1778.04 690.288 L 1877.65 690.034 C 1877.09 701.509 1877.16 714.642 1876.96 726.24 C 1866.54 726.274 1802.45 725.081 1797.15 729.117 C 1793.9 731.596 1792.96 740.01 1792.54 743.876 C 1791.05 757.629 1792.11 772.436 1792.09 786.282 L 1792.04 870.803 L 1791.98 919.117 L 1740.61 919.329 L 1740.25 883.11 L 1778.03 882.666 L 1778.04 690.288 z"/>
<path transform="translate(0,0)" fill="url(#Gradient9)" d="M 1305.01 1076.01 C 1383.81 1075.87 1463.35 1076.93 1542.06 1076.09 C 1542.15 1087.39 1542.15 1098.7 1542.06 1110 C 1549.38 1109.84 1565.69 1107.72 1570.8 1113.78 C 1578.48 1122.9 1577.25 1205.26 1574.19 1218.39 C 1573.37 1221.95 1572.38 1224.9 1569.71 1227.48 C 1559.16 1231.07 1513.63 1229.78 1500.17 1229.76 C 1467.86 1229.6 1435.56 1229.62 1403.25 1229.83 C 1403.4 1242.02 1403.23 1257.74 1404.25 1269.6 C 1425.1 1271.28 1451.71 1269.51 1473.18 1270 C 1473.1 1280.68 1472.65 1293.65 1473.5 1304.12 C 1481.45 1304.11 1493.12 1303.11 1499.7 1306.74 C 1503.48 1311.36 1505.08 1316.49 1506.1 1322.33 C 1508.24 1334.64 1508.97 1390.54 1507.43 1404.67 C 1506.97 1408.89 1505.52 1416.33 1501.8 1419.05 C 1493.13 1425.38 1418.3 1422.17 1403.28 1422.05 L 1403.22 1462.17 C 1445.96 1461.31 1498.31 1461.1 1541.12 1462.01 C 1541.06 1469.16 1540.6 1492.23 1541.57 1498.39 C 1549.23 1498.05 1558.83 1496.79 1566.05 1499.79 C 1569.75 1501.33 1572.31 1504.25 1573.65 1508.01 C 1576.32 1515.56 1575.88 1584.82 1574.98 1596.66 C 1574.73 1600.08 1574.25 1604.96 1572.41 1607.96 C 1569.88 1612.05 1565.22 1613.83 1560.71 1614.85 C 1550.75 1617.1 1539.02 1616.01 1528.84 1615.95 L 1479.22 1615.73 L 1387.22 1615.88 C 1379.21 1615.89 1325.74 1617.44 1321.53 1611.82 C 1314.5 1602.41 1316.25 1572.15 1316.25 1558.87 C 1312.16 1558.92 1311.4 1558.89 1307.41 1558.13 C 1303.51 1553.96 1305.42 1426.65 1305.52 1409.67 C 1305.24 1396.53 1305.66 1383.9 1305.81 1370.8 C 1306.64 1299.68 1304.63 1228.58 1305.21 1157.47 C 1304.72 1130.31 1305.67 1103.12 1305.01 1076.01 z"/>
<path transform="translate(0,0)" fill="rgb(136,192,88)" d="M 1305.01 1076.01 C 1383.81 1075.87 1463.35 1076.93 1542.06 1076.09 C 1542.15 1087.39 1542.15 1098.7 1542.06 1110 C 1549.38 1109.84 1565.69 1107.72 1570.8 1113.78 C 1578.48 1122.9 1577.25 1205.26 1574.19 1218.39 C 1573.37 1221.95 1572.38 1224.9 1569.71 1227.48 C 1559.16 1231.07 1513.63 1229.78 1500.17 1229.76 C 1467.86 1229.6 1435.56 1229.62 1403.25 1229.83 C 1403.4 1242.02 1403.23 1257.74 1404.25 1269.6 C 1396.07 1270.18 1379.91 1270.54 1371.88 1269.83 L 1372.06 1170.71 L 1371.89 1170.51 L 1372.43 1169.62 C 1423.51 1168.2 1480.64 1169.53 1532.36 1169.45 L 1534.48 1166.92 C 1533.96 1164.38 1533.38 1162.88 1531.49 1161.13 C 1521.86 1152.2 1452.87 1157.66 1437.14 1157.5 C 1430.42 1157.43 1423.71 1156.54 1416.99 1156.38 C 1397.92 1155.94 1378.64 1156.97 1359.56 1157.37 C 1350.1 1157.57 1340.6 1156.79 1331.16 1157.17 C 1321.49 1157.55 1319.02 1156.92 1312.51 1163.97 L 1311.09 1163.84 C 1309.97 1161.48 1309.57 1159.84 1307.3 1158.66 C 1306.69 1165.47 1307.1 1172.58 1306.69 1179.6 C 1306.39 1172.71 1306.21 1165.3 1305.35 1158.5 L 1305.21 1157.47 C 1304.72 1130.31 1305.67 1103.12 1305.01 1076.01 z"/>
<path transform="translate(0,0)" fill="rgb(0,0,0)" d="M 1542.06 1110 C 1549.38 1109.84 1565.69 1107.72 1570.8 1113.78 C 1578.48 1122.9 1577.25 1205.26 1574.19 1218.39 C 1573.37 1221.95 1572.38 1224.9 1569.71 1227.48 C 1559.16 1231.07 1513.63 1229.78 1500.17 1229.76 C 1467.86 1229.6 1435.56 1229.62 1403.25 1229.83 C 1403.4 1242.02 1403.23 1257.74 1404.25 1269.6 C 1396.07 1270.18 1379.91 1270.54 1371.88 1269.83 L 1372.06 1170.71 C 1387.67 1172 1415.3 1171.21 1431.7 1171.21 L 1542.11 1171.28 C 1542.21 1158.51 1542.11 1145.74 1541.79 1132.98 C 1541.09 1124.88 1541.52 1118.07 1542.06 1110 z"/>
<path transform="translate(0,0)" fill="rgb(43,94,49)" d="M 1542.06 1110 C 1549.38 1109.84 1565.69 1107.72 1570.8 1113.78 C 1578.48 1122.9 1577.25 1205.26 1574.19 1218.39 C 1573.37 1221.95 1572.38 1224.9 1569.71 1227.48 C 1559.16 1231.07 1513.63 1229.78 1500.17 1229.76 C 1467.86 1229.6 1435.56 1229.62 1403.25 1229.83 C 1403.4 1242.02 1403.23 1257.74 1404.25 1269.6 C 1396.07 1270.18 1379.91 1270.54 1371.88 1269.83 C 1375.67 1269.3 1382.92 1269.31 1386.98 1269.19 C 1386.77 1261.16 1386.63 1253.12 1386.55 1245.07 C 1386.5 1237.1 1385.87 1217.07 1391.13 1211.74 C 1404.13 1206.2 1444.23 1207.98 1459.63 1207.99 L 1556.95 1207.96 C 1557.04 1182.95 1556.97 1157.94 1556.74 1132.93 L 1541.79 1132.98 C 1541.09 1124.88 1541.52 1118.07 1542.06 1110 z"/>
<path transform="translate(0,0)" fill="rgb(0,0,0)" d="M 1305.52 1409.67 C 1306.77 1419.89 1306.38 1455.33 1306.18 1468.16 C 1305.75 1495.5 1307.2 1520.95 1307.53 1547.88 C 1312.72 1557.59 1314.23 1553.63 1317.69 1558.56 C 1320.35 1562.35 1322.06 1568.82 1326.83 1574.17 L 1328.96 1574.75 C 1335.22 1569.27 1331.97 1554.97 1340.99 1557.39 C 1343.39 1558.04 1343.54 1556.77 1345.73 1558.53 C 1409.43 1560.22 1477.83 1558.1 1542.03 1558.11 C 1542.36 1547.02 1542.43 1535.91 1542.25 1524.82 C 1541.24 1520.83 1543.18 1506.78 1541.57 1498.39 C 1549.23 1498.05 1558.83 1496.79 1566.05 1499.79 C 1569.75 1501.33 1572.31 1504.25 1573.65 1508.01 C 1576.32 1515.56 1575.88 1584.82 1574.98 1596.66 C 1574.73 1600.08 1574.25 1604.96 1572.41 1607.96 C 1569.88 1612.05 1565.22 1613.83 1560.71 1614.85 C 1550.75 1617.1 1539.02 1616.01 1528.84 1615.95 L 1479.22 1615.73 L 1387.22 1615.88 C 1379.21 1615.89 1325.74 1617.44 1321.53 1611.82 C 1314.5 1602.41 1316.25 1572.15 1316.25 1558.87 C 1312.16 1558.92 1311.4 1558.89 1307.41 1558.13 C 1303.51 1553.96 1305.42 1426.65 1305.52 1409.67 z"/>
<path transform="translate(0,0)" fill="rgb(43,94,49)" d="M 1305.52 1409.67 C 1306.77 1419.89 1306.38 1455.33 1306.18 1468.16 C 1305.75 1495.5 1307.2 1520.95 1307.53 1547.88 C 1312.72 1557.59 1314.23 1553.63 1317.69 1558.56 C 1320.35 1562.35 1322.06 1568.82 1326.83 1574.17 L 1328.96 1574.75 C 1335.22 1569.27 1331.97 1554.97 1340.99 1557.39 C 1343.39 1558.04 1343.54 1556.77 1345.73 1558.53 L 1336.03 1558.71 C 1336.04 1570.81 1336.11 1582.91 1336.24 1595.01 C 1361.96 1594.36 1389.35 1594.85 1415.17 1594.85 L 1556.74 1594.8 C 1556.93 1569.87 1556.93 1544.94 1556.74 1520.01 C 1549.49 1519.84 1544.18 1517.55 1542.25 1524.82 C 1541.24 1520.83 1543.18 1506.78 1541.57 1498.39 C 1549.23 1498.05 1558.83 1496.79 1566.05 1499.79 C 1569.75 1501.33 1572.31 1504.25 1573.65 1508.01 C 1576.32 1515.56 1575.88 1584.82 1574.98 1596.66 C 1574.73 1600.08 1574.25 1604.96 1572.41 1607.96 C 1569.88 1612.05 1565.22 1613.83 1560.71 1614.85 C 1550.75 1617.1 1539.02 1616.01 1528.84 1615.95 L 1479.22 1615.73 L 1387.22 1615.88 C 1379.21 1615.89 1325.74 1617.44 1321.53 1611.82 C 1314.5 1602.41 1316.25 1572.15 1316.25 1558.87 C 1312.16 1558.92 1311.4 1558.89 1307.41 1558.13 C 1303.51 1553.96 1305.42 1426.65 1305.52 1409.67 z"/>
<path transform="translate(0,0)" fill="rgb(0,0,0)" d="M 1473.5 1304.12 C 1481.45 1304.11 1493.12 1303.11 1499.7 1306.74 C 1503.48 1311.36 1505.08 1316.49 1506.1 1322.33 C 1508.24 1334.64 1508.97 1390.54 1507.43 1404.67 C 1506.97 1408.89 1505.52 1416.33 1501.8 1419.05 C 1493.13 1425.38 1418.3 1422.17 1403.28 1422.05 L 1403.22 1462.17 C 1398.93 1463.55 1377.13 1463.39 1372.07 1462.77 L 1372.03 1364.11 L 1474.05 1364.15 L 1474.04 1326.17 C 1474.07 1318.42 1473.94 1311.85 1473.5 1304.12 z"/>
<path transform="translate(0,0)" fill="rgb(43,94,49)" d="M 1473.5 1304.12 C 1481.45 1304.11 1493.12 1303.11 1499.7 1306.74 C 1503.48 1311.36 1505.08 1316.49 1506.1 1322.33 C 1508.24 1334.64 1508.97 1390.54 1507.43 1404.67 C 1506.97 1408.89 1505.52 1416.33 1501.8 1419.05 C 1493.13 1425.38 1418.3 1422.17 1403.28 1422.05 L 1403.22 1462.17 C 1398.93 1463.55 1377.13 1463.39 1372.07 1462.77 C 1376.33 1462.12 1382.55 1462.24 1387.02 1462.18 C 1386.81 1452.54 1384.22 1414.21 1390.59 1405.94 C 1395.61 1399.43 1423.69 1400.87 1433.57 1400.88 L 1488.56 1400.99 C 1489.2 1376.75 1488.42 1350.78 1488.09 1326.42 L 1474.04 1326.17 C 1474.07 1318.42 1473.94 1311.85 1473.5 1304.12 z"/>
<path transform="translate(0,0)" fill="url(#Gradient8)" d="M 386.117 1075.94 C 441.255 1074.28 497.517 1076.98 552.745 1076 C 563.735 1075.8 576.166 1076.62 586.995 1075.14 C 586.452 1087.83 585.858 1099.27 586.856 1111.96 C 593.609 1111.83 612.222 1109.76 616.64 1115.34 C 623.09 1123.48 621.502 1209.88 617.476 1222.15 C 616.994 1223.62 616.338 1224.63 615.309 1225.77 C 609.315 1228.05 601.19 1229.38 594.717 1229.29 C 547.121 1228.6 498.429 1230.91 450.937 1229.86 L 451.003 1380.49 C 450.999 1406.24 450.23 1437.05 451.337 1462.39 C 495.176 1461.31 542.022 1463.65 585.124 1462.23 C 585.227 1474.38 585.257 1486.52 585.213 1498.67 C 598.627 1498.02 610.656 1494.95 618.748 1507.59 C 620.944 1531.31 619.036 1557.23 619.975 1581.17 C 620.292 1589.25 620.143 1598.07 619.205 1606.08 C 618.552 1610.63 614.249 1612.85 610.805 1614.96 C 593.644 1616.35 569.052 1616.97 551.798 1616.58 C 530.997 1616.91 510.098 1616 489.277 1615.97 C 464.074 1615.93 438.701 1616.7 413.52 1615.99 C 408.037 1615.84 402.26 1615.6 398.53 1610.91 C 392.304 1603.1 395.196 1584.96 395.548 1575.33 C 396.387 1552.33 392.803 1564.11 387.07 1556.25 C 384.992 1553.4 386.061 1546.73 386.246 1543.3 C 386.17 1535.38 385.852 1526.57 386.723 1518.8 C 378.155 1519.37 365.974 1519.43 363.71 1509.37 C 360.893 1496.86 362.541 1476.04 362.715 1463.01 C 358.943 1463.02 356.639 1463.38 353.224 1461.78 C 350.837 1458.9 351.253 1454.64 351.07 1450.71 C 351.747 1446.78 351.556 1430.83 351.567 1426.07 L 351.648 1378.19 L 351.534 1196.88 L 351.933 1170.3 C 363.285 1170.33 374.637 1170.3 385.989 1170.2 L 385.989 1157.84 C 385.343 1131.23 385.816 1102.62 386.117 1075.94 z"/>
<path transform="translate(0,0)" fill="rgb(0,0,0)" d="M 586.856 1111.96 C 593.609 1111.83 612.222 1109.76 616.64 1115.34 C 623.09 1123.48 621.502 1209.88 617.476 1222.15 C 616.994 1223.62 616.338 1224.63 615.309 1225.77 C 609.315 1228.05 601.19 1229.38 594.717 1229.29 C 547.121 1228.6 498.429 1230.91 450.937 1229.86 L 451.003 1380.49 C 450.999 1406.24 450.23 1437.05 451.337 1462.39 C 444.494 1462.79 438.712 1463.19 431.852 1462.92 L 419.135 1462.95 L 418.331 1171.14 L 587.206 1171.3 L 586.899 1142.8 L 587.046 1133.27 L 586.856 1111.96 z"/>
<path transform="translate(0,0)" fill="rgb(43,94,49)" d="M 586.856 1111.96 C 593.609 1111.83 612.222 1109.76 616.64 1115.34 C 623.09 1123.48 621.502 1209.88 617.476 1222.15 C 616.994 1223.62 616.338 1224.63 615.309 1225.77 C 609.315 1228.05 601.19 1229.38 594.717 1229.29 C 547.121 1228.6 498.429 1230.91 450.937 1229.86 L 451.003 1380.49 C 450.999 1406.24 450.23 1437.05 451.337 1462.39 C 444.494 1462.79 438.712 1463.19 431.852 1462.92 C 432.845 1445.99 432.021 1418.69 432.007 1401.24 L 431.887 1283.76 C 431.845 1262.91 431.293 1241.8 432.37 1221.05 C 433.167 1213.73 435.921 1208.8 443.756 1208.46 C 461.329 1207.7 478.958 1207.98 496.505 1207.97 L 601.992 1207.97 L 601.933 1133.24 L 587.046 1133.27 L 586.856 1111.96 z"/>
<path transform="translate(0,0)" fill="rgb(136,192,88)" d="M 386.117 1075.94 C 441.255 1074.28 497.517 1076.98 552.745 1076 C 563.735 1075.8 576.166 1076.62 586.995 1075.14 C 586.452 1087.83 585.858 1099.27 586.856 1111.96 L 587.046 1133.27 L 586.899 1142.8 C 586.457 1145.35 586.238 1145.76 586.487 1148.3 L 584.934 1149.5 C 582.272 1148.07 583.233 1148.73 581.274 1146.16 C 574.395 1147 573.201 1150.92 566.722 1149.67 C 549.688 1146.41 535.574 1148.34 518.512 1148.95 L 468.169 1150.85 C 436.865 1152.13 420.54 1150.39 391.065 1165.08 C 389.819 1161.7 389.326 1160.02 387.392 1156.9 L 385.989 1157.84 C 385.343 1131.23 385.816 1102.62 386.117 1075.94 z"/>
<path transform="translate(0,0)" fill="rgb(43,94,49)" d="M 362.715 1463.01 C 369.255 1463.03 376.321 1462.52 382.896 1462.16 L 385.222 1463.08 C 386.704 1468.87 386.09 1493.53 386.022 1500.97 C 386.526 1504.62 387.966 1515.75 386.723 1518.8 C 378.155 1519.37 365.974 1519.43 363.71 1509.37 C 360.893 1496.86 362.541 1476.04 362.715 1463.01 z"/>
<path transform="translate(0,0)" fill="rgb(0,0,0)" d="M 382.896 1462.16 L 385.222 1463.08 C 386.704 1468.87 386.09 1493.53 386.022 1500.97 C 383.563 1500.28 384.485 1500.67 382.427 1498.87 C 380.091 1492.84 379.133 1466.31 382.896 1462.16 z"/>
<path transform="translate(0,0)" fill="rgb(43,94,49)" d="M 386.246 1543.3 L 387.322 1544.98 C 387.493 1548.38 387.303 1554.2 388.991 1556.79 C 391.831 1557.84 392.665 1557.61 395.688 1557.61 C 406.032 1570.38 386.822 1612 407.242 1613.32 C 423.059 1614.34 547.618 1612.82 551.675 1615.88 L 551.798 1616.58 C 530.997 1616.91 510.098 1616 489.277 1615.97 C 464.074 1615.93 438.701 1616.7 413.52 1615.99 C 408.037 1615.84 402.26 1615.6 398.53 1610.91 C 392.304 1603.1 395.196 1584.96 395.548 1575.33 C 396.387 1552.33 392.803 1564.11 387.07 1556.25 C 384.992 1553.4 386.061 1546.73 386.246 1543.3 z"/>
<path transform="translate(0,0)" fill="rgb(0,0,0)" d="M 587.36 1520.01 L 601.522 1519.82 C 602.338 1544.39 601.952 1570 601.922 1594.65 C 544.78 1595.35 486.09 1594.18 428.557 1594.43 L 413.87 1594.81 C 413.652 1582.6 413.697 1570.39 414.005 1558.19 C 471.678 1558.51 529.353 1558.51 587.026 1558.18 C 586.945 1545.46 587.056 1532.73 587.36 1520.01 z"/>
<path transform="translate(0,0)" fill="url(#Gradient7)" d="M 1573.32 595.999 C 1574.39 605.789 1573.87 621.629 1573.63 631.719 C 1581.83 630.947 1593.15 629.659 1600.14 634.234 C 1603.54 639.236 1604.03 648.49 1604.53 654.465 C 1605.42 665.023 1606.32 730.256 1604.42 738.262 C 1603.78 740.971 1601.64 742.583 1599.29 743.817 C 1587.81 749.85 1521.08 746.895 1502.91 746.946 C 1503.13 760.473 1503.23 774.001 1503.19 787.529 C 1519.64 786.648 1538.46 787.027 1555.08 787.009 L 1640 787.019 C 1639.97 798.313 1639.7 810.796 1640.09 821.987 C 1651.87 821.778 1672.3 819.118 1672.84 836.682 C 1673.74 865.981 1673.36 895.573 1673.09 924.884 C 1672.92 937.319 1665.57 939.002 1654.57 939.877 C 1638.29 940.414 1621.84 940.169 1605.52 940.152 L 1517.57 940.051 C 1486.24 940.017 1453.41 941.271 1422.39 938.601 C 1411.64 937.675 1414.83 892.397 1415 883.343 C 1411.46 882.79 1409.07 883.876 1405.53 881.941 C 1403.45 871.729 1404.26 809.867 1404.44 796.429 C 1405.13 745.167 1404.03 692.785 1405.06 641.681 L 1405.46 643.647 C 1406.83 650.535 1405.14 656.129 1409.11 662.67 L 1409.92 662.916 C 1419.65 641.53 1470.04 647.875 1489.77 647.045 C 1506.34 646.348 1523.37 646.098 1539.94 646.862 C 1549.36 647.552 1561.88 651.841 1569.42 652.14 L 1572.09 654.431 C 1572.63 636.314 1572.03 613.439 1573.32 595.999 z"/>
<path transform="translate(0,0)" fill="rgb(0,0,0)" d="M 1640.09 821.987 C 1651.87 821.778 1672.3 819.118 1672.84 836.682 C 1673.74 865.981 1673.36 895.573 1673.09 924.884 C 1672.92 937.319 1665.57 939.002 1654.57 939.877 C 1638.29 940.414 1621.84 940.169 1605.52 940.152 L 1517.57 940.051 C 1486.24 940.017 1453.41 941.271 1422.39 938.601 C 1411.64 937.675 1414.83 892.397 1415 883.343 C 1421.46 884.153 1427.53 884.731 1434.04 883.551 C 1440.53 882.392 1487.3 883.351 1496.22 883.359 L 1641.19 883.023 C 1641.07 875.561 1640.3 850.84 1641.66 844.793 L 1643.64 843.728 L 1641.85 842.273 C 1640.88 835.586 1640.55 828.737 1640.09 821.987 z"/>
<path transform="translate(0,0)" fill="rgb(43,94,49)" d="M 1640.09 821.987 C 1651.87 821.778 1672.3 819.118 1672.84 836.682 C 1673.74 865.981 1673.36 895.573 1673.09 924.884 C 1672.92 937.319 1665.57 939.002 1654.57 939.877 C 1638.29 940.414 1621.84 940.169 1605.52 940.152 L 1517.57 940.051 C 1486.24 940.017 1453.41 941.271 1422.39 938.601 C 1411.64 937.675 1414.83 892.397 1415 883.343 C 1421.46 884.153 1427.53 884.731 1434.04 883.551 L 1434.02 919.565 C 1506.76 917.764 1582.6 919.749 1655.7 919.296 C 1655.21 894.87 1655.67 869.074 1655.45 844.412 C 1650.91 844.437 1648.18 844.191 1643.64 843.728 L 1641.85 842.273 C 1640.88 835.586 1640.55 828.737 1640.09 821.987 z"/>
<path transform="translate(0,0)" fill="rgb(0,0,0)" d="M 1573.32 595.999 C 1574.39 605.789 1573.87 621.629 1573.63 631.719 C 1581.83 630.947 1593.15 629.659 1600.14 634.234 C 1603.54 639.236 1604.03 648.49 1604.53 654.465 C 1605.42 665.023 1606.32 730.256 1604.42 738.262 C 1603.78 740.971 1601.64 742.583 1599.29 743.817 C 1587.81 749.85 1521.08 746.895 1502.91 746.946 C 1503.13 760.473 1503.23 774.001 1503.19 787.529 C 1492.83 787.01 1481.53 789.254 1471.01 787.745 C 1471.42 755.435 1471.08 722.6 1471.02 690.252 L 1572.5 690.24 C 1571.33 683.438 1571.98 662.089 1572.09 654.431 C 1572.63 636.314 1572.03 613.439 1573.32 595.999 z"/>
<path transform="translate(0,0)" fill="rgb(43,94,49)" d="M 1573.32 595.999 C 1574.39 605.789 1573.87 621.629 1573.63 631.719 C 1581.83 630.947 1593.15 629.659 1600.14 634.234 C 1603.54 639.236 1604.03 648.49 1604.53 654.465 C 1605.42 665.023 1606.32 730.256 1604.42 738.262 C 1603.78 740.971 1601.64 742.583 1599.29 743.817 C 1587.81 749.85 1521.08 746.895 1502.91 746.946 C 1503.13 760.473 1503.23 774.001 1503.19 787.529 C 1492.83 787.01 1481.53 789.254 1471.01 787.745 C 1475.05 787.179 1479.99 787.35 1484.14 787.355 C 1483.91 772.759 1480.13 741.993 1489.95 730.66 C 1495.48 724.278 1518.67 726.255 1528.08 726.269 L 1586.71 726.414 L 1585.93 653.652 L 1573.01 653.91 C 1573.03 662.705 1573.5 682.364 1572.5 690.24 C 1571.33 683.438 1571.98 662.089 1572.09 654.431 C 1572.63 636.314 1572.03 613.439 1573.32 595.999 z"/>
<path transform="translate(0,0)" fill="url(#Gradient6)" d="M 690.769 408.236 C 710.387 407.503 735.009 408.236 754.968 408.279 C 800.558 408.508 846.149 408.438 891.739 408.071 C 891.393 419.286 891.847 432.893 891.935 444.275 C 901.574 444.003 906.453 443.74 916.038 445.694 C 919.548 448.879 921.046 450.228 923.932 453.944 C 923.956 465.623 922.718 492.46 926.521 501.67 C 927.483 506.998 927.252 510.334 927.186 515.696 C 927.851 523.373 927.737 530.544 927.721 538.248 L 946.82 538.349 C 949.581 539.862 956.457 543.103 956.618 546.761 C 957.904 576.046 957.017 605.66 956.988 634.988 C 956.966 657.122 940.969 653.045 923.999 653.11 C 923.892 661.366 923.236 681.893 924.596 689.311 C 918.682 689.858 901.997 690.423 895.953 689.852 L 893.259 689.52 C 891.098 686.06 891.929 652.56 891.893 645.614 L 890.633 646.035 L 890.287 648.041 C 889.867 650.606 889.891 650.88 890.393 653.517 L 889.3 655.06 C 880.003 653.576 867.655 647.287 859.482 646.545 C 836.862 644.491 812.67 648.237 790.175 648.284 C 765.922 648.335 741.461 643.778 717.013 646.844 C 709.926 647.733 701.751 654.725 694.762 652.302 L 692.257 645.612 L 691.551 645.673 C 691.176 648.421 691.135 650.896 690.474 653.584 L 690.455 501.805 C 690.388 471.639 689.587 438.163 690.769 408.236 z M 789.735 595.541 C 811.407 594.767 836.51 594.868 858.176 595.197 L 858.83 559.349 C 838.564 559.238 809.427 558.415 789.878 560.001 C 790.132 574.71 791.916 580.382 789.735 595.541 z"/>
<path transform="translate(0,0)" fill="rgb(43,94,49)" d="M 927.186 515.696 C 927.851 523.373 927.737 530.544 927.721 538.248 L 946.82 538.349 C 949.581 539.862 956.457 543.103 956.618 546.761 C 957.904 576.046 957.017 605.66 956.988 634.988 C 956.966 657.122 940.969 653.045 923.999 653.11 C 923.892 661.366 923.236 681.893 924.596 689.311 C 918.682 689.858 901.997 690.423 895.953 689.852 L 893.259 689.52 C 891.098 686.06 891.929 652.56 891.893 645.614 C 892.446 629.951 892.002 611.835 891.991 595.986 L 926.112 595.932 L 926.093 559.047 C 925.802 545.939 926.666 529.046 927.186 515.696 z"/>
<path transform="translate(0,0)" fill="rgb(0,0,0)" d="M 926.093 559.047 C 930.725 558.905 935.358 558.84 939.992 558.851 L 939.955 632.626 C 928.609 632.262 912.474 629.881 905.87 642.712 C 900.06 653.999 909.062 679.878 904.01 688.48 C 901.212 689.745 899.014 689.643 895.953 689.852 L 893.259 689.52 C 891.098 686.06 891.929 652.56 891.893 645.614 C 892.446 629.951 892.002 611.835 891.991 595.986 L 926.112 595.932 L 926.093 559.047 z"/>
<path transform="translate(0,0)" fill="rgb(43,94,49)" d="M 891.935 444.275 C 901.574 444.003 906.453 443.74 916.038 445.694 C 919.548 448.879 921.046 450.228 923.932 453.944 C 923.956 465.623 922.718 492.46 926.521 501.67 C 917.589 501.992 900.642 502.304 892.101 501.567 L 892.094 465.874 L 891.935 444.275 z"/>
<path transform="translate(0,0)" fill="rgb(0,0,0)" d="M 892.094 465.874 C 895.664 464.347 901.782 464.909 905.915 464.975 L 905.971 500.862 C 901.722 500.954 896.179 500.889 892.101 501.567 L 892.094 465.874 z"/>
<path transform="translate(0,0)" fill="rgb(0,0,0)" d="M 758.04 501.997 L 858.813 501.997 L 858.925 537.868 C 858.904 544.776 859.058 552.517 858.83 559.349 C 838.564 559.238 809.427 558.415 789.878 560.001 C 790.132 574.71 791.916 580.382 789.735 595.541 C 780.057 595.026 767.679 597.118 758.019 595.671 L 758.04 501.997 z"/>
<path transform="translate(0,0)" fill="rgb(43,94,49)" d="M 858.925 537.868 C 858.904 544.776 859.058 552.517 858.83 559.349 C 838.564 559.238 809.427 558.415 789.878 560.001 C 790.132 574.71 791.916 580.382 789.735 595.541 C 780.057 595.026 767.679 597.118 758.019 595.671 C 762.158 595.146 767.724 595.219 772.014 595.129 C 771.879 582.184 770.122 554.797 774.999 543.768 C 784.126 535.187 842.69 538.031 858.925 537.868 z"/>
<path transform="translate(0,0)" fill="url(#Gradient5)" d="M 72.1222 408.147 C 79.1065 407.828 86.381 408.124 93.3941 408.073 C 165.924 407.552 238.603 408.972 311.118 408.281 C 311.094 417.313 310.595 433.905 311.477 442.391 C 326.37 442.555 334.251 440.608 345.035 452.514 C 345.073 467.104 346.995 547.917 342.286 555.41 C 332.114 561.291 306.047 559.543 293.164 559.506 L 216.387 559.34 C 204.253 559.347 185.733 558.864 173.95 560.054 C 174.012 571.425 174.276 583.573 174.053 594.883 C 197.04 593.668 219.95 594.892 243.03 593.901 C 243.23 605.789 243.747 619.065 243.254 630.841 C 243.159 635.87 243.231 649.935 242.587 654.304 C 241.375 658.424 241.354 660.23 241.262 664.567 L 239.873 662.532 C 233.588 662.205 232.895 659.213 228.826 657.675 C 222.431 655.257 207.364 654.087 199.949 653.927 C 172.857 653.344 146.106 651.758 118.934 653.109 C 103.635 653.87 97.6749 647.239 81.7144 653.42 C 76.8786 652.175 75.6192 642.965 74.5039 638.467 C 74.3825 647.3 74.5482 661.981 73.2217 670.284 C 72.8106 657.936 73.2648 645.392 73.0389 633.021 C 71.6749 558.352 74.3146 482.709 72.1222 408.147 z"/>
<path transform="translate(0,0)" fill="rgb(0,0,0)" d="M 311.477 442.391 C 326.37 442.555 334.251 440.608 345.035 452.514 C 345.073 467.104 346.995 547.917 342.286 555.41 C 332.114 561.291 306.047 559.543 293.164 559.506 L 216.387 559.34 C 204.253 559.347 185.733 558.864 173.95 560.054 C 174.012 571.425 174.276 583.573 174.053 594.883 C 168.332 596.3 147.059 596.183 141.029 595.513 L 140.993 502.017 L 253.853 502.007 C 269.047 502.021 297.429 503.007 310.984 501.784 L 312.203 500.239 C 311.248 481.867 313.216 459.896 311.477 442.391 z"/>
<path transform="translate(0,0)" fill="rgb(43,94,49)" d="M 311.477 442.391 C 326.37 442.555 334.251 440.608 345.035 452.514 C 345.073 467.104 346.995 547.917 342.286 555.41 C 332.114 561.291 306.047 559.543 293.164 559.506 L 216.387 559.34 C 204.253 559.347 185.733 558.864 173.95 560.054 C 174.012 571.425 174.276 583.573 174.053 594.883 C 168.332 596.3 147.059 596.183 141.029 595.513 C 145.297 594.883 151.496 595.044 155.962 595.015 C 155.846 583.067 154.236 553.338 158.526 543.564 C 167.101 535.852 214.658 537.966 228.933 537.974 L 327.038 538.156 C 327 514.072 327.084 489.988 327.289 465.905 L 312.744 465.388 C 312.764 475.978 313.176 489.953 312.203 500.239 C 311.248 481.867 313.216 459.896 311.477 442.391 z"/>
<path transform="translate(0,0)" fill="url(#Gradient4)" d="M 1404.64 408.241 C 1424.54 410.145 1471.1 408.938 1493.35 408.763 C 1541.32 408.385 1592.62 410.079 1640.19 408.604 C 1640.45 420.373 1640.13 432.334 1639.95 444.118 C 1656.15 443.81 1663.72 439.963 1672.91 454.531 C 1673.07 469.505 1675.82 548.517 1670.25 554.7 C 1664.7 560.859 1652.13 559.23 1644.54 559.227 L 1551.18 559.104 C 1539.38 559.09 1513.4 558.435 1502.09 559.741 C 1502.5 571.79 1502.61 583.847 1502.42 595.9 C 1524.57 596.032 1551.78 595.163 1573.32 595.999 C 1572.03 613.439 1572.63 636.314 1572.09 654.431 L 1569.42 652.14 C 1561.88 651.841 1549.36 647.552 1539.94 646.862 C 1523.37 646.098 1506.34 646.348 1489.77 647.045 C 1470.04 647.875 1419.65 641.53 1409.92 662.916 L 1409.11 662.67 C 1405.14 656.129 1406.83 650.535 1405.46 643.647 L 1405.06 641.681 C 1404.36 634.873 1404.81 620.196 1404.86 612.765 L 1404.99 563.435 C 1404.9 512.152 1403.92 459.337 1404.64 408.241 z"/>
<path transform="translate(0,0)" fill="rgb(0,0,0)" d="M 1639.95 444.118 C 1656.15 443.81 1663.72 439.963 1672.91 454.531 C 1673.07 469.505 1675.82 548.517 1670.25 554.7 C 1664.7 560.859 1652.13 559.23 1644.54 559.227 L 1551.18 559.104 C 1539.38 559.09 1513.4 558.435 1502.09 559.741 C 1502.5 571.79 1502.61 583.847 1502.42 595.9 C 1492.16 595.622 1481.26 596.877 1470.95 595.782 L 1471.16 502.037 L 1641 501.997 C 1641.02 490.237 1640.91 478.477 1640.66 466.72 C 1639.9 461.951 1640.02 449.537 1639.95 444.118 z"/>
<path transform="translate(0,0)" fill="rgb(43,94,49)" d="M 1639.95 444.118 C 1656.15 443.81 1663.72 439.963 1672.91 454.531 C 1673.07 469.505 1675.82 548.517 1670.25 554.7 C 1664.7 560.859 1652.13 559.23 1644.54 559.227 L 1551.18 559.104 C 1539.38 559.09 1513.4 558.435 1502.09 559.741 C 1502.5 571.79 1502.61 583.847 1502.42 595.9 C 1492.16 595.622 1481.26 596.877 1470.95 595.782 C 1474.54 595.237 1480.82 595.391 1484.66 595.366 C 1484.17 585.037 1481.1 545.721 1490.4 541.827 C 1505.17 535.644 1538.6 538.358 1555.07 538.459 C 1588.64 538.7 1622.22 538.588 1655.79 538.123 L 1655.76 465.974 C 1651.16 465.914 1644.85 465.423 1640.66 466.72 C 1639.9 461.951 1640.02 449.537 1639.95 444.118 z"/>
<path transform="translate(0,0)" fill="url(#Gradient3)" d="M 243.254 630.841 C 250.052 630.804 268.046 629.128 272.454 634.666 C 277.355 640.821 276.737 729.849 273.44 739.901 C 272.703 742.148 271.949 743.831 270.099 745.383 C 260.887 747.994 187.716 747.098 173.317 747.107 C 173.937 763.444 174.665 927.611 171.737 933.849 C 163.29 942.296 147.809 940.096 136.766 940.486 C 73.1694 942.728 86.9123 934.903 85.9244 883.417 C 83.0157 882.82 76.3737 882.844 73.1308 882.762 C 75.5386 814.755 72.3517 739.225 73.2217 670.284 C 74.5482 661.981 74.3825 647.3 74.5039 638.467 C 75.6192 642.965 76.8786 652.175 81.7144 653.42 C 97.6749 647.239 103.635 653.87 118.934 653.109 C 146.106 651.758 172.857 653.344 199.949 653.927 C 207.364 654.087 222.431 655.257 228.826 657.675 C 232.895 659.213 233.588 662.205 239.873 662.532 L 241.262 664.567 C 241.354 660.23 241.375 658.424 242.587 654.304 C 243.231 649.935 243.159 635.87 243.254 630.841 z"/>
<path transform="translate(0,0)" fill="rgb(43,94,49)" d="M 243.254 630.841 C 250.052 630.804 268.046 629.128 272.454 634.666 C 277.355 640.821 276.737 729.849 273.44 739.901 C 272.703 742.148 271.949 743.831 270.099 745.383 C 260.887 747.994 187.716 747.098 173.317 747.107 C 173.937 763.444 174.665 927.611 171.737 933.849 C 163.29 942.296 147.809 940.096 136.766 940.486 C 73.1694 942.728 86.9123 934.903 85.9244 883.417 C 92.3135 884.181 97.5873 884.464 104.029 883.529 C 108.892 882.474 134.65 882.884 140.922 882.897 L 140.807 690.168 L 243.06 690.022 C 243.12 680.564 243.66 663.014 242.587 654.304 C 243.231 649.935 243.159 635.87 243.254 630.841 z"/>
<path transform="translate(0,0)" fill="rgb(0,0,0)" d="M 242.587 654.304 C 247.797 654.112 253.008 653.99 258.221 653.939 C 258.746 678.534 258.539 701.469 258.245 726.03 C 243.404 726.274 166.143 723.878 160.103 729.308 C 153.825 742.025 155.936 787.378 155.943 803.659 L 156.027 919.387 L 103.98 919.393 L 104.029 883.529 C 108.892 882.474 134.65 882.884 140.922 882.897 L 140.807 690.168 L 243.06 690.022 C 243.12 680.564 243.66 663.014 242.587 654.304 z"/>
<path transform="translate(0,0)" fill="url(#Gradient2)" d="M 690.474 653.584 C 691.135 650.896 691.176 648.421 691.551 645.673 L 692.257 645.612 L 694.762 652.302 C 701.751 654.725 709.926 647.733 717.013 646.844 C 741.461 643.778 765.922 648.335 790.175 648.284 C 812.67 648.237 836.862 644.491 859.482 646.545 C 867.655 647.287 880.003 653.576 889.3 655.06 L 890.393 653.517 C 889.891 650.88 889.867 650.606 890.287 648.041 L 890.633 646.035 C 890.677 652.948 891.296 676.983 889.958 682.281 L 888.801 682.658 L 886.792 680.902 C 877.628 687.048 874.369 701.441 860.935 689.537 C 859.256 692.599 860.196 699.243 859.072 705.283 C 859.037 711.896 858.822 719.492 859.123 726.011 C 859.216 740.071 859.888 763.978 858.821 777.48 C 857.225 770.758 857.562 755.758 856.619 747.332 C 834.457 747.073 812.293 746.948 790.129 746.957 C 790.646 766.991 792.314 929.345 786.47 935.208 C 778.501 943.202 738.636 941.578 726.978 940.839 C 721.287 940.479 708.336 939.549 704.673 934.992 C 698.71 927.573 702.293 893.398 702.926 883.124 C 699.523 882.594 695.07 882.612 691.537 882.493 C 689.945 860.77 690.816 827.563 690.734 805.192 L 690.474 653.584 z"/>
<path transform="translate(0,0)" fill="rgb(0,0,0)" d="M 758 690.297 L 858.975 690.045 L 859.072 705.283 C 859.037 711.896 858.822 719.492 859.123 726.011 C 859.216 740.071 859.888 763.978 858.821 777.48 C 857.225 770.758 857.562 755.758 856.619 747.332 C 834.457 747.073 812.293 746.948 790.129 746.957 C 790.646 766.991 792.314 929.345 786.47 935.208 C 778.501 943.202 738.636 941.578 726.978 940.839 C 721.287 940.479 708.336 939.549 704.673 934.992 C 698.71 927.573 702.293 893.398 702.926 883.124 C 710.574 883.852 713.716 883.63 721.427 883.092 C 731.654 882.479 747.237 882.883 757.883 882.812 L 758 690.297 z"/>
<path transform="translate(0,0)" fill="rgb(43,94,49)" d="M 775.769 728.352 C 797.995 724.797 835.593 725.95 859.123 726.011 C 859.216 740.071 859.888 763.978 858.821 777.48 C 857.225 770.758 857.562 755.758 856.619 747.332 C 834.457 747.073 812.293 746.948 790.129 746.957 C 790.646 766.991 792.314 929.345 786.47 935.208 C 778.501 943.202 738.636 941.578 726.978 940.839 C 721.287 940.479 708.336 939.549 704.673 934.992 C 698.71 927.573 702.293 893.398 702.926 883.124 C 710.574 883.852 713.716 883.63 721.427 883.092 L 721.029 919.54 C 737.699 919.829 755.249 919.457 771.983 919.358 C 771.7 883.826 771.679 848.292 771.92 812.76 C 771.903 790.968 769.658 746.953 775.769 728.352 z"/>
<path transform="translate(0,0)" fill="url(#Gradient1)" d="M 890.633 646.035 L 891.893 645.614 C 891.929 652.56 891.098 686.06 893.259 689.52 L 895.953 689.852 C 901.997 690.423 918.682 689.858 924.596 689.311 C 926.733 696.863 926.12 716.088 926.04 725.104 C 940.683 725.06 946.913 722.148 956.827 733.927 C 958.273 775.601 956.483 819.901 957.259 861.864 C 957.552 877.722 959.147 919.743 956.796 933.111 C 948.36 941.508 938.84 940.062 927.583 940.15 C 909.066 940.294 890.738 942.217 873.245 935.592 C 862.233 919.352 872.307 886.644 867.337 882.999 C 862.75 882.58 862.793 883.312 859.63 881.017 C 858.459 876.386 858.951 855.246 858.903 849.337 C 858.711 825.513 859.528 801.282 858.821 777.48 C 859.888 763.978 859.216 740.071 859.123 726.011 C 858.822 719.492 859.037 711.896 859.072 705.283 C 860.196 699.243 859.256 692.599 860.935 689.537 C 874.369 701.441 877.628 687.048 886.792 680.902 L 888.801 682.658 L 889.958 682.281 C 891.296 676.983 890.677 652.948 890.633 646.035 z"/>
<path transform="translate(0,0)" fill="rgb(0,0,0)" d="M 926.371 747.847 L 940.12 747.63 L 939.89 919.603 C 926.35 919.097 912.342 919.338 898.75 919.399 L 888.086 919.664 L 888.2 883.077 L 926.289 882.979 C 927.994 841.884 926.442 789.806 926.371 747.847 z"/>
</svg>