<svg version="1.1" xmlns="http://www.w3.org/2000/svg" style="display: block;" viewBox="0 0 2048 2048" width="1024" height="1024" preserveAspectRatio="none">
<path transform="translate(0,0)" fill="rgb(51,142,72)" d="M 1373.72 512.684 L 1375.28 513.249 C 1377.44 522.422 1378.21 544.964 1378.54 554.989 C 1381.28 637.554 1369.39 724.057 1325.32 795.433 C 1265.52 892.283 1163.56 923.835 1055.79 923.017 C 1005.17 1007 1010.63 1047.31 1010.75 1140.92 L 1010.45 1288.82 C 1003.94 1288.79 999.093 1288.74 992.608 1289.42 C 990.473 1299.94 989.757 1307.79 986.33 1318.12 C 982.308 1319.36 977.231 1321.09 973.214 1321.96 C 972.855 1259.98 972.812 1198 973.087 1136.01 C 973.056 1110.79 974.038 1076.33 972.423 1052.21 L 973.232 1052.99 C 977.179 1049.65 977.392 1037.95 978.525 1032.38 C 981.581 1016.82 985.301 1001.39 989.675 986.145 C 1008.69 930.661 1044.6 875.206 1080.97 829.346 L 1094.12 812.689 C 1122.25 778.032 1151.39 744.2 1181.49 711.234 C 1193.08 698.622 1222.16 669.258 1231.5 657.103 C 1238.51 651.031 1250.01 638.518 1256.88 631.541 L 1300.88 587.32 L 1344.24 543.673 C 1350.8 537.148 1369.44 519.483 1373.72 512.684 z"/>
<path transform="translate(0,0)" fill="rgb(124,190,77)" d="M 1255.8 782.798 C 1254.47 772.779 1254.31 769.594 1260.28 760.732 C 1271.21 744.485 1294.88 754.87 1296.68 771.822 C 1299.63 799.577 1273.43 791.26 1268.35 794.544 C 1258.43 800.959 1241.28 820.979 1231.41 830.093 L 1111.68 830.014 L 1123.11 814.223 C 1156.39 813.452 1191.18 813.928 1224.57 813.992 C 1234.61 805.378 1245.61 792.492 1255.8 782.798 z"/>
<path transform="translate(0,0)" fill="rgb(80,160,73)" d="M 1094.12 812.689 C 1099.74 816.3 1115.93 814.65 1123.11 814.223 L 1111.68 830.014 C 1103.26 830.232 1088.87 830.791 1080.97 829.346 L 1094.12 812.689 z"/>
<path transform="translate(0,0)" fill="rgb(124,190,77)" d="M 1295.07 651.183 C 1303.28 650.747 1310.44 652.425 1315.73 659.242 C 1319.35 663.981 1320.81 670.03 1319.74 675.899 C 1317.02 691.438 1303.99 693.963 1290.76 691.736 C 1276.68 705.993 1261.92 721.318 1247.41 735.017 L 1215.75 735.025 L 1189.71 735.18 C 1194.64 729.304 1198.56 724.598 1204 719.223 C 1216.47 719.02 1228.95 718.953 1241.43 719.022 L 1279.39 680.334 C 1277.55 664.695 1280.44 657.59 1295.07 651.183 z"/>
<path transform="translate(0,0)" fill="rgb(80,160,73)" d="M 1006.09 888.393 C 998.813 851.719 994.786 821.98 996.217 785.004 C 1002.86 613.161 1165.98 539.796 1313.58 518.811 C 1330.89 516.35 1356.24 511.844 1373.72 512.684 C 1369.44 519.483 1350.8 537.148 1344.24 543.673 L 1300.88 587.32 L 1256.88 631.541 C 1250.01 638.518 1238.51 651.031 1231.5 657.103 C 1217.34 666.522 1181.42 697.069 1167.98 709.346 L 1153.68 722.34 C 1125.28 748.893 1093.2 779.436 1068.28 809.267 C 1063.92 814.287 1056.99 822.742 1052.41 827.125 C 1050.87 830.055 1039.63 843.816 1037.02 847.166 C 1026.53 860.77 1016.22 874.514 1006.09 888.393 z"/>
<path transform="translate(0,0)" fill="rgb(124,190,77)" d="M 1085 655.159 C 1096.61 629.17 1122.52 632.223 1126.59 660.206 C 1127.2 664.461 1123.7 671.154 1120.23 673.924 C 1112.98 679.71 1106.36 679.247 1097.76 678.175 C 1088.78 686.215 1076.85 699.283 1067.93 708.274 C 1067.82 741.939 1067.94 775.604 1068.28 809.267 C 1063.92 814.287 1056.99 822.742 1052.41 827.125 C 1051.41 820.357 1051.87 793.751 1051.88 785.893 L 1051.98 702.206 C 1059.65 692.853 1077.25 676.338 1086.63 666.627 L 1085 655.159 z"/>
<path transform="translate(0,0)" fill="rgb(124,190,77)" d="M 1191.48 615.525 C 1191.26 613.568 1191.07 611.606 1190.92 609.642 C 1189.28 586.449 1214.07 578.581 1226.26 592.92 C 1230.26 597.599 1232.16 603.713 1231.52 609.831 C 1229.73 625.976 1216.03 628.588 1202.65 626.836 L 1168.04 661.712 C 1167.49 676.679 1167.95 694.188 1167.98 709.346 L 1153.68 722.34 C 1150.37 715.989 1151.95 664.813 1152.03 655.083 C 1165.1 641.803 1178.55 628.981 1191.48 615.525 z"/>
<path transform="translate(0,0)" fill="rgb(124,190,77)" d="M 729.85 745.12 C 744.813 744.15 759.552 742.95 774.549 742.963 C 888.989 743.064 969.31 792.93 969.004 914.715 C 932.154 875.752 885.988 840.128 834.9 823.214 C 876.167 847.154 936.919 906.119 965.251 945.454 C 974.302 958.02 982.052 972.559 989.675 986.145 C 985.301 1001.39 981.581 1016.82 978.525 1032.38 C 977.392 1037.95 977.179 1049.65 973.232 1052.99 L 972.423 1052.21 C 970.564 1005.19 958.712 982.12 930.84 945.824 C 793.714 959.678 742.538 867.663 729.85 745.12 z"/>
<path transform="translate(0,0)" fill="rgb(82,85,157)" d="M 1006.63 1305.27 C 1011.78 1304.82 1018.1 1304.85 1023.35 1304.73 L 1039.97 1304.98 C 1050.96 1339.55 1046.02 1322.95 1073.01 1339.19 C 1079.17 1334.55 1087.06 1330.69 1093.96 1327.03 C 1100.24 1332.2 1113.46 1343.98 1117.61 1350.83 C 1113.3 1357.77 1108.7 1364.94 1104.8 1372.09 C 1108.56 1380.09 1113.02 1389.3 1115.49 1397.77 C 1123.86 1398.95 1132.54 1399.91 1140.46 1402.99 C 1140.77 1414.79 1141.16 1426.11 1139.97 1437.92 C 1131.43 1439.86 1123.31 1441.59 1114.96 1444.28 C 1112.02 1454.14 1110.47 1458.47 1104.98 1467.44 C 1109.55 1474.64 1114.67 1482.28 1118.42 1489.87 C 1110.36 1498.08 1102.2 1506.2 1093.95 1514.21 L 1072.08 1500.96 C 1062.33 1505.63 1057.58 1507.52 1047.32 1510.75 C 1045.49 1518.65 1043.49 1526.81 1041.88 1534.74 L 1024.26 1535.07 C 1018.62 1535.19 1012.47 1535.03 1006.79 1534.98 C 1004.71 1528.03 1002.87 1518.9 1001.2 1511.7 C 991.738 1508.52 984.663 1505.77 975.795 1501.32 C 969.529 1504.43 961.3 1509.93 954.388 1513.65 C 946.102 1505.82 937.954 1497.85 929.946 1489.74 C 933.939 1481.53 939.533 1474.86 943.756 1466.36 C 937.98 1458.17 936.449 1453.57 933.497 1444.29 C 925.845 1441.57 917.083 1439.69 909.121 1437.78 C 908.204 1427.03 908.478 1413.45 908.84 1402.69 C 917.155 1400.64 925.078 1399.49 933.2 1396.56 C 936.455 1387.77 938.838 1381.06 943.237 1372.68 L 930.83 1349.93 C 936.311 1343.28 947.824 1331.94 954.692 1327.17 C 962.868 1330.96 967.533 1334.21 974.833 1339.41 C 985.365 1333.76 989.595 1331.96 1001.18 1329.13 C 1002.85 1320.4 1004.27 1313.82 1006.63 1305.27 z M 1024.07 1480.28 C 1057.45 1480.28 1084.42 1453.06 1084.12 1419.68 C 1083.81 1386.3 1056.35 1359.58 1022.97 1360.19 C 990.024 1360.79 963.715 1387.82 964.015 1420.78 C 964.315 1453.73 991.113 1480.28 1024.07 1480.28 z"/>
<path transform="translate(0,0)" fill="rgb(51,142,72)" d="M 1018.92 1386.52 C 1031.08 1384.59 1043.34 1389.37 1050.98 1399.02 C 1058.63 1408.67 1060.48 1421.7 1055.82 1433.09 C 1051.15 1444.49 1040.71 1452.49 1028.49 1454.02 C 1010.02 1456.32 993.12 1443.4 990.507 1424.97 C 987.894 1406.55 1000.54 1389.43 1018.92 1386.52 z"/>
<path transform="translate(0,0)" fill="rgb(34,122,185)" d="M 1006.63 1305.27 C 1011.78 1304.82 1018.1 1304.85 1023.35 1304.73 C 1023.43 1314.37 1024.53 1353.04 1022.97 1360.19 C 990.024 1360.79 963.715 1387.82 964.015 1420.78 C 964.315 1453.73 991.113 1480.28 1024.07 1480.28 C 1024.05 1497.58 1023.54 1517.92 1024.26 1535.07 C 1018.62 1535.19 1012.47 1535.03 1006.79 1534.98 C 1004.71 1528.03 1002.87 1518.9 1001.2 1511.7 C 991.738 1508.52 984.663 1505.77 975.795 1501.32 C 969.529 1504.43 961.3 1509.93 954.388 1513.65 C 946.102 1505.82 937.954 1497.85 929.946 1489.74 C 933.939 1481.53 939.533 1474.86 943.756 1466.36 C 937.98 1458.17 936.449 1453.57 933.497 1444.29 C 925.845 1441.57 917.083 1439.69 909.121 1437.78 C 908.204 1427.03 908.478 1413.45 908.84 1402.69 C 917.155 1400.64 925.078 1399.49 933.2 1396.56 C 936.455 1387.77 938.838 1381.06 943.237 1372.68 L 930.83 1349.93 C 936.311 1343.28 947.824 1331.94 954.692 1327.17 C 962.868 1330.96 967.533 1334.21 974.833 1339.41 C 985.365 1333.76 989.595 1331.96 1001.18 1329.13 C 1002.85 1320.4 1004.27 1313.82 1006.63 1305.27 z"/>
<path transform="translate(0,0)" fill="rgb(34,122,185)" d="M 874.066 1021.02 C 879.044 1020.85 885.256 1021.28 887.618 1026.22 C 892.801 1037.06 890.415 1056.98 890.264 1068.87 C 909.037 1067.97 937.79 1068.38 956.791 1068.91 L 956.679 1095.08 L 891.97 1095.14 C 881.605 1095.15 870.116 1094.41 859.863 1095.67 C 840.719 1098.01 839.236 1108.99 839.276 1125.44 C 839.413 1182.34 839.184 1239.26 839.072 1296.17 L 839.034 1354.43 C 839.084 1408.4 836.791 1410.17 891.535 1409.29 C 891.779 1421.31 893.81 1473.03 887.827 1480.22 C 885.814 1482.64 883.071 1483.65 880.013 1483.97 C 876.188 1484.37 872.947 1483.66 869.966 1481.06 C 861.551 1473.71 865.1 1447.22 865.002 1436.28 C 848.379 1434.34 839.636 1433.91 826.722 1422.48 C 812.01 1407.54 813.004 1392.12 812.91 1372.98 C 802.349 1373.17 756.47 1378.93 768.079 1354.77 C 773.042 1344.44 802.126 1347.49 812.943 1347.63 L 812.901 1301.21 C 805.374 1301.18 773.742 1303.74 769.758 1297.13 C 753.076 1269.47 798.922 1275.55 813.251 1275.72 L 812.782 1229.84 C 805.329 1229.19 777.199 1230.98 771.787 1226.63 C 760.264 1217.36 767.61 1202.62 783.343 1202.92 C 791.474 1203.07 803.611 1203.03 812.918 1203.11 L 812.833 1157.18 C 805.109 1156.94 774.516 1159.12 770.552 1152.89 C 753.123 1125.46 798.725 1130.82 812.971 1130.95 C 813.365 1090.84 821.222 1070.9 865.733 1068.67 C 866.222 1057.76 864.992 1046.67 865.881 1035.96 C 866.549 1027.91 868.107 1025.6 874.066 1021.02 z"/>
<path transform="translate(0,0)" fill="rgb(34,122,185)" d="M 859.909 1113.16 C 873.617 1112.64 889.138 1112.97 902.979 1112.97 L 903.312 1194.98 L 900.506 1197.02 C 892.827 1202.58 886.104 1210.55 888.359 1220.44 C 894.868 1248.98 938.347 1242.96 931.076 1211.7 C 929.192 1203.6 923.453 1199.81 916.786 1195.75 C 915.777 1170.81 916.132 1138.14 916.431 1113.01 L 956.722 1113.13 C 956.877 1118.73 956.632 1124.33 956.542 1129.93 C 955.618 1187.08 956.444 1244.29 956.061 1301.44 C 955.991 1311.91 953.733 1305.38 949.453 1308.93 C 944.537 1313.02 934.022 1323.48 930.352 1327.03 C 922.874 1334.17 916.819 1340.42 909.794 1347.92 C 913.209 1353.68 924.629 1369.95 923.83 1375.06 C 920.869 1393.97 870.424 1391.19 858.241 1390.79 C 857.051 1380.56 857.714 1367.35 857.569 1356.81 C 857.274 1335.24 857.796 1313.44 856.931 1291.88 C 866.021 1291.71 873.806 1291.74 882.885 1292.1 C 888.021 1299.55 894.123 1306.86 904.157 1306.81 C 917.11 1306.75 927.744 1297.68 927.272 1284.2 C 927.077 1277.58 924.069 1271.36 919.004 1267.1 C 914.524 1263.36 908.672 1261.69 902.892 1262.49 C 892.955 1263.91 888.994 1269.57 883.377 1276.7 C 875.12 1277.06 865.811 1276.95 857.465 1277.05 C 855.159 1225.07 858.626 1170.09 858.05 1117.84 C 858.031 1116.2 859.049 1114.48 859.909 1113.16 z"/>
<path transform="translate(0,0)" fill="rgb(82,85,157)" d="M 1054.3 1021.02 C 1067.6 1020.6 1070.51 1029 1070.32 1040.76 C 1070.17 1050.07 1070 1059.39 1069.93 1068.69 C 1085.3 1068.39 1100.67 1068.42 1116.03 1068.78 C 1116.17 1061.17 1113.64 1028.8 1119.05 1025.16 C 1146.9 1006.41 1141.16 1055.06 1140.6 1068.67 C 1184.26 1068.58 1193.44 1092.67 1193.18 1131.01 C 1202.7 1130.91 1230.97 1129.01 1234.83 1133.89 C 1258.41 1163.7 1199.41 1157.17 1193.13 1157.16 C 1193.07 1172.58 1193.15 1188 1193.36 1203.41 C 1202.62 1203.21 1230.62 1200.72 1235.02 1206.5 C 1257.11 1235.53 1200.1 1229.16 1193.07 1229.15 C 1192.85 1244.68 1193 1260.53 1192.99 1276.09 C 1201.34 1275.89 1231.62 1273.48 1235.65 1279.57 C 1254.04 1307.35 1204.49 1301 1193.09 1301.07 L 1193.02 1330.81 L 1193.02 1347.83 C 1202.62 1347.34 1230.09 1344.87 1234.5 1350.52 C 1257.62 1380.1 1199.92 1373.25 1193.33 1373.17 C 1194.07 1405.27 1191.22 1423.35 1157.04 1435.31 C 1156.93 1426.13 1156.89 1416.94 1156.92 1407.76 C 1162.68 1401.9 1166.42 1398.35 1166.57 1389.8 C 1167.67 1328.07 1167.05 1265.98 1167.09 1204.24 L 1167.22 1145.27 C 1167.24 1133.46 1169.61 1106.8 1160.87 1100.08 C 1151.41 1092.82 1117.24 1094.97 1105.13 1094.98 C 1079.1 1094.93 1053.07 1095.01 1027.04 1095.23 C 1026.99 1086.35 1027.04 1077.48 1027.17 1068.6 C 1033.1 1068.18 1038.9 1068.39 1044.85 1068.51 C 1044.48 1057.11 1043.08 1041.9 1045.42 1031.02 C 1046.61 1025.46 1049.77 1023.72 1054.3 1021.02 z"/>
<path transform="translate(0,0)" fill="rgb(82,85,157)" d="M 1068.76 1112.88 C 1081.14 1112.85 1139.98 1111.7 1147.88 1114.42 C 1150.73 1123.59 1149.75 1209.79 1149.68 1224.58 L 1149.27 1388.61 C 1113.14 1380.78 1122.54 1374.73 1137.7 1347.57 C 1125.88 1334.75 1109.1 1319.4 1096.35 1307.01 C 1093.1 1309.05 1089.43 1311.01 1086.07 1312.89 C 1085.96 1299.07 1085.21 1274.31 1086.62 1261.17 C 1094.65 1251.16 1109.02 1237.97 1118.54 1228.55 C 1119.06 1218.82 1118.98 1207.89 1119.13 1198.06 C 1131.23 1190.41 1140.16 1178.65 1130.4 1164.72 C 1126.55 1159.13 1120.48 1155.47 1113.74 1154.67 C 1095.93 1152.59 1091.35 1166.5 1089.61 1180.65 C 1093.94 1190.89 1096.21 1191.81 1104.78 1198.88 C 1105.12 1206.42 1105.12 1214.51 1105.26 1222.09 C 1098.94 1230.36 1080.32 1247.53 1071.98 1255.68 C 1071.94 1277.51 1072.16 1299.33 1072.62 1321.16 C 1068.88 1319.99 1065.22 1318.65 1061.53 1317.33 C 1058.69 1309.77 1056.46 1298.22 1054.63 1290.08 C 1045.1 1289.18 1037.32 1289.08 1027.8 1288.98 C 1027.31 1274.11 1027.49 1258.23 1027.42 1243.27 C 1039.94 1229.5 1057.47 1216.89 1068.23 1200.81 C 1069.06 1172.08 1068.68 1141.75 1068.76 1112.88 z"/>
<path transform="translate(0,0)" fill="rgb(82,85,157)" d="M 1027.42 1112.8 C 1036.61 1112.76 1045.8 1112.8 1054.99 1112.94 L 1055 1196.02 C 1051.78 1200.34 1045.65 1205.93 1041.61 1209.84 C 1037.06 1214.55 1032.36 1219.12 1027.53 1223.53 C 1027.95 1187.09 1026.25 1149.2 1027.42 1112.8 z"/>
<path transform="translate(0,0)" fill="rgb(34,122,185)" d="M 908.222 1207.53 C 913.285 1206.83 917.996 1210.26 918.882 1215.29 C 919.769 1220.33 916.513 1225.16 911.514 1226.23 C 908.114 1226.96 904.589 1225.77 902.323 1223.13 C 900.056 1220.5 899.411 1216.83 900.641 1213.58 C 901.87 1210.33 904.778 1208.01 908.222 1207.53 z"/>
<path transform="translate(0,0)" fill="rgb(82,85,157)" d="M 1109.4 1167.48 C 1114.25 1165.97 1119.43 1168.56 1121.14 1173.35 C 1122.85 1178.14 1120.47 1183.42 1115.75 1185.32 C 1112.52 1186.62 1108.85 1186.05 1106.17 1183.83 C 1103.49 1181.61 1102.24 1178.1 1102.91 1174.69 C 1103.59 1171.28 1106.08 1168.51 1109.4 1167.48 z"/>
<path transform="translate(0,0)" fill="rgb(34,122,185)" d="M 901.381 1276.54 C 906.057 1274.54 911.468 1276.73 913.446 1281.41 C 915.424 1286.1 913.215 1291.5 908.521 1293.46 C 903.857 1295.4 898.498 1293.21 896.532 1288.55 C 894.567 1283.9 896.734 1278.53 901.381 1276.54 z"/>
</svg>