<svg version="1.1" xmlns="http://www.w3.org/2000/svg" style="display: block;" viewBox="0 0 2048 2048" width="1024" height="1024" preserveAspectRatio="none">
<path transform="translate(0,0)" fill="rgb(97,139,63)" d="M 1238.79 420.91 C 1248.92 440.883 1256.56 472.494 1262.55 494.353 C 1286.88 581.211 1296.53 673.94 1268.26 761.019 C 1247.83 823.938 1202.07 875.92 1153.2 919.101 C 1094.68 970.807 1066.47 1005.56 1066.93 1087.58 C 1058.85 1092.7 1032.09 1108.53 1023.72 1111.4 C 1012.55 1107.72 991.262 1094.81 981.741 1087.66 C 983.696 1057.61 1006.41 1006.32 1020.37 979.245 C 1033.07 955.703 1061.18 924.877 1080.02 904.89 C 1085.64 898.928 1091.31 897.022 1093.04 889.389 C 1091.76 862.986 1091.31 823.926 1092.32 797.2 C 1093.12 775.809 1089.11 695.856 1096.14 680.768 C 1112.09 646.569 1135.77 612.706 1151.69 576.977 L 1152.72 574.936 C 1157.57 570.594 1169.01 548.476 1172.73 541.677 L 1216.44 461.79 C 1221.69 452.092 1233.55 428.438 1238.79 420.91 z"/>
<path transform="translate(0,0)" fill="rgb(124,163,67)" d="M 1151.69 576.977 C 1156.47 584.209 1160.64 602.53 1163.01 611.262 C 1175.94 658.452 1184.03 707.586 1174.23 756.19 C 1165.7 798.507 1144.82 834.514 1116.18 866.384 C 1110.5 872.707 1100.07 884.905 1093.04 889.389 C 1091.76 862.986 1091.31 823.926 1092.32 797.2 C 1093.12 775.809 1089.11 695.856 1096.14 680.768 C 1112.09 646.569 1135.77 612.706 1151.69 576.977 z"/>
<path transform="translate(0,0)" fill="rgb(124,163,67)" d="M 1020.37 979.245 C 1025.29 994.802 1025.61 1089.38 1023.72 1111.4 C 1012.55 1107.72 991.262 1094.81 981.741 1087.66 C 983.696 1057.61 1006.41 1006.32 1020.37 979.245 z"/>
<path transform="translate(0,0)" fill="rgb(124,163,67)" d="M 934.508 975.666 C 925.288 967.016 915.216 954.913 906.989 945.166 C 867.079 897.64 839.242 847.349 836.839 784.173 C 834.264 716.505 854.116 661.665 901.44 611.784 C 984.347 524.399 1108.22 497.729 1208.81 437.211 C 1214.68 433.68 1232.99 421.09 1238.79 420.91 C 1233.55 428.438 1221.69 452.092 1216.44 461.79 L 1172.73 541.677 C 1169.01 548.476 1157.57 570.594 1152.72 574.936 C 1151.52 575.377 1149.33 576.13 1148.31 576.75 C 1063.23 628.299 946.373 653.392 909.516 758.438 C 883.852 831.583 903.129 908.117 934.508 975.666 z"/>
<path transform="translate(0,0)" fill="rgb(217,170,72)" d="M 1003.31 711.001 C 1012.94 710.51 1059.97 710.38 1067.08 712.237 C 1066.64 731.799 1067.47 753.275 1067.62 773 L 1067.71 881.173 C 1059.14 893.491 1036.98 914.365 1025.56 928.406 C 1009.06 951.122 988.744 980.048 979.732 1006.59 C 982.046 945.874 980.776 879.158 980.951 817.946 L 931.685 818.928 C 931.633 804.849 931.761 790.77 932.067 776.695 C 972.397 760.865 985.477 750.571 1003.31 711.001 z"/>
<path transform="translate(0,0)" fill="rgb(190,145,46)" d="M 1067.08 712.237 C 1066.64 731.799 1067.47 753.275 1067.62 773 L 1067.71 881.173 C 1059.14 893.491 1036.98 914.365 1025.56 928.406 C 1020.38 903.727 1024.14 860.378 1024 834.101 C 1024.72 818.47 1023.62 802.486 1025.14 786.92 C 1026.79 770.074 1039.9 753.938 1048.43 739.934 C 1053.12 732.232 1064.81 719.908 1067.08 712.237 z"/>
<path transform="translate(0,0)" fill="rgb(217,170,72)" d="M 675.265 1080.89 C 692.241 1087.33 714.079 1100.51 730.081 1109.75 L 804.165 1152.91 C 821.267 1162.89 864.133 1186.19 878.255 1196.99 C 861.645 1208.56 815.99 1234.22 798.397 1243.3 L 795.1 1243.7 C 781.858 1239.03 604.986 1135.93 595.973 1127.79 C 600.705 1124.27 605.79 1121.29 610.88 1118.32 C 632.31 1105.83 653.366 1092.56 675.265 1080.89 z"/>
<path transform="translate(0,0)" fill="rgb(217,170,72)" d="M 789.808 1014.16 C 795.313 1015.6 813.089 1026.28 819.134 1029.75 L 889.714 1070.98 C 911.55 1083.27 933.32 1095.67 955.021 1108.2 C 965.007 1113.91 975.315 1119.72 985.265 1125.52 C 988.602 1127.47 988.879 1128.13 989.555 1130.99 C 986.132 1135.89 918.907 1174.59 910.51 1177.96 C 900.314 1174.6 870.38 1155.36 859.666 1149.47 C 809.066 1121.66 759.479 1090.12 708.659 1062.82 C 731.685 1050.38 767.587 1024.24 789.808 1014.16 z"/>
<path transform="translate(0,0)" fill="rgb(97,139,63)" d="M 1369.53 1082 C 1380.44 1082.86 1438.89 1119.42 1452.62 1127.48 C 1435.06 1140.64 1390.89 1164.53 1370.29 1176.37 C 1331.54 1198.65 1292.3 1222.48 1253.36 1244.04 C 1241.3 1241.33 1182.85 1204.74 1169.81 1196.88 C 1176.89 1191.44 1190.35 1183.92 1198.42 1179.22 L 1252.64 1148.24 C 1287.51 1128.22 1334.15 1098.85 1369.53 1082 z"/>
<path transform="translate(0,0)" fill="rgb(97,139,63)" d="M 1253.8 1014.78 C 1273.05 1021.39 1319.94 1050.84 1338.46 1062.23 L 1231.81 1124.34 C 1201.1 1142.17 1169.84 1160.72 1138.6 1177.44 C 1132.08 1177.84 1065.14 1137.11 1054.98 1131.05 C 1119.27 1091.13 1191.11 1056.47 1253.8 1014.78 z"/>
<path transform="translate(0,0)" fill="rgb(190,145,46)" d="M 907.866 1214.78 C 920.163 1218.08 956.133 1241.02 969.475 1248.75 L 1105.57 1327.56 C 1086.44 1342.83 1047.77 1363.88 1025.84 1375.11 C 1022.19 1374.89 1017.95 1373.11 1014.74 1371.34 C 966.177 1344.57 918.725 1315.68 870.431 1288.38 C 856.566 1280.54 841.098 1271.51 828.116 1262.39 C 852.034 1247.32 883.312 1229.04 907.866 1214.78 z"/>
<path transform="translate(0,0)" fill="rgb(190,145,46)" d="M 1022.66 1149.84 C 1030.53 1150.15 1080.13 1180.91 1089.82 1186.52 L 1220.99 1262.22 L 1140.43 1309.75 C 1132.98 1310.79 957.828 1206.62 942.149 1197.06 C 956.479 1185.81 1004.87 1159.68 1022.66 1149.84 z"/>
</svg>