<svg version="1.1" xmlns="http://www.w3.org/2000/svg" style="display: block;" viewBox="0 0 2048 2048" width="1024" height="1024" preserveAspectRatio="none">
<path transform="translate(0,0)" fill="rgb(9,71,36)" d="M 375.333 1776.1 C 374.088 1772.66 370.292 1762.71 370.236 1759.55 C 369.789 1734.58 369.959 1709.24 369.957 1684.26 L 369.963 1535.83 L 370.122 1074.61 L 369.985 628.45 L 369.979 488.291 C 369.952 430.188 365.147 394.359 392.234 340.246 C 413.86 297.045 447.92 268.029 492.861 250.141 C 534.158 233.872 573.472 236.724 616.697 236.402 L 750.791 236.088 L 1117.66 236.067 L 1378.72 236.138 L 1459.57 236.038 C 1467.08 236.027 1475.13 236.28 1482.59 236.001 C 1518.48 234.66 1553.1 247.7 1584.38 264.167 C 1598.54 271.621 1607.75 278.624 1618.43 290.512 C 1623.83 296.829 1632.8 304.078 1637.43 310.775 C 1649.03 327.528 1662.23 350.648 1668.42 370.063 C 1681.1 409.849 1677.98 459.323 1677.98 500.53 L 1678.02 639.499 L 1678.07 1069.37 L 1678.08 1524.86 L 1678.14 1673.48 C 1678.15 1700.65 1678.35 1727.84 1677.91 1755.01 C 1677.76 1763.89 1675.78 1769.05 1672.38 1776.83 C 1663.24 1797.75 1641.47 1812.22 1618.63 1812.25 C 1599.21 1812.28 1579.78 1812.19 1560.35 1812.18 L 1471.32 1812.17 L 1197.22 1812.17 L 689.074 1812.13 L 520.858 1812.13 C 490.022 1812.13 459.185 1812.26 428.352 1811.9 C 415.865 1811.75 406.696 1809.27 396.753 1801.35 C 388.015 1795.57 380.262 1785.27 375.333 1776.1 z"/>
<path transform="translate(0,0)" fill="rgb(254,254,254)" d="M 548.776 277.412 C 559.149 276.123 585.321 276.774 596.908 276.788 L 686.353 276.876 L 986.423 276.848 L 1333.44 276.838 L 1442.01 276.788 C 1494.68 276.784 1531.03 272.96 1576.41 306.582 C 1608.8 330.654 1630.37 366.558 1636.4 406.466 C 1639.31 426.005 1638.64 448.951 1638.64 468.975 L 1638.62 552.881 L 1638.63 841.602 L 1638.61 1164.67 L 1638.6 1263.7 C 1638.6 1279.83 1639.34 1304.67 1637.66 1319.91 C 1634.57 1346.96 1624.35 1372.71 1608.04 1394.51 C 1581.34 1430.09 1544.65 1449.91 1501.09 1456.27 C 1488.59 1457.79 1462.1 1457.14 1448.87 1457.13 L 1353.08 1457.09 L 1037.89 1457.08 L 704.791 1457.1 L 607.333 1457.17 C 553.073 1457.2 514.553 1459.45 468.766 1423.44 C 436.339 1397.9 415.475 1360.45 410.822 1319.43 C 408.889 1302.7 409.567 1277.6 409.575 1259.92 L 409.665 1164.1 L 409.617 845.399 L 409.589 552.539 L 409.516 466.271 C 409.495 416.039 409.371 376.353 443.257 334.29 C 470.581 300.372 505.556 281.99 548.776 277.412 z"/>
<path transform="translate(0,0)" fill="rgb(9,71,36)" d="M 555.746 307.424 C 574.181 305.41 604.865 307.095 623.978 307.115 L 748.352 307.177 L 1136.56 307.164 L 1378.37 307.133 L 1452.71 307.061 C 1469.08 307.05 1487.45 306.284 1503.49 308.449 C 1559.29 315.981 1603.97 363.827 1607.17 420.151 C 1608.43 442.216 1607.96 463.617 1607.92 485.465 L 1607.9 591.559 L 1607.97 936.123 L 1607.99 1194.8 L 1607.98 1271.97 C 1607.97 1285.12 1608.55 1306.36 1606.93 1318.73 C 1603.63 1342.98 1593.39 1365.76 1577.45 1384.32 C 1556.49 1408.34 1527.01 1423.25 1495.24 1425.89 C 1493.85 1426.07 1492.45 1426.22 1491.05 1426.33 C 1474.41 1427.78 1448.47 1426.98 1430.91 1426.98 L 1322.63 1426.98 L 977.288 1426.96 L 692.509 1426.95 L 606.998 1426.98 C 589.088 1426.98 566.305 1427.59 548.985 1425.54 C 525.339 1422.61 503.04 1412.93 484.757 1397.65 C 459.144 1376.21 443.262 1345.35 440.707 1312.05 C 439.276 1293.96 440.065 1268.47 440.096 1249.91 L 440.087 1146.66 L 440.089 809.386 L 440.099 546.775 L 440.12 466.238 C 440.134 452.016 439.609 429.934 441.155 416.274 C 443.807 391.737 453.856 368.585 469.968 349.89 C 492.443 323.733 521.656 309.993 555.746 307.424 z"/>
<path transform="translate(0,0)" fill="rgb(9,71,36)" d="M 983.035 1351.26 C 853.612 1340.91 733.459 1280.05 648.556 1181.82 C 564.86 1085.52 523.496 959.554 533.81 832.382 C 543.95 707.577 603.203 591.896 698.558 510.74 C 800.233 423.223 932.925 380.446 1066.57 392.1 C 1196.9 402.689 1317.72 464.53 1402.52 564.063 C 1485.04 660.04 1525.3 785.268 1514.19 911.351 C 1503.25 1037.34 1442.78 1153.85 1346.05 1235.32 C 1270.75 1298.96 1164.21 1346.93 1065.02 1351.23 L 1065.08 1322.84 L 1065.09 1102.91 L 1008.01 1102.89 C 1007.6 1103.66 1007.19 1104.42 1006.77 1105.17 C 989.02 1137.47 962.953 1148.86 929.36 1158.59 L 929.184 1203.9 L 983.033 1203.77 L 983.027 1322.4 L 983.035 1351.26 z"/>
<path transform="translate(0,0)" fill="rgb(241,241,205)" d="M 932.569 997.644 C 980.765 1040.07 1036.77 1051.72 1093.28 1015.4 C 1101.59 1010.06 1108.5 1004.09 1116.04 997.812 C 1118.57 1008.31 1121.63 1022.79 1132.09 1027.45 C 1161.03 1040.32 1195.47 1051.18 1225.13 1061.5 C 1267.65 1076.29 1302.16 1093.37 1314.35 1140.31 C 1320.75 1163.14 1322.2 1190.56 1327.57 1212.89 C 1250.2 1278.5 1164.92 1311.2 1065.08 1322.84 L 1065.09 1102.91 L 1008.01 1102.89 C 1007.6 1103.66 1007.19 1104.42 1006.77 1105.17 C 989.02 1137.47 962.953 1148.86 929.36 1158.59 L 929.184 1203.9 L 983.033 1203.77 L 983.027 1322.4 C 893.465 1316.85 787.499 1272.08 720.852 1212.14 C 729.174 1168.02 730.512 1110.61 772.652 1084.63 C 808.52 1062.53 852.604 1052.68 891.745 1037.56 C 921.942 1025.91 922.923 1028.64 932.569 997.644 z"/>
<path transform="translate(0,0)" fill="rgb(233,189,37)" d="M 983.035 1351.26 C 853.612 1340.91 733.459 1280.05 648.556 1181.82 C 564.86 1085.52 523.496 959.554 533.81 832.382 C 543.95 707.577 603.203 591.896 698.558 510.74 C 800.233 423.223 932.925 380.446 1066.57 392.1 C 1196.9 402.689 1317.72 464.53 1402.52 564.063 C 1485.04 660.04 1525.3 785.268 1514.19 911.351 C 1503.25 1037.34 1442.78 1153.85 1346.05 1235.32 C 1270.75 1298.96 1164.21 1346.93 1065.02 1351.23 L 1065.08 1322.84 C 1164.92 1311.2 1250.2 1278.5 1327.57 1212.89 C 1345.11 1197.31 1356.57 1186.42 1372.12 1168.85 C 1452.46 1079.72 1493.23 961.835 1485.13 842.118 C 1477.96 724.883 1424.37 615.339 1336.2 537.734 C 1242.98 454.6 1120.27 412.41 995.638 420.644 C 869.937 428.902 755.47 482.48 672.267 577.878 C 593.927 666.822 554.53 783.469 562.898 901.699 C 571.568 1025.55 627.601 1131.26 720.852 1212.14 C 787.499 1272.08 893.465 1316.85 983.027 1322.4 L 983.035 1351.26 z"/>
<path transform="translate(0,0)" fill="rgb(241,241,205)" d="M 1007.5 771.431 C 1051.71 769.104 1124.16 776.286 1164.51 793.731 C 1165.25 807.758 1165.46 821.656 1164.15 835.663 C 1157.48 906.927 1115.96 992.685 1039.26 1007.78 C 932.271 1020.45 875.44 882.93 883.976 793.907 C 916.319 778.924 971.585 773.202 1007.5 771.431 z"/>
<path transform="translate(0,0)" fill="rgb(241,241,205)" d="M 1033.02 608.839 C 1048.73 604.659 1062.37 597.187 1077.05 592.473 C 1134.96 573.875 1153.39 667.526 1164.41 707.242 C 1086.37 693.639 962.155 695.594 884.136 707.15 C 884.46 705.722 884.796 704.297 885.145 702.875 C 892.377 673.385 908.944 610.579 936.204 595.67 C 963.673 580.647 987.182 601.766 1015.27 608.66 C 1021.4 609.91 1026.81 609.521 1033.02 608.839 z"/>
<path transform="translate(0,0)" fill="rgb(241,241,205)" d="M 991.953 722.453 C 1090.91 719.793 1217.67 725.147 1308.51 767.753 C 1346.24 785.454 1327.63 817.428 1296.42 830.467 C 1259.42 845.921 1227.04 852.247 1187.55 858.348 L 1190.72 834.254 C 1210.45 830.158 1300.98 815.716 1304.4 795.165 C 1297.71 782.323 1248.64 769.356 1232.98 765.924 C 1176.07 753.453 1115.08 747.925 1056.93 746.718 C 974.685 743.273 827.511 750.893 750.58 788.287 C 747.98 789.551 744.522 792.936 743.687 796.126 C 752.792 815.887 835.658 830.382 857.987 834.048 C 858.927 842.14 859.742 850.246 860.432 858.363 C 823.486 852.574 757.787 841.62 729.603 816.789 C 723.669 811.561 719.227 805.123 718.901 797.01 C 718.606 789.656 721.7 783.185 726.61 777.847 C 765.912 735.117 933.627 723.999 991.953 722.453 z"/>
<path transform="translate(0,0)" fill="rgb(48,130,65)" d="M 1022.93 562.729 C 1036.53 525.608 1028.38 497.499 1073.42 476.077 C 1094.13 466.23 1118.73 463.674 1141.18 461.202 C 1138.36 520.916 1113.8 558.562 1051.01 561.525 C 1064.43 530.679 1073.28 518.429 1099.67 497.183 C 1072.86 507.519 1054.94 523.856 1042.51 550.258 C 1036.92 562.135 1028.71 597.681 1033.02 608.839 C 1026.81 609.521 1021.4 609.91 1015.27 608.66 L 1017.3 607.949 C 1019.56 599.002 1016.85 580.619 1013.97 571.608 C 1008.07 553.144 996.286 540.166 978.88 532.042 C 990.182 543.946 999.658 555.318 1004.19 571.351 C 958.923 567.466 944.917 541.417 941.994 499.777 C 964.257 501.303 989.195 504.221 1005.01 521.914 C 1016.16 534.383 1018.04 547.746 1022.93 562.729 z"/>
<path transform="translate(0,0)" fill="rgb(254,254,254)" d="M 927.526 1572.24 C 948.364 1569.76 966.331 1575.84 979.34 1592.92 C 995.369 1580.02 1005.76 1572.61 1027.49 1571.73 C 1042.21 1571.26 1057.8 1575.61 1068.48 1586.09 C 1088.05 1605.27 1084.57 1636.72 1084.46 1661.82 C 1084.36 1679.45 1084.36 1697.08 1084.46 1714.71 C 1071.18 1714.94 1057.38 1714.74 1044.06 1714.73 C 1043.85 1685.29 1045.35 1655.94 1042.8 1626.56 C 1040.87 1604.36 1011.25 1600.68 999.341 1613.53 C 985.447 1628.52 989.285 1665.98 989.417 1686.5 L 989.705 1714.8 L 949.023 1714.7 L 949.164 1661.33 C 949.197 1645.86 952.127 1619.55 937.22 1609.77 C 927.903 1603.66 912.029 1605.54 904.268 1613.67 C 895.108 1623.26 894.577 1637.3 894.666 1649.84 C 894.691 1671.47 894.784 1693.07 894.88 1714.68 C 881.49 1714.95 867.533 1714.77 854.096 1714.78 L 854 1573.69 C 866.869 1573.6 879.739 1573.67 892.606 1573.91 L 892.807 1589.43 C 904.052 1578.65 912.418 1574.92 927.526 1572.24 z"/>
<path transform="translate(0,0)" fill="rgb(254,254,254)" d="M 635.617 1572.37 C 655.724 1569.03 684.799 1573.42 699.346 1588.63 C 718.482 1608.63 715.106 1638.51 715.002 1663.96 L 715.019 1714.58 C 702.561 1714.85 689.684 1714.69 677.187 1714.68 L 676.902 1699.11 C 654.092 1722.24 617.477 1723.11 593.233 1701.88 C 586.473 1693.92 583.013 1686.62 582.595 1676.06 C 580.563 1624.66 640.064 1630.47 674.622 1630.44 C 671.096 1590.39 625.918 1602.29 602.538 1616.82 C 597.426 1607.61 592.526 1598.28 587.842 1588.85 C 603.825 1578.37 616.702 1574.75 635.617 1572.37 z"/>
<path transform="translate(0,0)" fill="rgb(9,71,36)" d="M 637.394 1655.14 C 649.498 1654.49 662.703 1654.69 674.915 1654.64 C 674.916 1671.16 673.824 1678.08 658.514 1686.62 C 624.499 1699 606.513 1664.58 637.394 1655.14 z"/>
<path transform="translate(0,0)" fill="rgb(254,254,254)" d="M 1170.66 1572.27 C 1206.44 1567.51 1240.73 1584.73 1250.33 1621.06 C 1253.54 1633.2 1253.09 1643.4 1252.94 1655.79 L 1148.13 1655.57 C 1153.36 1670.46 1161.16 1680.47 1177.48 1683.67 C 1196.25 1687.35 1207.4 1681.35 1222.07 1671.78 C 1224.86 1672.66 1226.05 1674.61 1228.33 1676.95 L 1244.44 1693.12 C 1232.85 1705.6 1222.56 1711.44 1205.19 1715.14 C 1135.31 1730.04 1081.99 1663.92 1120.8 1601.28 C 1131.18 1584.52 1150.92 1575.66 1170.66 1572.27 z"/>
<path transform="translate(0,0)" fill="rgb(9,71,36)" d="M 1180.66 1602.34 C 1201.39 1603.54 1210 1611.22 1215.08 1631.09 L 1184.5 1631.09 L 1147.89 1631.12 C 1153.53 1612.28 1161.07 1604.4 1180.66 1602.34 z"/>
<path transform="translate(0,0)" fill="rgb(254,254,254)" d="M 436.957 1530.99 L 572.763 1530.99 L 572.673 1564.83 C 541.696 1565.21 509.998 1564.87 478.963 1564.87 L 478.923 1611.49 C 498.853 1611.53 537.778 1611.15 559.278 1611.68 C 559.803 1612.11 560.329 1612.55 560.854 1612.98 L 560.986 1616.75 L 561.02 1645.24 L 478.955 1645.37 L 479.007 1714.76 L 436.979 1714.79 L 436.957 1530.99 z"/>
<path transform="translate(0,0)" fill="rgb(233,189,37)" d="M 1383.29 1530.94 L 1460.8 1530.93 L 1460.82 1714.61 L 1419.26 1714.62 L 1419.28 1564.93 L 1383.21 1564.93 L 1383.29 1530.94 z"/>
<path transform="translate(0,0)" fill="rgb(254,254,254)" d="M 1353.85 1572.36 C 1356.6 1572.09 1361.3 1572.1 1364.22 1572.01 L 1364.3 1609.04 C 1361.68 1608.94 1359.06 1608.87 1356.44 1608.85 C 1326.03 1608.51 1317.37 1627.39 1317.83 1654.72 C 1318.16 1674.53 1318.05 1694.82 1318.06 1714.66 C 1310.54 1714.8 1282.19 1716.41 1277.53 1713.25 L 1277.17 1709.25 L 1277.09 1573.62 C 1289.5 1573.23 1303.81 1573.65 1316.36 1573.74 L 1315.93 1592.38 C 1329.32 1579.49 1334.5 1575.04 1353.85 1572.36 z"/>
<path transform="translate(0,0)" fill="rgb(254,254,254)" d="M 823.509 1572.31 L 833.743 1572.05 L 833.364 1609.05 C 831.072 1608.93 828.779 1608.86 826.485 1608.83 C 784.405 1608.25 786.89 1643.5 787.593 1674 C 787.902 1687.39 787.764 1701.25 787.854 1714.68 C 781.35 1714.8 751.878 1716.03 747.434 1713.76 L 747.012 1711.25 L 747.037 1573.81 C 760.011 1573.66 772.986 1573.65 785.959 1573.8 L 785.898 1592.05 C 798.137 1579.59 806.225 1574.57 823.509 1572.31 z"/>
<path transform="translate(0,0)" fill="rgb(233,189,37)" d="M 1511.26 1539.2 C 1527.02 1537.68 1537.31 1539.75 1551.77 1545.43 L 1544.12 1562.49 C 1535.16 1558.84 1510.1 1550.09 1506.64 1564.22 C 1509.04 1574.97 1536.31 1571.98 1546.59 1581.07 C 1558.9 1591.97 1558.89 1599.26 1549.73 1613.16 C 1544.33 1621.36 1531.6 1623.69 1522.97 1625.03 C 1506.73 1625.4 1495.77 1623.74 1481.57 1615.94 L 1489.12 1598.36 C 1498.39 1603.58 1527.59 1613.47 1532.81 1599.08 C 1529.55 1590.39 1503.74 1590.66 1495.6 1584.67 C 1470.3 1566.06 1486.23 1544.12 1511.26 1539.2 z"/>
<path transform="translate(0,0)" fill="rgb(233,189,37)" d="M 1571.92 1520.71 L 1595.42 1520.95 L 1595.12 1541.71 C 1601.89 1541.53 1608.59 1541.65 1615.36 1541.74 L 1615.07 1560 L 1595.15 1559.95 C 1595.32 1571.01 1590.83 1599.11 1602.03 1604.95 C 1605.67 1606.85 1611.37 1604.6 1615.13 1603.38 L 1619.77 1616.68 C 1621.45 1623.9 1609.53 1624.89 1604.61 1625.07 C 1563.35 1626.61 1571.9 1590.03 1571.79 1559.96 L 1559.94 1560.38 L 1559.52 1542.09 L 1571.92 1541.57 L 1571.92 1520.71 z"/>
</svg>