<svg version="1.1" xmlns="http://www.w3.org/2000/svg" style="display: block;" viewBox="0 0 2048 2048" width="1024" height="1024" preserveAspectRatio="none">
<path transform="translate(0,0)" fill="rgb(43,182,97)" d="M 1483.92 437.888 C 1491.09 447.818 1493.62 513.479 1493.18 528.751 C 1490.76 588.422 1473.91 652.938 1444.87 705.088 C 1392.2 799.697 1289.88 846.105 1185.59 855.077 C 1168.67 856.533 1151.61 855.211 1134.67 854.9 C 1139.48 847.863 1141.8 842.473 1145.29 834.722 C 1181.48 754.237 1240.74 683.506 1309.46 628.688 C 1314.63 624.568 1343.54 604.342 1345.57 600.697 C 1343.47 598.713 1344.68 599.352 1341.81 598.762 C 1329.78 601.931 1318.83 608.743 1307.61 613.856 C 1170.52 676.352 1068.2 817.517 1066.66 970.391 C 1066.36 991.764 1066.43 1013.14 1066.89 1034.51 C 1067.54 1088.43 1066.51 1143.52 1066.4 1197.49 L 1067.03 1324.11 C 1067.2 1325.09 1067.03 1324.43 1067.97 1325.92 C 1096.3 1324.23 1129.13 1326.71 1159.03 1325.18 C 1159.58 1349.3 1159.21 1374.78 1159.2 1399.01 C 1069.83 1396.51 976.61 1401.44 887.492 1398.32 C 887.977 1374.45 887.626 1349.65 887.58 1325.72 L 980.729 1325.9 L 980.781 1184.99 C 980.739 1153.09 981.027 1119.24 979.725 1087.51 C 961.392 1103.86 934.319 1115.43 910.356 1120.31 C 902.751 1121.86 892.884 1122.21 884.511 1123.47 C 883.68 1101.47 884.54 1072.71 884.818 1050.29 C 899.574 1047.95 906.36 1045.92 920.111 1040.55 C 1022.02 1000.79 997.61 885.016 1048.8 807.528 C 1071.23 773.571 1059.53 750.98 1069.2 713.22 C 1078.04 678.705 1088.61 645.535 1110.92 616.849 C 1155.5 550.977 1225.21 518.96 1299.95 499.492 C 1368.73 482.043 1421.89 477.597 1483.92 437.888 z"/>
<path transform="translate(0,0)" fill="rgb(26,152,81)" d="M 1305.73 874.789 C 1313.81 876.812 1337.71 891.707 1346.89 897.01 C 1374.69 912.775 1402.27 928.923 1429.62 945.45 C 1434.58 948.415 1439.19 950.334 1444.14 953.383 C 1454.49 961.795 1479.94 972.095 1491.54 981.34 C 1493.12 982.595 1493.53 984.865 1493.98 986.767 C 1490.09 998.017 1492.22 1065.42 1492.12 1082.91 C 1491.29 1225.23 1492.88 1367.86 1491.54 1510.11 C 1491.53 1511.37 1360.92 1588.2 1346.23 1596.83 L 1124.41 1726.43 C 1109.21 1735.3 1035.43 1780.94 1023.73 1783.74 C 1024.93 1751.19 1022.85 1717.08 1024.12 1684.83 C 1031.61 1682.51 1054.96 1666.37 1063.69 1661.58 C 1082.38 1651.34 1101.14 1639.64 1119.49 1628.89 L 1344.67 1497.18 C 1364.57 1485.39 1385.5 1473.89 1405.11 1461.89 C 1406.78 1443.07 1406.05 1417.29 1406.04 1397.99 L 1405.95 1295.16 L 1405.92 1132.12 C 1405.99 1098.94 1406.64 1064.33 1405.88 1031.26 C 1401.79 1028.06 1384.68 1018.93 1379.09 1015.67 C 1357.18 1002.75 1335.15 990.035 1313.01 977.522 C 1270.01 953.209 1225.53 925.682 1182.99 900.249 C 1225.46 899.921 1265.55 886.856 1305.73 874.789 z"/>
<path transform="translate(0,0)" fill="rgb(43,182,97)" d="M 555.269 982.171 C 566.829 974.75 581.762 966.819 593.935 959.672 L 666.967 916.642 C 672.178 919.811 677.769 923.649 682.763 927.152 C 705.58 943.158 731.024 953.264 755.955 965.386 C 744.878 969.524 716.729 987.294 705.55 994.026 C 685.342 1006.2 660.244 1019.14 641.117 1032.17 C 639.666 1084.6 640.707 1141.77 640.441 1194.73 C 639.705 1269.3 639.945 1343.88 641.161 1418.45 C 641.309 1432.59 640.734 1446.37 641.065 1460.65 C 656.866 1473.04 680.424 1484.76 698.044 1494.89 L 779.692 1542.7 L 1016.16 1682.18 C 1019.06 1683.85 1020.76 1684.44 1024.12 1684.83 C 1022.85 1717.08 1024.93 1751.19 1023.73 1783.74 C 1014.97 1781.02 965.229 1750.63 954.147 1744.03 L 843.969 1679.66 C 774.72 1639.84 705.86 1599.36 637.397 1558.2 L 579.427 1524.09 C 573.119 1520.3 561.497 1514.22 556.465 1509.75 C 554.294 1502.14 555.373 1472.99 555.373 1462.9 L 555.152 1381.67 L 555.269 982.171 z"/>
<path transform="translate(0,0)" fill="rgb(43,182,97)" d="M 587.45 602.017 C 602.518 608.782 617.953 615.498 633.971 619.6 C 677.319 630.701 723.8 632.111 767.339 639.586 C 792.597 643.873 817.264 651.113 840.831 661.158 C 937.775 701.99 970.758 776.596 977.567 876.679 C 978.635 892.387 976.667 908.388 978.11 923.984 L 978.273 925.638 C 927.363 838.796 846.773 766.244 750.258 734.545 C 744.376 732.523 726.867 725.672 722.019 727.951 C 722.232 732.331 735.469 738.44 739.502 740.855 C 747.763 745.86 755.924 751.026 763.982 756.352 C 832.548 801.514 888.533 858.894 926.923 931.886 C 827.037 941.176 721.846 927.921 655.987 843.354 C 602.16 775.12 577.521 688.358 587.45 602.017 z"/>
<path transform="translate(0,0)" fill="rgb(43,182,97)" d="M 1067.17 266.449 C 1076.87 270.659 1101.05 299.462 1108.22 308.358 C 1149.96 360.198 1176.47 437.79 1168.69 504.526 C 1159.03 512.062 1146.38 519.397 1136.02 527.049 C 1107.11 548.345 1082.63 575.068 1063.95 605.726 C 1052.76 623.731 1044.63 642.755 1036.36 662.206 C 1033.74 668.384 1029.77 686.551 1026.58 688.96 L 1025.95 688.007 C 1028.02 680.225 1024.71 680.271 1024.47 674.516 C 1022.92 637.899 1021.15 597.114 1024.69 560.659 C 1028.48 521.67 1037.71 480.667 1052.51 444.534 C 1053.94 441.055 1055.31 439.327 1054.71 435.46 L 1053.18 435.158 C 1047.03 439.725 1035.73 460.613 1031.52 468.03 C 991.044 543.969 977.608 612.975 985.371 697.822 C 986.37 708.744 988.738 717.965 989.287 729 C 954.839 693.047 934.025 668.761 916.473 621.771 C 882.793 535.093 922.547 448.569 981.595 384.055 C 1017.3 345.042 1043.92 315.051 1067.17 266.449 z"/>
<path transform="translate(0,0)" fill="rgb(210,159,48)" d="M 1319.96 1040.15 C 1335.91 1039.03 1351.06 1045.43 1358.29 1058.53 C 1373.53 1086.17 1354.72 1122.89 1320.26 1116.65 C 1311.7 1115.09 1306.05 1111.85 1298.48 1109.89 C 1295.35 1110.95 1282.07 1119.6 1278.11 1121.93 C 1256.43 1134.74 1232.65 1147.6 1211.7 1161.43 C 1214.35 1181.78 1212.86 1190.61 1200.68 1206.72 C 1204.54 1214.91 1215.19 1230.02 1220.4 1238.26 C 1237.15 1264.74 1257.73 1292.64 1272.97 1319.75 C 1344.05 1300.62 1364.59 1396.36 1300.51 1414.15 C 1286.06 1418.16 1267.98 1411.59 1255.81 1403.44 C 1246.51 1413.34 1223.52 1428.87 1211.85 1437.58 C 1179.86 1461.44 1146.9 1483.88 1114.97 1507.96 C 1100.71 1518.71 1086.07 1528.14 1071.68 1539.42 C 1073.48 1560.88 1076.6 1573.74 1059.41 1591.41 C 1038.37 1613.04 1006.63 1611.2 986.452 1589.54 C 972.498 1574.57 974.655 1562.32 975.19 1543.87 C 969.793 1540.15 963.221 1536.94 957.299 1533.98 C 937.544 1524.08 918.549 1513.14 899.355 1502.2 L 819.715 1456.93 C 806.675 1449.58 802.307 1444 787.102 1437.9 L 786.507 1438.5 C 772.382 1452.4 761.057 1453.33 742.495 1453.09 C 732.422 1451.38 726.046 1448.58 718.275 1441.52 C 708.057 1432.25 701.941 1419.3 701.271 1405.52 C 700.702 1392.31 705.612 1379.46 714.841 1369.99 C 733.117 1351.49 767.384 1350.29 785.637 1369.62 C 800.884 1385.77 799.443 1396.78 799.096 1416.89 L 941.386 1497.19 C 955.382 1504.98 973.757 1518.45 987.777 1522.67 C 1033.08 1489.46 1044.44 1521.16 1059.81 1516.9 C 1068.02 1514.63 1082.09 1500.17 1089.63 1494.69 L 1178.24 1431.3 C 1182.42 1428.3 1241.3 1385.83 1241.33 1385.31 C 1242.69 1360.7 1235.77 1357.02 1252.39 1333.52 C 1246.8 1323.09 1183.83 1225.93 1179.83 1223.36 C 1172.37 1218.57 1152.44 1227 1134 1213.59 C 1123.33 1205.83 1116.75 1194.97 1114.78 1181.94 C 1112.7 1168.22 1114.99 1154.7 1123.68 1143.57 C 1131.98 1132.92 1145.7 1125.41 1159.18 1124.16 C 1174.15 1122.77 1186.62 1128.77 1197.83 1138.03 C 1211.56 1132.85 1231.71 1119.49 1245.02 1111.71 C 1258.88 1103.6 1274.18 1095.49 1287.68 1087.23 C 1286.96 1062.94 1294.8 1045.74 1319.96 1040.15 z"/>
<path transform="translate(0,0)" fill="rgb(210,159,48)" d="M 826.405 1195.07 C 843.614 1191.83 860.283 1202.84 864.073 1219.93 C 867.863 1237.03 857.407 1254.05 840.444 1258.39 C 828.765 1261.38 816.389 1257.65 808.31 1248.7 C 800.23 1239.75 797.779 1227.06 801.945 1215.75 C 805.891 1205.03 815.18 1197.17 826.405 1195.07 z"/>
<path transform="translate(0,0)" fill="rgb(210,159,48)" d="M 1177.66 976.22 C 1206.28 973.975 1208.9 992.532 1206.82 1015.5 C 1199.02 1022.85 1197.71 1024.91 1187.27 1027.93 C 1184.7 1028.02 1182.13 1028.05 1179.56 1028 C 1159.47 1027.45 1156.61 1008.91 1157.06 993.168 C 1163.14 983.793 1166.47 978.924 1177.66 976.22 z"/>
<path transform="translate(0,0)" fill="rgb(210,159,48)" d="M 1305.01 1198.71 C 1314.05 1195.87 1323.91 1198.16 1330.79 1204.68 C 1337.66 1211.19 1340.47 1220.92 1338.12 1230.1 C 1335.77 1239.28 1328.63 1246.46 1319.47 1248.87 C 1305.75 1252.48 1291.66 1244.48 1287.74 1230.85 C 1283.81 1217.23 1291.48 1202.95 1305.01 1198.71 z"/>
<path transform="translate(0,0)" fill="rgb(110,109,114)" fill-opacity="0.0117647" d="M 1227.09 1097.95 C 1230.58 1101 1230.45 1099.83 1230.34 1104.15 C 1227.5 1106.43 1226.21 1106.4 1222.76 1106.94 L 1222.38 1109.73 L 1221.05 1110.69 L 1217.82 1110.55 C 1216.67 1108.34 1216.97 1107.99 1217.44 1105.57 C 1218.71 1099.01 1221.37 1099.53 1227.09 1097.95 z"/>
<path transform="translate(0,0)" fill="rgb(1,0,1)" fill-opacity="0.0117647" d="M 798.6 1527.39 C 801.942 1526.87 801.765 1526.72 804.928 1527.77 L 805.065 1528.88 L 802.574 1529.41 C 800.287 1530.33 799.222 1530.66 796.837 1531.3 L 796.545 1529.95 L 798.6 1527.39 z"/>
</svg>